<svg xmlns="http://www.w3.org/2000/svg" viewBox="0 0 59 46.57"><g fill="#ffffff"><path d="M33.15,46.57H5.85a5.85,5.85,0,0,1-4.61-2.23A5.67,5.67,0,0,1,.15,39.5a19.89,19.89,0,0,1,38.7,0,5.7,5.7,0,0,1-1.09,4.85A5.87,5.87,0,0,1,33.15,46.57ZM19.5,29.2A14.79,14.79,0,0,0,5,40.65a.69.69,0,0,0,.14.59.89.89,0,0,0,.69.33h27.3a.89.89,0,0,0,.69-.33.69.69,0,0,0,.14-.59A14.79,14.79,0,0,0,19.5,29.2Z"/><path d="M19.5,21.65A10.83,10.83,0,1,1,30.32,10.82,10.84,10.84,0,0,1,19.5,21.65ZM19.5,5a5.83,5.83,0,1,0,5.82,5.82A5.83,5.83,0,0,0,19.5,5Z"/><path d="M53.74,46.57H30.26a2.5,2.5,0,1,1,0-5H53.74a.28.28,0,0,0,.22-.1.15.15,0,0,0,0-.12,11.82,11.82,0,0,0-19.25-6.19,2.5,2.5,0,1,1-3.28-3.77,16.8,16.8,0,0,1,27.39,8.82,5.11,5.11,0,0,1-1,4.36A5.27,5.27,0,0,1,53.74,46.57Z"/><path d="M42.5,26a9.35,9.35,0,1,1,9.35-9.35A9.35,9.35,0,0,1,42.5,26Zm0-13.7a4.35,4.35,0,1,0,4.35,4.35A4.35,4.35,0,0,0,42.5,12.34Z"/></g></svg>