<svg xmlns="http://www.w3.org/2000/svg" viewBox="0 0 59 59"><g fill="#ffffff"><path d="M29.5,52A22.5,22.5,0,1,1,52,29.5,22.52,22.52,0,0,1,29.5,52Zm0-40A17.5,17.5,0,1,0,47,29.5,17.52,17.52,0,0,0,29.5,12Z"/><path d="M29.5,12A2.5,2.5,0,0,1,27,9.5v-7a2.5,2.5,0,0,1,5,0v7A2.5,2.5,0,0,1,29.5,12Z"/><path d="M29.5,59A2.5,2.5,0,0,1,27,56.5v-7a2.5,2.5,0,0,1,5,0v7A2.5,2.5,0,0,1,29.5,59Z"/><path d="M56.5,32h-7a2.5,2.5,0,0,1,0-5h7a2.5,2.5,0,0,1,0,5Z"/><path d="M9.5,32h-7a2.5,2.5,0,0,1,0-5h7a2.5,2.5,0,0,1,0,5Z"/><path d="M29.5,39A9.5,9.5,0,1,1,39,29.5,9.51,9.51,0,0,1,29.5,39Zm0-14A4.5,4.5,0,1,0,34,29.5,4.51,4.51,0,0,0,29.5,25Z"/></g></svg>