<svg width="84" height="77" viewBox="0 0 84 77" fill="none" xmlns="http://www.w3.org/2000/svg">
<g clip-path="url(#clip0_421_557)">
<g opacity="0.67" filter="url(#filter0_f_421_557)">
<path d="M18.8351 14.1269L47.1738 35.4685L74.8408 31.1592L46.4123 10.2444L18.8351 14.1269Z" fill="url(#paint0_linear_421_557)"/>
</g>
<path opacity="0.5" d="M32.9399 76.6689L47.4929 36.7042L16.6521 13.4315L2.36094 52.8064L32.9399 76.6689Z" fill="url(#paint1_linear_421_557)"/>
<path opacity="0.8" d="M32.942 76.6677L47.495 36.703L77.7041 31.9977L63.4129 71.3725L32.942 76.6677Z" fill="url(#paint2_linear_421_557)"/>
<path d="M16.5545 13.402L47.4969 36.7045L77.7061 31.9992L46.6655 9.1627L16.5545 13.402Z" fill="url(#paint3_linear_421_557)"/>
<g opacity="0.67" filter="url(#filter1_f_421_557)">
<path d="M24.2851 10.3321L52.2151 31.366L79.4832 27.1188L51.4646 6.50555L24.2851 10.3321Z" fill="url(#paint4_linear_421_557)"/>
</g>
</g>
<defs>
<filter id="filter0_f_421_557" x="9.44924" y="0.858665" width="74.7773" height="43.9956" filterUnits="userSpaceOnUse" color-interpolation-filters="sRGB">
<feFlood flood-opacity="0" result="BackgroundImageFix"/>
<feBlend mode="normal" in="SourceGraphic" in2="BackgroundImageFix" result="shape"/>
<feGaussianBlur stdDeviation="4.69286" result="effect1_foregroundBlur_421_557"/>
</filter>
<filter id="filter1_f_421_557" x="14.2852" y="-3.49451" width="75.1982" height="44.8605" filterUnits="userSpaceOnUse" color-interpolation-filters="sRGB">
<feFlood flood-opacity="0" result="BackgroundImageFix"/>
<feBlend mode="normal" in="SourceGraphic" in2="BackgroundImageFix" result="shape"/>
<feGaussianBlur stdDeviation="5" result="effect1_foregroundBlur_421_557"/>
</filter>
<linearGradient id="paint0_linear_421_557" x1="48.9161" y1="10.6793" x2="44.6853" y2="35.0363" gradientUnits="userSpaceOnUse">
<stop stop-color="#FCFF62"/>
<stop offset="1" stop-color="#FFBF1B"/>
</linearGradient>
<linearGradient id="paint1_linear_421_557" x1="29.9661" y1="15.7442" x2="19.7806" y2="74.3832" gradientUnits="userSpaceOnUse">
<stop stop-color="#FCFF62"/>
<stop offset="1" stop-color="#FFBF1B"/>
</linearGradient>
<linearGradient id="paint2_linear_421_557" x1="59.7445" y1="28.8781" x2="50.9016" y2="79.7873" gradientUnits="userSpaceOnUse">
<stop stop-color="#FCFF62"/>
<stop offset="1" stop-color="#FFBF1B"/>
</linearGradient>
<linearGradient id="paint3_linear_421_557" x1="49.3993" y1="9.63756" x2="44.7798" y2="36.2326" gradientUnits="userSpaceOnUse">
<stop stop-color="#FCFF62"/>
<stop offset="1" stop-color="#FFBF1B"/>
</linearGradient>
<linearGradient id="paint4_linear_421_557" x1="53.9322" y1="6.93418" x2="49.7625" y2="30.94" gradientUnits="userSpaceOnUse">
<stop stop-color="#FCFF62"/>
<stop offset="1" stop-color="#FFBF1B"/>
</linearGradient>
<clipPath id="clip0_421_557">
<rect width="84" height="77" fill="white"/>
</clipPath>
</defs>
</svg>
