<svg width="84" height="77" viewBox="0 0 84 77" fill="none" xmlns="http://www.w3.org/2000/svg">
<g clip-path="url(#clip0_421_595)">
<path opacity="0.7" d="M44.0715 35.5266L24.4058 73.9258L58.495 76.7612L78.3777 39.1213L44.0715 35.5266Z" fill="url(#paint0_linear_421_595)"/>
<path d="M44.0723 35.5266L24.4065 73.9258L0.968705 47.0174L20.0539 9.05169L44.0723 35.5266Z" fill="url(#paint1_linear_421_595)"/>
<path opacity="0.4" d="M44.076 35.5249L78.404 39.2391L54.9662 12.3307L20.0577 9.04998L44.076 35.5249Z" fill="url(#paint2_linear_421_595)"/>
<g opacity="0.6" filter="url(#filter0_f_421_595)">
<path d="M45.4793 33.6908L79.8073 37.405L56.3695 10.4966L21.461 7.21588L45.4793 33.6908Z" fill="#8349FC"/>
</g>
</g>
<defs>
<filter id="filter0_f_421_595" x="11.4609" y="-2.78418" width="78.3462" height="50.1892" filterUnits="userSpaceOnUse" color-interpolation-filters="sRGB">
<feFlood flood-opacity="0" result="BackgroundImageFix"/>
<feBlend mode="normal" in="SourceGraphic" in2="BackgroundImageFix" result="shape"/>
<feGaussianBlur stdDeviation="5" result="effect1_foregroundBlur_421_595"/>
</filter>
<linearGradient id="paint0_linear_421_595" x1="55.8898" y1="73.7349" x2="44.6645" y2="35.6564" gradientUnits="userSpaceOnUse">
<stop stop-color="#651FDD"/>
<stop offset="1" stop-color="#6258D9"/>
</linearGradient>
<linearGradient id="paint1_linear_421_595" x1="20.5144" y1="64.5149" x2="18.7642" y2="16.9452" gradientUnits="userSpaceOnUse">
<stop stop-color="#6523D7"/>
<stop offset="1" stop-color="#6F64EB"/>
</linearGradient>
<linearGradient id="paint2_linear_421_595" x1="46.0404" y1="36.0513" x2="52.5685" y2="11.6882" gradientUnits="userSpaceOnUse">
<stop stop-color="#6523D7"/>
<stop offset="0.807145" stop-color="#4C42B9"/>
</linearGradient>
<clipPath id="clip0_421_595">
<rect width="84" height="77" fill="white"/>
</clipPath>
</defs>
</svg>
