<svg width="84" height="77" viewBox="0 0 84 77" fill="none" xmlns="http://www.w3.org/2000/svg">
<g clip-path="url(#clip0_421_612)">
<path opacity="0.8" d="M41.4432 47.7178L20.1802 10.3579L0.739775 41.1833L19.7961 76.0227L41.4432 47.7178Z" fill="url(#paint0_linear_421_612)"/>
<path opacity="0.9" d="M41.4431 47.7174L20.1801 10.3574L58.2044 9.41857L77.2607 44.2579L41.4431 47.7174Z" fill="url(#paint1_linear_421_612)"/>
<g opacity="0.9" filter="url(#filter0_f_421_612)">
<path d="M42.6375 46.8949L21.3744 9.53492L59.3987 8.59606L78.455 43.4354L42.6375 46.8949Z" fill="url(#paint2_linear_421_612)"/>
</g>
<path opacity="0.4" d="M41.4425 47.7178L19.6886 76.0452L54.3952 74.1536L77.26 44.2583L41.4425 47.7178Z" fill="url(#paint3_linear_421_612)"/>
</g>
<defs>
<filter id="filter0_f_421_612" x="11.3745" y="-1.40393" width="77.0806" height="58.2988" filterUnits="userSpaceOnUse" color-interpolation-filters="sRGB">
<feFlood flood-opacity="0" result="BackgroundImageFix"/>
<feBlend mode="normal" in="SourceGraphic" in2="BackgroundImageFix" result="shape"/>
<feGaussianBlur stdDeviation="5" result="effect1_foregroundBlur_421_612"/>
</filter>
<linearGradient id="paint0_linear_421_612" x1="3.91147" y1="29.5927" x2="36.0648" y2="56.7879" gradientUnits="userSpaceOnUse">
<stop stop-color="#DA0063"/>
<stop offset="1" stop-color="#D05F10"/>
</linearGradient>
<linearGradient id="paint1_linear_421_612" x1="23.5635" y1="6.35716" x2="73.5547" y2="48.6395" gradientUnits="userSpaceOnUse">
<stop stop-color="#FF0577"/>
<stop offset="1" stop-color="#FD7C22"/>
</linearGradient>
<linearGradient id="paint2_linear_421_612" x1="24.7578" y1="5.53465" x2="74.7491" y2="47.817" gradientUnits="userSpaceOnUse">
<stop stop-color="#FF0577"/>
<stop offset="1" stop-color="#FD7C22"/>
</linearGradient>
<linearGradient id="paint3_linear_421_612" x1="38.2442" y1="51.4992" x2="58.8299" y2="68.9104" gradientUnits="userSpaceOnUse">
<stop stop-color="#DA0063"/>
<stop offset="1" stop-color="#D05F10"/>
</linearGradient>
<clipPath id="clip0_421_612">
<rect width="84" height="77" fill="white"/>
</clipPath>
</defs>
</svg>
