<svg width="42" height="66" viewBox="0 0 42 66" fill="none" xmlns="http://www.w3.org/2000/svg">
<path d="M30.6251 49.4999H11.3762V65.9999H30.6251V49.4999Z" fill="#E6E9ED"/>
<path d="M41.625 50.8736C41.625 51.635 41.0106 52.2494 40.2513 52.2494H1.75062C0.991186 52.2494 0.375 51.635 0.375 50.8736V1.37472C0.375 0.615282 0.991186 0 1.75062 0H40.2513C41.0107 0 41.625 0.615282 41.625 1.37472V50.8736Z" fill="#FF889D"/>
<path d="M8.625 28.875L15.6968 17.0892L22.7684 28.875H8.625Z" fill="#E6E9ED"/>
<path d="M14.5184 28.8749L23.9467 12.375L33.3751 28.8749H14.5184Z" fill="#F5F7FA"/>
<path d="M25.2156 43.9994H16.9656C16.2063 43.9994 15.59 43.385 15.59 42.6237C15.59 41.8664 16.2063 41.2501 16.9656 41.2501H25.2156C25.9749 41.2501 26.5913 41.8664 26.5913 42.6237C26.5913 43.385 25.9749 43.9994 25.2156 43.9994Z" fill="url(#paint0_linear_316_298)"/>
<path d="M30.7162 38.4986H11.4647C10.7054 38.4986 10.0912 37.8843 10.0912 37.1249C10.0912 36.3637 10.7056 35.7493 11.4647 35.7493H30.7162C31.4755 35.7493 32.0899 36.3637 32.0899 37.1249C32.09 37.8844 31.4755 38.4986 30.7162 38.4986Z" fill="url(#paint1_linear_316_298)"/>
<path d="M34.7506 2.7493H7.25135C6.49192 2.7493 5.87573 2.13402 5.87573 1.37472C5.87573 0.615282 6.49192 0 7.25135 0H34.7506C35.51 0 36.1263 0.615282 36.1263 1.37472C36.1263 2.13389 35.51 2.7493 34.7506 2.7493Z" fill="#E6E9ED"/>
<path d="M36.1262 66H5.87562C5.11619 66 4.49988 65.3837 4.49988 64.6243C4.49988 63.865 5.11619 63.2487 5.87562 63.2487H36.1262C36.8855 63.2487 37.4999 63.865 37.4999 64.6243C37.5 65.3837 36.8855 66 36.1262 66Z" fill="#FF889D"/>
<defs>
<linearGradient id="paint0_linear_316_298" x1="15.8136" y1="41.3294" x2="16.578" y2="44.9516" gradientUnits="userSpaceOnUse">
<stop stop-color="#F1FFFC"/>
<stop offset="0.515625" stop-color="#F1F1FF"/>
<stop offset="1" stop-color="#E6F6FF"/>
</linearGradient>
<linearGradient id="paint1_linear_316_298" x1="10.5384" y1="35.8286" x2="10.9333" y2="39.5705" gradientUnits="userSpaceOnUse">
<stop stop-color="#F1FFFC"/>
<stop offset="0.515625" stop-color="#F1F1FF"/>
<stop offset="1" stop-color="#E6F6FF"/>
</linearGradient>
</defs>
</svg>
