<svg width="18" height="22" viewBox="0 0 18 22" fill="none" xmlns="http://www.w3.org/2000/svg">
<path d="M3.32812 16.384C3.32812 16.9325 3.77578 17.3801 4.32656 17.3801H5.46797V20.202C5.46797 20.9169 6.04219 21.5004 6.74766 21.5004C7.45547 21.5004 8.02734 20.9192 8.02734 20.202V17.3778H10.0195V20.1997C10.0195 20.9145 10.5937 21.4981 11.2992 21.4981C12.007 21.4981 12.5789 20.9169 12.5789 20.1997V17.3778H13.7203C14.2711 17.3778 14.7187 16.9301 14.7187 16.3817V7.1192H3.32812V16.384ZM11.6977 2.3192L12.75 0.795759C12.8109 0.706696 12.7969 0.587165 12.7148 0.528571C12.6328 0.472321 12.5156 0.500446 12.4547 0.589509L11.3625 2.17388C10.643 1.89029 9.8414 1.73326 9 1.73326C8.15859 1.73326 7.35703 1.89029 6.6375 2.17388L5.54531 0.591853C5.48437 0.50279 5.36719 0.472321 5.28516 0.530915C5.20312 0.587165 5.18906 0.704353 5.25 0.798103L6.30234 2.32154C4.62891 3.09967 3.45703 4.57388 3.30703 6.29654H14.6977C14.543 4.57154 13.3687 3.09732 11.6977 2.3192ZM6.59531 4.72154C6.47062 4.72154 6.34872 4.68456 6.24504 4.61529C6.14136 4.54601 6.06055 4.44754 6.01283 4.33234C5.96512 4.21714 5.95263 4.09037 5.97696 3.96807C6.00128 3.84577 6.06133 3.73344 6.1495 3.64526C6.23768 3.55709 6.35001 3.49704 6.47231 3.47272C6.59461 3.44839 6.72138 3.46088 6.83658 3.50859C6.95179 3.55631 7.05025 3.63712 7.11953 3.7408C7.1888 3.84448 7.22578 3.96638 7.22578 4.09107C7.22535 4.25815 7.15878 4.41826 7.04064 4.5364C6.9225 4.65454 6.76239 4.72111 6.59531 4.72154ZM11.4797 4.72154C11.355 4.72154 11.2331 4.68456 11.1294 4.61529C11.0257 4.54601 10.9449 4.44754 10.8972 4.33234C10.8495 4.21714 10.837 4.09037 10.8613 3.96807C10.8857 3.84577 10.9457 3.73344 11.0339 3.64526C11.1221 3.55709 11.2344 3.49704 11.3567 3.47272C11.479 3.44839 11.6058 3.46088 11.721 3.50859C11.8362 3.55631 11.9346 3.63712 12.0039 3.7408C12.0732 3.84448 12.1102 3.96638 12.1102 4.09107C12.1097 4.25815 12.0432 4.41826 11.925 4.5364C11.8069 4.65454 11.6468 4.72111 11.4797 4.72154ZM16.7156 7.0817C16.0078 7.0817 15.4359 7.66295 15.4359 8.38014V13.452C15.4359 14.1669 16.0102 14.7504 16.7156 14.7504C17.4234 14.7504 17.9953 14.1692 17.9953 13.452V8.37779C17.9977 7.6606 17.4258 7.0817 16.7156 7.0817ZM1.27969 7.0817C0.571875 7.0817 0 7.66295 0 8.38014V13.452C0 14.1669 0.574218 14.7504 1.27969 14.7504C1.9875 14.7504 2.55937 14.1692 2.55937 13.452V8.37779C2.55937 7.6606 1.98516 7.0817 1.27969 7.0817Z" fill="url(#paint0_linear_511_2829)"/>
<defs>
<linearGradient id="paint0_linear_511_2829" x1="0.365854" y1="1.10503" x2="14.8148" y2="15.7684" gradientUnits="userSpaceOnUse">
<stop stop-color="#F1FFFC"/>
<stop offset="0.515625" stop-color="#F1F1FF"/>
<stop offset="1" stop-color="#E6F6FF"/>
</linearGradient>
</defs>
</svg>
