<svg width="18" height="22" viewBox="0 0 18 22" fill="none" xmlns="http://www.w3.org/2000/svg">
<path d="M13.3439 0.0110096C13.2971 -0.0412403 11.6128 0.0316347 10.147 1.62251C8.68127 3.21201 8.90677 5.03526 8.93977 5.08201C8.97277 5.12876 11.0298 5.20163 12.3429 3.35226C13.656 1.50288 13.3906 0.0646346 13.3439 0.0110096ZM17.9006 16.1439C17.8346 16.0119 14.7038 14.4471 14.9953 11.4386C15.2868 8.42876 17.2984 7.60376 17.33 7.51438C17.3616 7.42501 16.5091 6.42813 15.6058 5.92351C14.9425 5.56773 14.2084 5.36389 13.4566 5.32676C13.3081 5.32263 12.7925 5.19613 11.7324 5.48626C11.0339 5.67738 9.45952 6.29613 9.0264 6.32088C8.5919 6.34563 7.2994 5.60313 5.90927 5.40651C5.01965 5.23463 4.0764 5.58663 3.40127 5.85751C2.72752 6.12701 1.44602 6.89426 0.549523 8.93338C-0.346977 10.9711 0.121898 14.1996 0.457398 15.2034C0.792898 16.2058 1.31677 17.8489 2.20777 19.0479C2.99977 20.4009 4.05027 21.34 4.4889 21.659C4.92752 21.978 6.16502 22.1898 7.02302 21.7511C7.71327 21.3276 8.95902 21.0843 9.45127 21.1021C9.94215 21.12 10.9101 21.3139 11.9015 21.8433C12.6866 22.1141 13.4291 22.0014 14.173 21.6989C14.9169 21.395 15.9935 20.2428 17.2503 17.9066C17.7274 16.8204 17.9446 16.2333 17.9006 16.1439Z" fill="url(#paint0_linear_511_2827)"/>
<defs>
<linearGradient id="paint0_linear_511_2827" x1="0.394657" y1="0.63433" x2="15.5215" y2="15.1904" gradientUnits="userSpaceOnUse">
<stop stop-color="#F1FFFC"/>
<stop offset="0.515625" stop-color="#F1F1FF"/>
<stop offset="1" stop-color="#E6F6FF"/>
</linearGradient>
</defs>
</svg>
