<svg width="62" height="62" viewBox="0 0 62 62" fill="none" xmlns="http://www.w3.org/2000/svg">
<path d="M42.9752 10.0499L51.95 19.0248L51.9521 19.0227C53.9348 21.0054 53.9348 24.2199 51.9521 26.2026L51.95 26.2046L28.4615 49.662V17.3735L35.7937 10.0483L35.7954 10.0499C37.7783 8.06888 40.9915 8.06964 42.9735 10.0516L42.9752 10.0499ZM61.4615 43.6923V56.3846C61.4615 59.1885 59.1885 61.4615 56.3846 61.4615H24.6538L47.5 38.6154H56.3846C59.1885 38.6154 61.4615 40.8884 61.4615 43.6923ZM0.538597 50.0965L0.538603 50.0972C0.538502 50.0778 0.538452 50.0582 0.538452 50.0385V5.61538C0.538452 2.81147 2.81147 0.538452 5.61538 0.538452H18.3077C21.1116 0.538452 23.3846 2.81147 23.3846 5.61538V50.0385C23.3846 50.0582 23.3846 50.0778 23.3845 50.0965C23.3532 56.3786 18.2509 61.4615 11.9615 61.4615C5.67212 61.4615 0.569882 56.3786 0.538597 50.0965ZM11.9615 55.1154C14.7654 55.1154 17.0385 52.8424 17.0385 50.0385C17.0385 47.2345 14.7654 44.9615 11.9615 44.9615C9.15762 44.9615 6.88461 47.2345 6.88461 50.0385C6.88461 52.8424 9.15762 55.1154 11.9615 55.1154Z" fill="#986AF7"/>
</svg>
