<svg width="126" height="28" viewBox="0 0 126 28" fill="none" xmlns="http://www.w3.org/2000/svg">
<path d="M7.49087 13.9099C7.46285 14.4174 7.62973 14.9158 7.95484 15.2954C8.27995 15.6751 8.73671 15.905 9.22474 15.9346H9.32531C9.68474 15.9342 10.0362 15.8244 10.3363 15.6187C10.6364 15.4129 10.872 15.1204 11.014 14.777C11.156 14.4337 11.1983 14.0546 11.1355 13.6866C11.0727 13.3186 10.9077 12.9777 10.6608 12.7061C10.4139 12.4345 10.0959 12.244 9.74613 12.1581C9.39632 12.0723 9.02998 12.0948 8.69233 12.2229C8.35469 12.351 8.06051 12.5792 7.84611 12.8792C7.6317 13.1791 7.50646 13.5378 7.48584 13.911L7.49087 13.9099Z" fill="white"/>
<path d="M0.627599 13.4248C0.510263 13.418 0.393614 13.4475 0.292393 13.5095C0.191172 13.5716 0.109922 13.6635 0.0589121 13.7736C0.00790212 13.8837 -0.0105788 14.0071 0.00580503 14.1281C0.0221888 14.2491 0.0727019 14.3623 0.150961 14.4535C0.229219 14.5447 0.331711 14.6097 0.445483 14.6403C0.559256 14.6709 0.679202 14.6657 0.790163 14.6255C0.901125 14.5852 0.998122 14.5117 1.0689 14.4141C1.13967 14.3166 1.18104 14.1994 1.18779 14.0774C1.19241 13.9962 1.18156 13.9149 1.15588 13.8382C1.13019 13.7614 1.09018 13.6907 1.03812 13.63C0.986067 13.5694 0.923003 13.52 0.852552 13.4848C0.782102 13.4496 0.705654 13.4292 0.627599 13.4248Z" fill="white"/>
<path d="M7.37421 2.8022C7.47871 2.74639 7.565 2.65969 7.62222 2.55299C7.67944 2.4463 7.70503 2.32439 7.69576 2.20261C7.68649 2.08083 7.64279 1.96462 7.57015 1.86862C7.49751 1.77261 7.39917 1.70109 7.28753 1.66307C7.17589 1.62505 7.05592 1.62223 6.94274 1.65495C6.82955 1.68767 6.72821 1.75448 6.65146 1.84697C6.57471 1.93946 6.52599 2.05349 6.51143 2.17471C6.49687 2.29593 6.51712 2.41892 6.56963 2.52819C6.60493 2.60134 6.6538 2.66649 6.71343 2.71991C6.77306 2.77332 6.84226 2.81393 6.91705 2.8394C6.99184 2.86487 7.07075 2.8747 7.14921 2.86831C7.22767 2.86193 7.30414 2.83946 7.37421 2.8022Z" fill="white"/>
<path d="M9.24144 6.18871C9.40374 6.10358 9.53812 5.97032 9.6276 5.80578C9.71708 5.64124 9.75763 5.45281 9.74413 5.2643C9.73064 5.0758 9.6637 4.89569 9.55178 4.74674C9.43986 4.59779 9.28798 4.48669 9.11535 4.42749C8.94272 4.36829 8.75708 4.36363 8.58191 4.41412C8.40673 4.46461 8.24989 4.56798 8.1312 4.71115C8.01251 4.85432 7.9373 5.03087 7.91509 5.21847C7.89288 5.40608 7.92466 5.59633 8.00641 5.76516C8.06073 5.87733 8.13576 5.97727 8.22724 6.05927C8.31871 6.14127 8.42483 6.20372 8.53952 6.24305C8.65422 6.28239 8.77524 6.29783 8.89568 6.28851C9.01612 6.27919 9.13361 6.24527 9.24144 6.18871Z" fill="white"/>
<path d="M2.95693 8.51774C3.08212 8.60335 3.22891 8.64842 3.37873 8.64724C3.52856 8.64607 3.67468 8.59871 3.79861 8.51116C3.92254 8.42361 4.01872 8.2998 4.07496 8.15539C4.13121 8.01099 4.145 7.85248 4.11458 7.69992C4.08417 7.54736 4.01093 7.40762 3.90411 7.29836C3.7973 7.1891 3.66173 7.11524 3.51454 7.08613C3.36735 7.05702 3.21516 7.07397 3.07724 7.13482C2.93931 7.19568 2.82184 7.29771 2.7397 7.428C2.62968 7.60251 2.59076 7.81529 2.63149 8.01961C2.67222 8.22393 2.78927 8.40309 2.95693 8.51774Z" fill="white"/>
<path d="M4.07649 13.0762C3.89501 13.0656 3.71457 13.1111 3.55798 13.2071C3.40139 13.303 3.27567 13.4451 3.19671 13.6154C3.11776 13.7856 3.08912 13.9764 3.11441 14.1636C3.1397 14.3508 3.21779 14.5259 3.3388 14.667C3.45981 14.808 3.61831 14.9086 3.79428 14.9559C3.97024 15.0033 4.15576 14.9954 4.32739 14.9332C4.49902 14.8709 4.64905 14.7572 4.75852 14.6063C4.868 14.4554 4.93199 14.2741 4.94242 14.0854C4.95615 13.8322 4.87266 13.5837 4.7103 13.3945C4.54793 13.2053 4.31997 13.0908 4.07649 13.0762Z" fill="white"/>
<path d="M3.05732 19.5026C2.92367 19.5729 2.81304 19.6827 2.73942 19.8183C2.66581 19.954 2.63251 20.1092 2.64373 20.2645C2.65496 20.4198 2.71021 20.5681 2.80249 20.6908C2.89478 20.8134 3.01995 20.9048 3.1622 20.9535C3.30445 21.0022 3.45739 21.0059 3.60168 20.9642C3.74596 20.9225 3.87512 20.8373 3.97283 20.7193C4.07053 20.6013 4.1324 20.4558 4.15061 20.3012C4.16881 20.1466 4.14254 19.9899 4.07511 19.8509C4.03031 19.7585 3.96843 19.6762 3.89302 19.6087C3.81761 19.5412 3.73015 19.4898 3.63562 19.4574C3.5411 19.4251 3.44137 19.4124 3.34214 19.4202C3.24292 19.4279 3.14613 19.456 3.05732 19.5026Z" fill="white"/>
<path d="M6.63098 11.1007C6.80999 11.2227 7.01975 11.2867 7.23376 11.2847C7.44777 11.2828 7.65641 11.2148 7.8333 11.0896C8.0102 10.9643 8.14739 10.7873 8.22755 10.5809C8.3077 10.3746 8.32722 10.1481 8.28362 9.93026C8.24003 9.71238 8.13529 9.51283 7.98264 9.35685C7.82998 9.20086 7.63628 9.09545 7.42602 9.05393C7.21576 9.01242 6.99838 9.03667 6.80137 9.12361C6.60436 9.21056 6.43657 9.3563 6.31921 9.5424C6.24113 9.66596 6.18726 9.80431 6.16067 9.94955C6.13409 10.0948 6.13531 10.244 6.16427 10.3888C6.19323 10.5335 6.24936 10.6709 6.32944 10.7931C6.40953 10.9152 6.512 11.0197 6.63098 11.1007Z" fill="white"/>
<path d="M17.9672 6.11339C18.1196 6.21677 18.2981 6.27084 18.48 6.26877C18.662 6.2667 18.8393 6.20858 18.9895 6.10175C19.1397 5.99493 19.256 5.8442 19.3239 5.66861C19.3917 5.49303 19.4079 5.30047 19.3706 5.11529C19.3332 4.9301 19.2438 4.7606 19.1138 4.62821C18.9838 4.49582 18.819 4.40648 18.6401 4.37149C18.4613 4.33649 18.2765 4.35742 18.1091 4.43162C17.9417 4.50581 17.7992 4.62995 17.6997 4.78834C17.6334 4.89355 17.5877 5.01133 17.5653 5.13493C17.5428 5.25852 17.5441 5.38551 17.5689 5.50861C17.5938 5.6317 17.6418 5.74849 17.7101 5.85227C17.7784 5.95605 17.8658 6.04479 17.9672 6.11339Z" fill="white"/>
<path d="M19.854 2.73751C19.9525 2.80466 20.0679 2.83991 20.1857 2.83881C20.3035 2.83771 20.4183 2.8003 20.5157 2.73132C20.613 2.66234 20.6885 2.56489 20.7325 2.4513C20.7766 2.3377 20.7872 2.21307 20.7632 2.09317C20.7391 1.97327 20.6814 1.86349 20.5973 1.77772C20.5132 1.69195 20.4065 1.63404 20.2908 1.61133C20.175 1.58861 20.0554 1.60211 19.947 1.65011C19.8387 1.69811 19.7464 1.77845 19.682 1.88098C19.5957 2.01831 19.5653 2.18565 19.5975 2.34625C19.6298 2.50685 19.722 2.64757 19.854 2.73751Z" fill="white"/>
<path d="M18.1121 12.0881C17.8708 12.0737 17.629 12.1088 17.4007 12.1916C17.1724 12.2743 16.962 12.403 16.7816 12.5703C16.4171 12.9081 16.1966 13.3826 16.1686 13.8895C16.1406 14.3964 16.3073 14.8941 16.6322 15.2731C16.9571 15.6522 17.4135 15.8814 17.9009 15.9106C17.9361 15.9106 17.9723 15.9106 18.0075 15.9106C18.3626 15.9104 18.7101 15.8034 19.008 15.6025C19.306 15.4016 19.5417 15.1153 19.6867 14.7783C19.8317 14.4412 19.8798 14.0677 19.8253 13.7028C19.7708 13.338 19.6159 12.9973 19.3793 12.7219C19.2192 12.5341 19.0246 12.3813 18.807 12.2725C18.5895 12.1637 18.3532 12.101 18.1121 12.0881Z" fill="white"/>
<path d="M9.84636 10.9678C9.99915 11.2852 10.2341 11.552 10.5248 11.738C10.8155 11.9241 11.1504 12.0221 11.4917 12.0209C11.8064 12.021 12.1159 11.9372 12.3906 11.7775C12.6653 11.6179 12.8961 11.3877 13.0609 11.1089C13.2257 10.8301 13.3191 10.512 13.3321 10.1851C13.345 9.8581 13.2772 9.53312 13.1351 9.24115C12.9812 8.92518 12.7458 8.66 12.4552 8.47529C12.1646 8.29058 11.8303 8.19364 11.4897 8.19533C11.176 8.19589 10.8676 8.27979 10.5938 8.43907C10.32 8.59836 10.0898 8.82774 9.92523 9.10547C9.76061 9.38319 9.66695 9.70005 9.65315 10.026C9.63935 10.3519 9.70585 10.6761 9.84636 10.9678Z" fill="white"/>
<path d="M24.2782 8.51545C24.4119 8.4453 24.5225 8.33552 24.5962 8.19998C24.6699 8.06444 24.7033 7.90923 24.6922 7.75396C24.6811 7.59868 24.626 7.45032 24.5338 7.32762C24.4416 7.20491 24.3165 7.11338 24.1744 7.06458C24.0322 7.01578 23.8792 7.01191 23.7349 7.05345C23.5906 7.09499 23.4614 7.18009 23.3636 7.29798C23.2658 7.41587 23.2038 7.56126 23.1854 7.71579C23.167 7.87032 23.1931 8.02704 23.2604 8.16615C23.3509 8.35273 23.5089 8.49432 23.6998 8.55981C23.8906 8.62531 24.0987 8.60935 24.2782 8.51545Z" fill="white"/>
<path d="M19.6105 9.12502C19.4194 9.22514 19.2611 9.38194 19.1556 9.57562C19.0501 9.76929 19.0023 9.99113 19.0181 10.2131C19.0339 10.435 19.1126 10.6471 19.2443 10.8226C19.3761 10.998 19.5548 11.1289 19.7581 11.1986C19.9613 11.2684 20.1799 11.2739 20.3862 11.2145C20.5924 11.1551 20.7771 11.0334 20.9169 10.8649C21.0566 10.6963 21.1452 10.4884 21.1714 10.2675C21.1975 10.0467 21.1601 9.82265 21.0638 9.62388C21 9.4918 20.9117 9.3741 20.8041 9.27753C20.6965 9.18095 20.5716 9.10739 20.4367 9.06106C20.3017 9.01472 20.1592 8.99652 20.0175 9.0075C19.8757 9.01847 19.7374 9.05841 19.6105 9.12502Z" fill="white"/>
<path d="M13.5985 2.44873C13.7481 2.45758 13.8968 2.42012 14.0259 2.34106C14.155 2.26201 14.2586 2.14492 14.3237 2.0046C14.3888 1.86429 14.4124 1.70706 14.3915 1.5528C14.3706 1.39854 14.3063 1.25418 14.2065 1.13798C14.1067 1.02179 13.976 0.938973 13.831 0.900019C13.6859 0.861065 13.533 0.867719 13.3916 0.919141C13.2502 0.970563 13.1266 1.06444 13.0365 1.1889C12.9464 1.31336 12.8939 1.46281 12.8855 1.61835C12.8742 1.82677 12.943 2.03131 13.0767 2.18702C13.2104 2.34272 13.3981 2.43686 13.5985 2.44873Z" fill="white"/>
<path d="M13.5904 7.40459C13.804 7.41705 14.0164 7.36337 14.2007 7.25034C14.385 7.13731 14.5329 6.97 14.6258 6.76956C14.7187 6.56912 14.7524 6.34454 14.7226 6.12422C14.6927 5.90389 14.6008 5.6977 14.4583 5.53171C14.3158 5.36572 14.1292 5.24738 13.922 5.19164C13.7149 5.1359 13.4965 5.14527 13.2945 5.21857C13.0925 5.29186 12.9159 5.42579 12.787 5.60342C12.6582 5.78105 12.5828 5.99442 12.5706 6.21655C12.5544 6.5147 12.6527 6.80734 12.8439 7.03012C13.0352 7.25291 13.3037 7.3876 13.5904 7.40459Z" fill="white"/>
<path d="M7.72705 18.8918C7.91819 18.7916 8.07645 18.6347 8.18182 18.441C8.2872 18.2472 8.33495 18.0254 8.31905 17.8034C8.30314 17.5814 8.22429 17.3694 8.09246 17.194C7.96064 17.0186 7.78176 16.8879 7.57846 16.8182C7.37515 16.7486 7.15655 16.7432 6.95031 16.8028C6.74406 16.8623 6.55944 16.9841 6.41978 17.1528C6.28012 17.3215 6.19171 17.5295 6.16572 17.7504C6.13973 17.9713 6.17734 18.1953 6.27378 18.394C6.40306 18.6604 6.62877 18.8625 6.9013 18.9558C7.17382 19.0492 7.47084 19.0262 7.72705 18.8918Z" fill="white"/>
<path d="M14.2893 9.04653C14.0649 9.4027 13.9611 9.82653 13.9944 10.251C14.0276 10.6754 14.1961 11.0761 14.473 11.3898C14.75 11.7035 15.1196 11.9122 15.5234 11.9828C15.9272 12.0535 16.3422 11.982 16.7026 11.7799C17.063 11.5777 17.3483 11.2563 17.5133 10.8666C17.6782 10.4768 17.7135 10.041 17.6135 9.62808C17.5135 9.21515 17.2839 8.84869 16.9611 8.58671C16.6383 8.32473 16.2406 8.18219 15.8311 8.18164C15.5253 8.18142 15.2242 8.26037 14.9551 8.41136C14.6859 8.56235 14.4571 8.78064 14.2893 9.04653Z" fill="white"/>
<path d="M17.4897 17.0501C17.3422 16.7461 17.1194 16.4884 16.8443 16.3038C16.5691 16.1192 16.2515 16.0142 15.9243 15.9998C15.5972 15.9853 15.2722 16.0619 14.983 16.2217C14.6938 16.3814 14.4508 16.6185 14.2791 16.9085C14.1074 17.1985 14.0132 17.5309 14.0063 17.8713C13.9993 18.2118 14.0799 18.548 14.2396 18.8453C14.3993 19.1426 14.6324 19.3902 14.9149 19.5625C15.1973 19.7349 15.5188 19.8257 15.8463 19.8257C16.1344 19.8237 16.4181 19.7521 16.675 19.6166C17.1096 19.3878 17.4394 18.9893 17.5921 18.5083C17.7447 18.0273 17.7079 17.503 17.4897 17.0501Z" fill="white"/>
<path d="M20.7058 16.9165C20.5269 16.7944 20.3172 16.7302 20.1031 16.732C19.8891 16.7338 19.6804 16.8015 19.5034 16.9267C19.3264 17.0518 19.1891 17.2288 19.1088 17.4351C19.0285 17.6414 19.0089 17.8678 19.0523 18.0857C19.0958 18.3037 19.2004 18.5033 19.353 18.6594C19.5056 18.8155 19.6992 18.921 19.9095 18.9627C20.1197 19.0043 20.3371 18.9802 20.5342 18.8933C20.7313 18.8065 20.8991 18.6608 21.0166 18.4748C21.1736 18.2251 21.229 17.921 21.1707 17.6289C21.1125 17.3368 20.9453 17.0807 20.7058 16.9165Z" fill="white"/>
<path d="M24.2301 14.0415C24.2403 13.8528 24.1965 13.6651 24.1042 13.5023C24.0119 13.3395 23.8753 13.2087 23.7116 13.1266C23.5479 13.0445 23.3644 13.0147 23.1844 13.041C23.0044 13.0673 22.8359 13.1485 22.7003 13.2744C22.5647 13.4002 22.468 13.565 22.4224 13.748C22.3769 13.931 22.3845 14.1239 22.4443 14.3024C22.5042 14.4808 22.6136 14.6369 22.7587 14.7507C22.9038 14.8645 23.0781 14.9311 23.2595 14.9419C23.503 14.9562 23.742 14.8694 23.924 14.7005C24.106 14.5317 24.2161 14.2947 24.2301 14.0415Z" fill="white"/>
<path d="M26.7766 13.3609C26.659 13.3538 26.5421 13.3832 26.4406 13.4453C26.3391 13.5074 26.2575 13.5993 26.2063 13.7096C26.1551 13.8198 26.1364 13.9434 26.1527 14.0647C26.169 14.186 26.2195 14.2995 26.2979 14.3909C26.3762 14.4823 26.4789 14.5475 26.5929 14.5783C26.7069 14.609 26.827 14.6039 26.9383 14.5636C27.0495 14.5234 27.1467 14.4497 27.2176 14.3519C27.2885 14.2542 27.33 14.1368 27.3368 14.0145C27.3456 13.8507 27.2915 13.6899 27.1865 13.5674C27.0815 13.4448 26.9341 13.3706 26.7766 13.3609Z" fill="white"/>
<path d="M24.3788 19.4998C24.2535 19.4145 24.1067 19.3697 23.957 19.3711C23.8072 19.3725 23.6612 19.4201 23.5375 19.5078C23.4137 19.5954 23.3177 19.7193 23.2616 19.8637C23.2056 20.0081 23.1919 20.1665 23.2224 20.319C23.2529 20.4715 23.3262 20.6111 23.433 20.7203C23.5398 20.8294 23.6754 20.9032 23.8225 20.9323C23.9696 20.9613 24.1217 20.9444 24.2596 20.8836C24.3975 20.8228 24.5149 20.7208 24.597 20.5906C24.6516 20.5041 24.6893 20.4072 24.7079 20.3056C24.7264 20.2039 24.7256 20.0995 24.7053 19.9982C24.685 19.8969 24.6458 19.8007 24.5897 19.7152C24.5337 19.6297 24.462 19.5565 24.3788 19.4998Z" fill="white"/>
<path d="M7.48258 25.2797C7.38414 25.2125 7.26875 25.1772 7.15101 25.1782C7.03327 25.1793 6.91847 25.2165 6.82111 25.2854C6.72375 25.3543 6.6482 25.4516 6.60403 25.5651C6.55986 25.6786 6.54904 25.8031 6.57294 25.923C6.59685 26.0429 6.6544 26.1527 6.73832 26.2386C6.82224 26.3245 6.92876 26.3826 7.04442 26.4055C7.16008 26.4284 7.27968 26.4152 7.38811 26.3675C7.49653 26.3197 7.5889 26.2396 7.65355 26.1373C7.6965 26.0693 7.72614 25.9932 7.74079 25.9133C7.75544 25.8334 7.75481 25.7513 7.73893 25.6717C7.72305 25.592 7.69224 25.5164 7.64825 25.4492C7.60427 25.3819 7.54797 25.3243 7.48258 25.2797Z" fill="white"/>
<path d="M19.9617 25.2151C19.8565 25.2702 19.7694 25.3565 19.7115 25.4631C19.6535 25.5697 19.6272 25.6917 19.6359 25.8139C19.6447 25.936 19.688 26.0527 19.7605 26.1492C19.8331 26.2456 19.9315 26.3176 20.0433 26.3559C20.1552 26.3943 20.2754 26.3972 20.3889 26.3645C20.5024 26.3317 20.604 26.2647 20.6808 26.1719C20.7577 26.0791 20.8063 25.9647 20.8206 25.8432C20.835 25.7216 20.8143 25.5984 20.7612 25.4891C20.7261 25.4164 20.6776 25.3516 20.6184 25.2985C20.5591 25.2454 20.4904 25.2049 20.4162 25.1795C20.3419 25.154 20.2635 25.1441 20.1855 25.1502C20.1075 25.1563 20.0315 25.1783 19.9617 25.2151Z" fill="white"/>
<path d="M13.0464 18.9672C13.2709 18.611 13.3747 18.1871 13.3414 17.7626C13.3081 17.3382 13.1396 16.9374 12.8626 16.6237C12.5856 16.3101 12.2158 16.1014 11.812 16.0309C11.4081 15.9603 10.9931 16.0318 10.6327 16.2341C10.2723 16.4364 9.98712 16.7579 9.82224 17.1478C9.65737 17.5376 9.62224 17.9735 9.72242 18.3864C9.8226 18.7993 10.0524 19.1657 10.3754 19.4276C10.6983 19.6894 11.0961 19.8318 11.5056 19.8321C11.8115 19.8332 12.1127 19.7546 12.3818 19.6035C12.651 19.4524 12.8795 19.2337 13.0464 18.9672Z" fill="white"/>
<path d="M9.36827 21.905C9.21616 21.8015 9.03796 21.7473 8.8562 21.7491C8.67444 21.7509 8.49728 21.8087 8.34711 21.9152C8.19694 22.0217 8.0805 22.1721 8.01252 22.3474C7.94453 22.5227 7.92805 22.715 7.96516 22.9C8.00226 23.0851 8.09129 23.2545 8.22099 23.3869C8.35068 23.5194 8.51522 23.6088 8.69381 23.644C8.8724 23.6793 9.05701 23.6586 9.22432 23.5847C9.39163 23.5109 9.53412 23.3871 9.63378 23.229C9.76727 23.0168 9.81429 22.7581 9.7645 22.5099C9.71472 22.2616 9.57221 22.044 9.36827 21.905Z" fill="white"/>
<path d="M13.6597 25.5687C13.5102 25.5598 13.3615 25.5973 13.2324 25.6763C13.1034 25.7553 12.9998 25.8723 12.9347 26.0126C12.8696 26.1528 12.8459 26.31 12.8667 26.4642C12.8875 26.6185 12.9518 26.7628 13.0515 26.879C13.1512 26.9953 13.2818 27.0781 13.4267 27.1172C13.5717 27.1563 13.7246 27.1498 13.866 27.0985C14.0074 27.0472 14.131 26.9535 14.2212 26.8292C14.3114 26.7049 14.3642 26.5556 14.3728 26.4001C14.3785 26.2968 14.3645 26.1933 14.3318 26.0957C14.299 25.998 14.2481 25.9079 14.1819 25.8307C14.1157 25.7535 14.0355 25.6906 13.9459 25.6457C13.8563 25.6007 13.759 25.5745 13.6597 25.5687Z" fill="white"/>
<path d="M13.6678 20.6134C13.454 20.5999 13.2411 20.6527 13.0562 20.7651C12.8712 20.8774 12.7225 21.0444 12.6289 21.2447C12.5352 21.4451 12.5009 21.6698 12.5302 21.8905C12.5595 22.1111 12.6511 22.3178 12.7934 22.4843C12.9357 22.6508 13.1224 22.7696 13.3297 22.8257C13.537 22.8818 13.7557 22.8726 13.958 22.7994C14.1603 22.7261 14.3371 22.5921 14.4661 22.4143C14.5951 22.2364 14.6705 22.0228 14.6826 21.8004C14.6991 21.5031 14.6015 21.2112 14.4113 20.9887C14.221 20.7662 13.9537 20.6312 13.6678 20.6134Z" fill="white"/>
<path d="M18.0942 21.8289C17.9318 21.9146 17.7975 22.0484 17.7083 22.2135C17.6191 22.3786 17.579 22.5675 17.5931 22.7563C17.6072 22.9451 17.6748 23.1253 17.7874 23.2741C17.9001 23.4229 18.0526 23.5336 18.2258 23.5922C18.3989 23.6508 18.5849 23.6547 18.7602 23.6033C18.9355 23.5519 19.0921 23.4477 19.2104 23.3037C19.3286 23.1596 19.4031 22.9824 19.4245 22.7943C19.4458 22.6063 19.413 22.4159 19.3302 22.2472C19.2756 22.1353 19.2002 22.0356 19.1085 21.954C19.0168 21.8724 18.9104 21.8103 18.7956 21.7715C18.6808 21.7326 18.5598 21.7177 18.4394 21.7276C18.319 21.7374 18.2017 21.7718 18.0942 21.8289Z" fill="white"/>
<path d="M38.4036 9.48683C40.1857 9.48683 41.4338 10.5055 41.4338 12.3963H43.7681C43.7681 9.07896 41.4157 7.48096 38.3684 7.48096C34.6251 7.48096 32.4507 9.59455 32.4507 14.0612C32.4507 18.6388 34.6251 20.6405 38.3684 20.6405C41.4519 20.6405 43.7681 19.0843 43.7681 15.7659H41.5223C41.5223 17.6191 40.2923 18.6388 38.4046 18.6388C35.9265 18.6388 34.784 17.2112 34.784 14.2463V13.8761C34.786 10.9688 35.9436 9.48683 38.4036 9.48683Z" fill="white"/>
<path d="M49.9402 7.70703L45.1812 20.4221H47.5346L48.5141 17.6601H54.107L55.1127 20.4221H57.5727L52.8106 7.70703H49.9402ZM49.2272 15.6552L50.4753 12.1695C50.7247 11.4845 51.1703 10.0016 51.2598 9.74219H51.3483C51.4378 10.0016 51.8833 11.5023 52.1327 12.1695L53.3798 15.6542L49.2272 15.6552Z" fill="white"/>
<path d="M70.2995 11.5619C70.2995 9.20882 68.9981 7.70703 66.3067 7.70703H59.854V20.4221H62.136V15.5067H65.9316L68.2448 20.4221H70.74L68.1251 15.1397C69.5683 14.5467 70.2995 13.2865 70.2995 11.5619ZM66.1277 13.5082H62.136V9.72755H66.1277C67.3577 9.72755 67.9994 10.4136 67.9994 11.5619C67.9994 12.7677 67.3044 13.5082 66.1277 13.5082Z" fill="white"/>
<path d="M78.3028 7.70703H73.417V20.4221H78.3008C81.9898 20.4221 84.2346 18.4204 84.2346 14.0646C84.2346 9.70872 81.9918 7.70703 78.3028 7.70703ZM81.9033 14.2497C81.8852 17.0305 80.62 18.4016 78.3028 18.4016H75.701V9.72755H78.3028C80.616 9.72755 81.9033 11.0997 81.9033 13.8794V14.2497Z" fill="white"/>
<path d="M90.2128 7.70703L85.4517 20.4221H87.8041L88.7846 17.6601H94.3815L95.3792 20.4221H97.8392L93.0801 7.70703H90.2128ZM89.4997 15.6552L90.7458 12.1695C90.9952 11.4845 91.4408 10.0016 91.5303 9.74219H91.6208C91.7093 10.0016 92.1558 11.5023 92.4053 12.1695L93.6524 15.6542L89.4997 15.6552Z" fill="white"/>
<path d="M108.269 15.2693C108.269 15.5099 108.305 16.1583 108.305 16.2702L108.216 16.3068C108.163 16.2336 107.806 15.5841 107.613 15.2882L102.301 7.70703H100.124V20.4221H102.317V12.8043C102.317 12.4906 102.28 11.8777 102.28 11.7847L102.37 11.7292C102.423 11.8035 102.691 12.341 102.973 12.7677L108.321 20.4221H110.459V7.70703H108.267V15.2693H108.269Z" fill="white"/>
<path d="M119.547 7.48486C115.716 7.48486 113.398 9.59741 113.398 14.0641C113.398 18.5308 115.712 20.6433 119.547 20.6433C123.383 20.6433 125.715 18.5308 125.715 14.0641C125.715 9.59741 123.379 7.48486 119.547 7.48486ZM123.379 14.268C123.379 17.1775 122.043 18.6416 119.547 18.6416C117.07 18.6416 115.734 17.1775 115.734 14.268V13.879C115.734 10.9685 117.088 9.48656 119.547 9.48656C122.026 9.48656 123.379 10.9685 123.379 13.879V14.268Z" fill="white"/>
</svg>
