<svg width="20" height="20" viewBox="0 0 20 20" fill="none" xmlns="http://www.w3.org/2000/svg">
<path d="M6.62959 9.99991C6.62959 11.8628 8.13676 13.37 9.99967 13.37C11.8626 13.37 13.3698 11.8628 13.3698 9.99991C13.3698 8.13699 11.8626 6.62983 9.99967 6.62983C8.13676 6.62983 6.62959 8.13459 6.62959 9.99991ZM19.3263 6.40388L13.6943 6.69473C15.2231 8.48073 15.2471 11.0576 13.9611 13.0335L9.442 19.9852C11.3169 20.0861 13.2496 19.6751 14.9995 18.6583C19.3263 16.1584 21.081 10.9157 19.3263 6.40388ZM5.39165 11.9205L1.62976 4.52173C0.564275 6.14995 -0.00219141 8.05405 6.37101e-06 9.99991C6.37101e-06 14.9997 3.66094 19.1414 8.44684 19.8746L11.0165 14.8411C8.69443 15.2786 6.45171 14.0046 5.39165 11.9205ZM10.6439 5.05777L18.9225 5.49285C18.0763 3.81502 16.7446 2.35593 14.9947 1.33914C13.4106 0.423305 11.6703 -0.0117766 9.96362 0.000242234C7.019 0.0122611 4.1417 1.32712 2.22109 3.71406L5.30272 8.44708C6.07192 6.23802 8.30262 4.92075 10.6439 5.05777Z" fill="url(#paint0_linear_511_2804)"/>
<defs>
<linearGradient id="paint0_linear_511_2804" x1="0.406605" y1="0.576661" x2="13.9738" y2="16.6446" gradientUnits="userSpaceOnUse">
<stop stop-color="#F1FFFC"/>
<stop offset="0.515625" stop-color="#F1F1FF"/>
<stop offset="1" stop-color="#E6F6FF"/>
</linearGradient>
</defs>
</svg>
