<svg width="514" height="375" viewBox="0 0 514 375" fill="none" xmlns="http://www.w3.org/2000/svg">
<g clip-path="url(#clip0_225_244)">
<path d="M66 154.5V288H471.5V156L300.743 14.335C282.312 -0.956071 255.626 -1.03099 237.11 14.1564L66 154.5Z" fill="#FDC97B"/>
<g filter="url(#filter0_d_225_244)">
<rect x="111" y="51.5" width="316" height="237" rx="10" fill="url(#paint0_linear_225_244)"/>
</g>
<path d="M66 155.662V287.662L211 218.5C153.8 148.5 90 147.828 66 155.662Z" fill="#986AF6"/>
<path d="M472 155.662V287.662L327 218.5C384.2 148.5 448 147.828 472 155.662Z" fill="#986AF6"/>
<g filter="url(#filter1_d_225_244)">
<path d="M211 219L66 297V258.285L211 219Z" fill="#220780"/>
</g>
<g filter="url(#filter2_d_225_244)">
<path d="M327 219L472 297V258.285L327 219Z" fill="#220780"/>
</g>
<path d="M248.514 200.664L66 287V345C66 361.569 79.4315 375 96 375H442C458.569 375 472 361.569 472 345V287L291.447 200.746C277.877 194.263 262.109 194.233 248.514 200.664Z" fill="#986AF6"/>
<circle cx="472" cy="162" r="41" stroke="url(#paint1_linear_225_244)" stroke-width="2"/>
<circle cx="472" cy="162" r="36" fill="url(#paint2_linear_225_244)"/>
<path d="M481.5 155.667C481.5 153.147 480.499 150.731 478.718 148.949C476.936 147.167 474.52 146.167 472 146.167C469.48 146.167 467.064 147.167 465.282 148.949C463.501 150.731 462.5 153.147 462.5 155.667C462.5 166.75 457.75 169.917 457.75 169.917H486.25C486.25 169.917 481.5 166.75 481.5 155.667Z" fill="url(#paint3_linear_225_244)" stroke="url(#paint4_linear_225_244)" stroke-width="2" stroke-linecap="round" stroke-linejoin="round"/>
<path d="M474.739 176.25C474.461 176.73 474.061 177.128 473.581 177.405C473.1 177.682 472.555 177.828 472 177.828C471.445 177.828 470.9 177.682 470.42 177.405C469.939 177.128 469.539 176.73 469.261 176.25" stroke="url(#paint5_linear_225_244)" stroke-width="2" stroke-linecap="round" stroke-linejoin="round"/>
<path d="M487.841 206C496.139 226.89 493.159 268.896 414.855 269.799M414.855 269.799C390.526 279.397 397.429 319.254 427.302 309.885C447.104 303.675 438.052 270.015 414.855 269.799ZM414.855 269.799C394.675 269.611 352.053 280.188 343 324" stroke="url(#paint6_linear_225_244)" stroke-width="2" stroke-dasharray="9 9"/>
<path d="M165 324C125.749 309.642 52.4624 255.688 101.554 228.091C132.202 210.861 158.549 272.887 113.383 288.393C81.0967 299.477 -46.8487 273.461 24.126 96" stroke="url(#paint7_linear_225_244)" stroke-width="2" stroke-dasharray="9 9"/>
<path d="M2.93648 26.1199L193.922 1.68404L71.2355 131.92L2.93648 26.1199Z" fill="#C6F8FA" stroke="#021C44" stroke-width="0.00053244"/>
<path fill-rule="evenodd" clip-rule="evenodd" d="M28.6729 90.3191L57.7315 78.6202L53.7847 63.0342L32.8471 72.2011L28.6729 90.3191Z" fill="#674FFF" stroke="#021C44" stroke-width="0.000282222"/>
<path d="M2.70508 26.2656L50.8204 51.3244L71.2287 131.919L2.70508 26.2656Z" fill="#CCCCCC" stroke="#021C44" stroke-width="0.000205147"/>
<path d="M193.914 1.6818L22.18 55.8509L28.6733 90.319L32.8476 72.2005L193.915 1.68189L193.914 1.6818Z" fill="#674FFF" stroke="#021C44" stroke-width="0.000226653"/>
<path d="M2.93648 26.1199L193.922 1.68404L71.2355 131.92L2.93648 26.1199Z" fill="#C6F8FA" stroke="#021C44" stroke-width="0.00053244"/>
<path fill-rule="evenodd" clip-rule="evenodd" d="M28.6729 90.3191L57.7315 78.6202L53.7847 63.0342L32.8471 72.2011L28.6729 90.3191Z" fill="#674FFF" stroke="#021C44" stroke-width="0.000282222"/>
<path d="M2.70508 26.2656L50.8204 51.3244L71.2287 131.919L2.70508 26.2656Z" fill="#CCCCCC" stroke="#021C44" stroke-width="0.000205147"/>
<path d="M193.914 1.6818L22.18 55.8509L28.6733 90.319L32.8476 72.2005L193.915 1.68189L193.914 1.6818Z" fill="#674FFF" stroke="#021C44" stroke-width="0.000226653"/>
<path d="M2.93648 26.1199L193.922 1.68404L71.2355 131.92L2.93648 26.1199Z" fill="#C6F8FA" stroke="#021C44" stroke-width="0.00053244"/>
<path fill-rule="evenodd" clip-rule="evenodd" d="M28.6729 90.3191L57.7315 78.6202L53.7847 63.0342L32.8471 72.2011L28.6729 90.3191Z" fill="#674FFF" stroke="#021C44" stroke-width="0.000282222"/>
<path d="M2.70508 26.2656L50.8204 51.3244L71.2287 131.919L2.70508 26.2656Z" fill="#CCCCCC" stroke="#021C44" stroke-width="0.000205147"/>
<path d="M193.914 1.6818L22.18 55.8509L28.6733 90.319L32.8476 72.2005L193.915 1.68189L193.914 1.6818Z" fill="#674FFF" stroke="#021C44" stroke-width="0.000226653"/>
<path d="M2.93648 26.1199L193.922 1.68404L71.2355 131.92L2.93648 26.1199Z" fill="#C6F8FA" stroke="#021C44" stroke-width="0.00053244"/>
<path fill-rule="evenodd" clip-rule="evenodd" d="M28.6729 90.3191L57.7315 78.6202L53.7847 63.0342L32.8471 72.2011L28.6729 90.3191Z" fill="#674FFF" stroke="#021C44" stroke-width="0.000282222"/>
<path d="M2.70508 26.2656L50.8204 51.3244L71.2287 131.919L2.70508 26.2656Z" fill="#CCCCCC" stroke="#021C44" stroke-width="0.000205147"/>
<path d="M193.914 1.6818L22.18 55.8509L28.6733 90.319L32.8476 72.2005L193.915 1.68189L193.914 1.6818Z" fill="#674FFF" stroke="#021C44" stroke-width="0.000226653"/>
<path d="M2.93648 26.1199L193.922 1.68404L71.2355 131.92L2.93648 26.1199Z" fill="#C6F8FA" stroke="#021C44" stroke-width="0.00053244"/>
<path fill-rule="evenodd" clip-rule="evenodd" d="M28.6729 90.3191L57.7315 78.6202L53.7847 63.0342L32.8471 72.2011L28.6729 90.3191Z" fill="#674FFF" stroke="#021C44" stroke-width="0.000282222"/>
<path d="M2.70508 26.2656L50.8204 51.3244L71.2287 131.919L2.70508 26.2656Z" fill="#CCCCCC" stroke="#021C44" stroke-width="0.000205147"/>
<path d="M193.914 1.6818L22.18 55.8509L28.6733 90.319L32.8476 72.2005L193.915 1.68189L193.914 1.6818Z" fill="#674FFF" stroke="#021C44" stroke-width="0.000226653"/>
<path d="M2.93648 26.1199L193.922 1.68404L71.2355 131.92L2.93648 26.1199Z" fill="url(#paint8_linear_225_244)" stroke="#021C44" stroke-width="0.00053244"/>
<path fill-rule="evenodd" clip-rule="evenodd" d="M28.6729 90.3191L57.7315 78.6202L53.7847 63.0342L32.8471 72.2011L28.6729 90.3191Z" fill="#19345F" stroke="#021C44" stroke-width="0.000282222"/>
<path d="M2.70508 26.2656L50.8204 51.3244L71.2287 131.919L2.70508 26.2656Z" fill="#764EFE" stroke="#021C44" stroke-width="0.000205147"/>
<path d="M193.914 1.6818L22.18 55.8509L28.6733 90.319L32.8476 72.2005L193.915 1.68189L193.914 1.6818Z" fill="#021C44" stroke="#021C44" stroke-width="0.000226653"/>
<path fill-rule="evenodd" clip-rule="evenodd" d="M284.486 125.178C284.97 125.175 285.441 125.157 285.901 125.124C286.786 125.06 287.626 124.939 288.419 124.761C288.539 124.735 288.658 124.706 288.776 124.677C288.893 124.648 289.008 124.617 289.123 124.586C289.554 124.467 289.971 124.329 290.373 124.174L291.605 118.471C290.601 118.775 289.658 118.927 288.776 118.927C288.625 118.927 288.481 118.924 288.344 118.917C287.787 118.887 287.338 118.8 286.996 118.653C286.971 118.64 286.946 118.625 286.921 118.609C286.855 118.566 286.794 118.516 286.74 118.46C286.516 118.226 286.403 117.88 286.403 117.422C286.403 117.397 286.404 117.373 286.404 117.348C286.412 117.088 286.457 116.778 286.54 116.418L288.046 109.437H292.7L294.342 103.095H289.369L290.738 96.6156L281.749 98.6688L280.791 103.095L279.468 109.437L277.825 117.057C277.644 117.872 277.553 118.628 277.552 119.323C277.552 119.328 277.552 119.333 277.552 119.338C277.552 120.806 277.926 122.019 278.674 122.975C278.856 123.207 279.06 123.425 279.286 123.627C279.297 123.637 279.308 123.647 279.32 123.657C279.587 123.891 279.881 124.099 280.204 124.279C281.063 124.759 282.12 125.047 283.375 125.142C283.688 125.166 284.013 125.178 284.35 125.178C284.396 125.178 284.441 125.178 284.486 125.178ZM283.229 131.658C281.979 131.125 280.485 130.802 278.748 130.688C278.676 130.683 278.603 130.679 278.529 130.675C278.124 130.652 277.705 130.641 277.273 130.641C276.822 130.641 276.381 130.651 275.95 130.672C274.005 130.764 272.275 131.065 270.759 131.573C269.366 132.041 268.154 132.685 267.123 133.505C267.1 133.524 267.076 133.542 267.053 133.561C266.048 134.363 265.184 135.315 264.461 136.42C264.159 136.882 263.881 137.37 263.628 137.885C263.6 137.943 263.571 138.002 263.543 138.061C263.304 138.564 263.088 139.092 262.895 139.645C262.889 139.662 262.883 139.679 262.878 139.696C262.636 140.395 262.431 141.133 262.262 141.911C262.14 142.428 262.049 142.93 261.988 143.417C261.958 143.904 261.943 144.375 261.943 144.831C261.943 147.569 262.87 149.652 264.725 151.082L264.726 151.082C266.291 152.263 268.376 152.945 270.98 153.13C271.463 153.164 271.964 153.181 272.483 153.181C272.934 153.181 273.375 153.171 273.806 153.15C275.819 153.054 277.615 152.733 279.194 152.187C280.536 151.723 281.721 151.096 282.749 150.307C283.434 149.78 284.054 149.187 284.608 148.527C286.072 146.786 287.079 144.581 287.631 141.911C287.752 141.394 287.828 140.907 287.859 140.451C287.92 139.964 287.95 139.493 287.95 139.037C287.95 136.421 287.053 134.367 285.258 132.877C284.804 132.5 284.295 132.171 283.731 131.889C283.568 131.808 283.401 131.731 283.229 131.658ZM277.681 137.158C277.555 137.108 277.419 137.066 277.273 137.03C276.897 136.938 276.456 136.892 275.95 136.892C274.919 136.892 274.053 137.125 273.35 137.591C273.119 137.744 272.906 137.921 272.711 138.124C271.95 138.915 271.387 140.177 271.022 141.911C270.84 142.824 270.749 143.599 270.749 144.238C270.749 145.181 270.977 145.866 271.433 146.291C271.606 146.442 271.817 146.567 272.066 146.664C272.194 146.714 272.333 146.758 272.483 146.794C272.859 146.885 273.3 146.93 273.806 146.93C274.907 146.93 275.82 146.685 276.545 146.195C276.741 146.062 276.923 145.912 277.091 145.744C277.912 144.953 278.505 143.675 278.87 141.911C279.053 141.09 279.144 140.36 279.144 139.721C279.144 138.748 278.886 138.033 278.368 137.577C278.185 137.404 277.956 137.265 277.681 137.158ZM274.623 142.874C275.037 143.133 275.4 143.265 275.626 143.329C275.775 143.371 275.886 143.391 275.95 143.399C275.959 143.4 275.966 143.401 275.973 143.402C276.035 143.396 276.199 143.374 276.428 143.287C276.545 143.242 276.662 143.187 276.777 143.123L274.782 142.703L274.623 142.874ZM274.606 142.666L274.496 142.791C274.402 142.728 274.307 142.659 274.21 142.582L274.606 142.666ZM274.814 142.669L276.854 143.078C276.886 143.058 276.917 143.038 276.948 143.018C276.751 142.579 276.436 142.074 275.95 141.601C275.926 141.578 275.901 141.554 275.876 141.531L274.814 142.669ZM274.634 142.633L274.155 142.538C274.124 142.512 274.092 142.486 274.061 142.459C274.036 142.437 274.011 142.415 273.986 142.392C273.962 142.37 273.938 142.348 273.915 142.326C273.878 142.29 273.841 142.254 273.806 142.218C273.331 141.734 273.049 141.236 272.88 140.812C272.936 140.774 272.991 140.739 273.047 140.706C273.085 140.684 273.124 140.663 273.162 140.643C273.265 140.589 273.367 140.544 273.465 140.509C273.622 140.452 273.737 140.43 273.794 140.422C273.798 140.423 273.802 140.423 273.806 140.424C273.864 140.432 273.959 140.449 274.084 140.483C274.313 140.544 274.715 140.683 275.177 140.98C275.216 141.006 275.256 141.032 275.296 141.059C275.334 141.086 275.373 141.114 275.413 141.143C275.445 141.166 275.477 141.191 275.509 141.216C275.579 141.27 275.65 141.329 275.721 141.391L274.634 142.633ZM273.74 140.417C273.74 140.417 273.743 140.417 273.75 140.417C273.743 140.417 273.74 140.417 273.74 140.417ZM276.012 143.406C276.012 143.406 276.008 143.405 276 143.405C276.008 143.405 276.012 143.406 276.012 143.406ZM291.35 152.725H299.381L304.719 142.915L305.951 152.725H313.388L323.654 131.098H315.35L310.605 141.82L309.875 131.098H303.579L302.94 134.2L298.788 141.82L298.514 131.098H290.21L291.35 152.725ZM297.694 124.586C297.87 124.647 298.051 124.704 298.236 124.756C298.327 124.781 298.42 124.806 298.514 124.829C299.448 125.062 300.489 125.178 301.636 125.178C301.847 125.178 302.053 125.174 302.257 125.166C302.296 125.165 302.335 125.163 302.373 125.161C302.789 125.142 303.191 125.106 303.579 125.054C303.749 125.03 303.918 125.004 304.083 124.974C304.352 124.926 304.613 124.87 304.867 124.805C305.056 124.756 305.242 124.703 305.423 124.645C305.439 124.64 305.454 124.636 305.469 124.631C305.511 124.616 305.553 124.601 305.595 124.586C306.376 124.303 307.128 123.954 307.85 123.538C308.126 123.379 308.396 123.211 308.663 123.034L308.754 124.722H316.191L320.754 103.095H312.176L311.948 104.144C311.461 103.718 310.792 103.368 309.941 103.095C309.309 102.869 308.594 102.727 307.796 102.669C307.517 102.649 307.228 102.638 306.929 102.638C306.478 102.638 306.034 102.661 305.597 102.708C305.071 102.763 304.556 102.852 304.049 102.974C303.041 103.217 302.069 103.592 301.135 104.098C301.006 104.168 300.879 104.24 300.753 104.314C300.584 104.414 300.417 104.517 300.252 104.625C298.831 105.554 297.589 106.778 296.526 108.296C296.114 108.875 295.74 109.489 295.404 110.137C295.328 110.284 295.254 110.433 295.181 110.583C294.584 111.828 294.119 113.195 293.789 114.684C293.701 115.121 293.629 115.543 293.573 115.949C293.551 116.107 293.532 116.264 293.515 116.418C293.454 116.965 293.424 117.498 293.424 118.015C293.424 118.309 293.434 118.595 293.454 118.87C293.606 120.931 294.326 122.471 295.614 123.49C296.036 123.809 296.5 124.083 297.005 124.311C297.227 124.411 297.457 124.503 297.694 124.586ZM303.557 118.736C304.029 118.894 304.651 118.973 305.423 118.973C305.597 118.973 305.77 118.966 305.941 118.951C306.431 118.91 306.912 118.811 307.385 118.653C308.024 118.41 308.587 118.076 309.074 117.65L310.716 109.984C310.099 109.283 309.224 108.905 308.09 108.851C308.024 108.847 307.956 108.845 307.887 108.844C307.87 108.844 307.853 108.844 307.836 108.844C307.823 108.844 307.809 108.844 307.796 108.844C307.496 108.844 307.207 108.869 306.929 108.92C306.742 108.954 306.561 108.999 306.385 109.056C306.232 109.106 306.083 109.163 305.939 109.23C305.074 109.628 304.349 110.332 303.765 111.344C303.251 112.234 302.846 113.363 302.549 114.73C302.366 115.49 302.275 116.144 302.275 116.692C302.275 117.543 302.519 118.136 303.005 118.471C303.036 118.492 303.068 118.512 303.101 118.532C303.184 118.582 303.275 118.627 303.374 118.668C303.432 118.692 303.494 118.715 303.557 118.736ZM306.799 115.05L305.999 114.136L306.953 113.296C307.281 113.553 307.561 113.838 307.796 114.136C308.077 114.492 308.294 114.865 308.452 115.231C308.166 115.332 307.93 115.355 307.796 115.355C307.794 115.355 307.729 115.355 307.613 115.336C307.495 115.316 307.323 115.275 307.115 115.194C307.01 115.153 306.904 115.105 306.799 115.05ZM302.754 96.5894C304.111 96.281 305.506 96.1266 306.929 96.1266C308.221 96.1266 309.555 96.2539 310.874 96.5829H328.783L322.875 124.586H333.954L317.505 159.237H296.713H292.718H285.173L285.035 156.617C281.359 158.832 277.015 159.693 272.483 159.693C269.311 159.693 266.133 159.187 263.303 157.808L262.995 159.266H225.986L225.997 159.214C224.107 159.564 222.137 159.693 220.185 159.693C218.032 159.693 215.954 159.536 213.97 159.196C212.179 158.912 210.315 158.476 208.682 157.718L204 155.545L207.517 138.585C207.528 138.176 207.559 137.768 207.609 137.362C207.667 136.901 207.748 136.45 207.844 136.014C208.214 134.279 208.863 132.684 209.77 131.263H205.016L212.135 97.6339L234.952 92.4292L234.143 96.1946C235.58 96.2874 237.196 96.5719 238.731 97.3002C238.912 97.2363 239.095 97.1745 239.278 97.1148C241.36 96.4369 243.551 96.1561 245.765 96.1561C248.572 96.1561 252.081 96.7423 254.773 99.3206C254.838 99.3819 254.901 99.4436 254.964 99.5057C258.47 97.0897 262.673 96.1266 267.047 96.1266C269.861 96.1266 272.702 96.615 275.254 97.8947L276.261 93.2429L299.214 88L297.4 96.5829H302.756L302.754 96.5894ZM273.809 104.679C273.698 104.586 273.585 104.497 273.468 104.411C273.226 104.232 272.972 104.067 272.705 103.915C271.21 103.064 269.323 102.638 267.047 102.638C266.754 102.638 266.465 102.644 266.18 102.655C263.367 102.763 261.008 103.404 259.105 104.578C259.064 104.603 259.024 104.629 258.984 104.654C258.646 104.869 258.322 105.101 258.013 105.351C257.857 105.476 257.705 105.607 257.557 105.741C257.062 106.183 256.604 106.658 256.182 107.166C255.969 107.422 255.765 107.687 255.57 107.961C255.238 108.429 254.932 108.921 254.654 109.438C254.62 109.5 254.587 109.563 254.555 109.625C254.499 109.733 254.444 109.842 254.39 109.952C254.192 110.357 254.01 110.776 253.844 111.209C253.837 111.227 253.83 111.245 253.823 111.263C253.794 111.34 253.765 111.417 253.737 111.494C253.456 112.27 253.223 113.09 253.04 113.954C252.918 114.441 252.827 114.927 252.766 115.414C252.735 115.901 252.72 116.357 252.72 116.783C252.72 119.478 253.643 121.539 255.49 122.966C255.539 123.004 255.589 123.042 255.64 123.079C256.399 123.616 257.249 124.05 258.191 124.381C258.292 124.416 258.394 124.451 258.497 124.484C258.551 124.501 258.606 124.518 258.661 124.535C260.063 124.964 261.657 125.178 263.443 125.178C264.608 125.178 265.703 125.132 266.728 125.039C268.459 124.882 269.99 124.593 271.32 124.171C271.35 124.162 271.379 124.152 271.409 124.143C271.561 124.093 271.711 124.042 271.858 123.989C272.135 123.89 272.402 123.784 272.659 123.672L273.754 118.517C273.02 118.779 272.115 119.019 271.04 119.236C270.947 119.255 270.853 119.273 270.757 119.292C270.677 119.307 270.597 119.323 270.515 119.338C269.281 119.544 268.061 119.65 266.855 119.657C266.813 119.657 266.77 119.657 266.728 119.657C265.403 119.657 264.308 119.585 263.443 119.441C262.719 119.32 262.156 119.149 261.754 118.927C261.523 118.791 261.32 118.635 261.147 118.457C261.105 118.413 261.064 118.368 261.025 118.321C260.619 117.839 260.406 117.22 260.386 116.463H275.397L276.218 112.676C276.309 112.281 276.37 111.901 276.401 111.536C276.427 111.227 276.441 110.928 276.445 110.641C276.446 110.589 276.446 110.537 276.446 110.486C276.446 109.885 276.392 109.314 276.284 108.772C276.282 108.765 276.281 108.757 276.279 108.749C275.963 107.193 275.197 105.886 273.983 104.828C273.925 104.778 273.867 104.728 273.809 104.679ZM269.07 109.4C269.051 109.357 269.031 109.315 269.009 109.273C268.898 109.063 268.746 108.874 268.553 108.707C268.224 108.422 267.722 108.24 267.047 108.16C266.784 108.129 266.495 108.114 266.18 108.114C264.711 108.114 263.611 108.424 262.88 109.045C262.878 109.047 262.875 109.05 262.872 109.052C262.865 109.059 262.857 109.065 262.849 109.072C262.556 109.316 262.303 109.609 262.088 109.952C261.991 110.106 261.902 110.27 261.821 110.445C261.814 110.46 261.807 110.476 261.8 110.491C261.754 110.593 261.711 110.699 261.67 110.807C261.555 111.115 261.462 111.449 261.389 111.809H269.009L269.146 111.034C269.176 110.882 269.192 110.745 269.192 110.623C269.222 110.501 269.237 110.38 269.237 110.258C269.237 110.153 269.231 110.05 269.219 109.952C269.194 109.755 269.144 109.571 269.07 109.4ZM248.457 124.751L251.423 110.698C251.545 110.181 251.621 109.694 251.651 109.238C251.712 108.782 251.743 108.356 251.743 107.961C251.743 106.288 251.273 104.997 250.335 104.087C250.318 104.07 250.3 104.053 250.283 104.037C249.34 103.124 247.834 102.668 245.765 102.668C244.934 102.668 244.148 102.72 243.406 102.826C243.212 102.853 243.021 102.884 242.833 102.919C242.295 103.019 241.782 103.148 241.294 103.307C241.125 103.362 240.958 103.419 240.792 103.478C239.673 103.88 238.624 104.386 237.644 104.995C237.487 104.602 237.273 104.258 237.002 103.963C236.815 103.759 236.601 103.578 236.36 103.42C236.274 103.364 236.185 103.311 236.092 103.261C235.362 102.866 234.298 102.668 232.899 102.668C232.85 102.668 232.801 102.668 232.752 102.669C231.997 102.677 231.259 102.747 230.54 102.88C229.977 102.984 229.425 103.126 228.883 103.307C228.526 103.42 228.176 103.543 227.834 103.676C227.588 103.772 227.346 103.873 227.108 103.979C226.605 104.203 226.119 104.45 225.651 104.72L226.439 101.05L217.643 103.056L213.051 124.751H221.355L224.366 110.561C224.39 110.541 224.415 110.522 224.439 110.502C224.445 110.498 224.45 110.493 224.455 110.489C224.463 110.483 224.471 110.476 224.479 110.47C224.965 110.083 225.49 109.749 226.054 109.466C226.663 109.162 227.256 109.01 227.834 109.01C227.937 109.01 228.035 109.014 228.129 109.021C228.935 109.084 229.413 109.416 229.562 110.017C229.596 110.154 229.613 110.305 229.613 110.47C229.613 110.774 229.568 111.139 229.477 111.565L228.772 114.902L226.693 124.751H234.632L237.188 112.569C237.279 112.143 237.355 111.763 237.416 111.428C237.478 111.177 237.527 110.918 237.561 110.653C237.563 110.64 237.564 110.627 237.566 110.614C237.567 110.606 237.568 110.598 237.569 110.591C237.58 110.491 237.59 110.39 237.598 110.288C238.372 109.589 239.228 109.177 240.165 109.051C240.37 109.024 240.579 109.01 240.792 109.01C241.722 109.01 242.342 109.252 242.654 109.735C242.812 109.979 242.891 110.285 242.891 110.653C242.891 110.666 242.891 110.68 242.891 110.695C242.886 110.962 242.841 111.298 242.754 111.702L240.016 124.751L234.035 152.754H242.613L245.625 138.564C245.65 138.543 245.676 138.522 245.702 138.502C245.708 138.497 245.714 138.492 245.72 138.487C246.216 138.094 246.793 137.755 247.45 137.469C248.145 137.179 248.854 137.028 249.577 137.014C249.613 137.013 249.649 137.013 249.685 137.013C250.519 137.013 251.125 137.182 251.501 137.52C251.812 137.799 251.967 138.193 251.967 138.701C251.967 139.005 251.921 139.37 251.83 139.796L249.092 152.754H257.716L260.59 139.157C260.712 138.64 260.788 138.154 260.819 137.697C260.879 137.241 260.91 136.815 260.91 136.42C260.91 134.64 260.398 133.273 259.374 132.32C258.212 131.237 256.388 130.687 253.905 130.671C253.867 130.671 253.83 130.671 253.792 130.671C253.224 130.671 252.665 130.702 252.114 130.765C251.396 130.848 250.693 130.983 250.005 131.173C249.897 131.203 249.791 131.234 249.685 131.266C248.632 131.585 247.704 131.98 246.902 132.45L248.457 124.751ZM232.444 144.89C232.454 144.779 232.459 144.668 232.459 144.558C232.459 143.402 232.063 142.428 231.272 141.637C231.147 141.502 231.007 141.37 230.851 141.242C230.596 141.031 230.301 140.83 229.965 140.637C229.721 140.497 229.456 140.362 229.169 140.232C229.074 140.189 228.976 140.146 228.876 140.104C228.405 139.904 227.88 139.715 227.303 139.539C227.163 139.492 227.026 139.447 226.892 139.403C225.946 139.092 225.142 138.844 224.48 138.659C224.477 138.658 224.473 138.658 224.47 138.657C224.311 138.612 224.16 138.572 224.018 138.535C223.196 138.322 222.831 137.972 222.923 137.485C222.932 137.451 222.944 137.417 222.959 137.384C223.118 137.018 223.547 136.793 224.246 136.71C224.329 136.7 224.413 136.691 224.498 136.682C225.029 136.629 225.599 136.595 226.208 136.581C226.431 136.575 226.659 136.573 226.892 136.573C226.99 136.573 227.089 136.574 227.188 136.576C227.513 136.583 227.848 136.603 228.193 136.634C228.218 136.636 228.243 136.638 228.269 136.641C228.622 136.674 228.985 136.72 229.359 136.779C229.432 136.79 229.505 136.802 229.579 136.814C229.585 136.815 229.591 136.816 229.597 136.817C229.653 136.827 229.71 136.837 229.767 136.847C230.099 136.905 230.42 136.975 230.73 137.055C231.12 137.157 231.492 137.275 231.847 137.411C232.09 137.504 232.324 137.605 232.55 137.713L233.827 131.691C233.389 131.539 232.847 131.396 232.202 131.263C232.128 131.248 232.053 131.233 231.977 131.218C231.614 131.147 231.22 131.078 230.796 131.013C230.683 130.995 230.568 130.978 230.451 130.961C230.382 130.95 230.313 130.94 230.244 130.931C229.285 130.794 228.333 130.706 227.388 130.666C227.222 130.659 227.057 130.654 226.892 130.65C226.848 130.649 226.804 130.648 226.761 130.647C226.738 130.646 226.716 130.646 226.693 130.646C226.531 130.643 226.369 130.641 226.208 130.641C225.266 130.641 224.382 130.678 223.558 130.75C223.549 130.751 223.54 130.752 223.531 130.753C222.753 130.822 222.028 130.925 221.355 131.059C221.049 131.12 220.753 131.188 220.469 131.263C220.295 131.309 220.125 131.357 219.959 131.408C219.084 131.676 218.323 132.013 217.675 132.421C215.82 133.577 214.664 135.234 214.208 137.394C214.147 137.668 214.101 137.926 214.071 138.17C214.04 138.413 214.025 138.656 214.025 138.9C214.025 138.945 214.026 138.99 214.027 139.035C214.05 139.965 214.31 140.768 214.807 141.442C214.928 141.606 215.063 141.762 215.212 141.911C215.67 142.352 216.252 142.768 216.957 143.158C216.962 143.161 216.966 143.163 216.971 143.166C217.185 143.284 217.41 143.399 217.646 143.513C217.97 143.668 218.314 143.818 218.679 143.964C219.129 144.127 219.555 144.278 219.957 144.416C220.831 144.718 221.592 144.963 222.238 145.151C222.246 145.153 222.253 145.155 222.26 145.157C223.188 145.431 223.591 145.824 223.47 146.337C223.463 146.372 223.454 146.407 223.444 146.44C223.325 146.832 222.999 147.057 222.466 147.113C222.236 147.137 221.964 147.156 221.652 147.171C221.235 147.19 220.747 147.201 220.185 147.203C220.11 147.204 220.034 147.204 219.957 147.204C219.666 147.204 219.359 147.193 219.037 147.171C218.582 147.141 218.094 147.089 217.576 147.015C217.539 147.009 217.502 147.004 217.466 146.999C217.322 146.977 217.177 146.955 217.029 146.93C216.78 146.889 216.524 146.844 216.261 146.793C216.197 146.781 216.133 146.768 216.07 146.755C216.039 146.749 216.007 146.742 215.976 146.735C215.27 146.587 214.621 146.41 214.028 146.205C213.549 146.039 213.107 145.855 212.702 145.653L211.424 151.812C212.276 152.208 213.478 152.527 215.029 152.77C215.049 152.774 215.069 152.777 215.089 152.781C215.097 152.782 215.106 152.784 215.114 152.785C215.891 152.917 216.701 153.016 217.544 153.082C217.632 153.088 217.719 153.095 217.807 153.101C218.502 153.149 219.218 153.176 219.957 153.18C220.033 153.181 220.109 153.181 220.185 153.181C221.227 153.181 222.195 153.137 223.091 153.05C224.466 152.915 225.669 152.677 226.7 152.336C226.991 152.24 227.269 152.135 227.533 152.022C227.861 151.881 228.168 151.728 228.454 151.562C228.544 151.51 228.631 151.456 228.717 151.402C230.573 150.185 231.744 148.481 232.23 146.291C232.291 145.957 232.337 145.653 232.367 145.379C232.404 145.216 232.429 145.053 232.444 144.89Z" fill="url(#paint9_linear_225_244)"/>
<path fill-rule="evenodd" clip-rule="evenodd" d="M299.36 100.828C299.127 100.954 298.897 101.086 298.671 101.224L299.15 99.3736H293.958L295.581 91.6924L278.613 95.5683L277.084 102.642C276.88 102.434 276.665 102.231 276.44 102.034C273.908 99.7913 270.605 98.9173 267.047 98.9173C262.379 98.9173 258.224 100.119 255.068 102.975C254.867 103.154 254.672 103.338 254.481 103.525C254.08 102.736 253.544 101.998 252.848 101.342C250.905 99.4766 248.254 98.9469 245.765 98.9469C243.783 98.9469 241.892 99.1986 240.142 99.7685C239.584 99.95 239.038 100.153 238.504 100.377C238.299 100.239 238.086 100.109 237.865 99.9892C236.337 99.1617 234.544 98.9469 232.899 98.9469C232.146 98.9469 231.401 98.9954 230.666 99.0935L231.304 96.1238L214.495 99.9578L208.46 128.472H217.197C216.673 128.706 216.174 128.97 215.701 129.267C212.986 130.961 211.237 133.478 210.571 136.606C210.49 136.972 210.425 137.34 210.379 137.708C210.275 138.539 210.041 140.162 210.041 140.162L207.182 153.945L209.857 155.187C211.156 155.79 212.737 156.176 214.423 156.442C216.236 156.754 218.159 156.902 220.185 156.902C223.794 156.902 227.108 156.428 229.729 155.102L229.436 156.475H260.732L261.437 153.142C261.752 153.453 262.091 153.749 262.455 154.03L262.47 154.042L262.485 154.053C265.21 156.108 268.693 156.902 272.483 156.902C277.344 156.902 281.663 155.833 285.016 153.257C285.955 152.536 286.79 151.727 287.525 150.841L287.82 156.446H301.592H315.741L329.54 127.377H319.434L325.342 99.3736H310.511C309.362 99.0506 308.154 98.9173 306.929 98.9173C304.25 98.9173 301.707 99.5547 299.36 100.828ZM253.823 111.263C253.829 111.247 253.835 111.231 253.842 111.215L253.838 111.225C253.833 111.238 253.828 111.25 253.823 111.263ZM263.543 138.061C263.571 138.002 263.6 137.943 263.628 137.885C263.618 137.905 263.608 137.926 263.598 137.947C263.58 137.985 263.561 138.023 263.543 138.061ZM249.861 140.744C249.86 140.744 249.849 140.743 249.829 140.739C249.851 140.741 249.861 140.743 249.861 140.744ZM226.212 139.182C226.554 139.291 226.918 139.41 227.303 139.539C227.163 139.492 227.026 139.447 226.892 139.403C226.657 139.325 226.43 139.252 226.212 139.182ZM230.242 130.93C230.311 130.94 230.381 130.95 230.451 130.961ZM227.866 112.732C227.867 112.732 227.868 112.732 227.868 112.732L227.866 112.732Z" fill="#06072B"/>
<path d="M279.286 123.627C280.441 124.661 282.13 125.178 284.35 125.178C286.631 125.178 288.639 124.843 290.373 124.174L291.605 118.471C290.601 118.775 289.658 118.927 288.776 118.927C288.015 118.927 287.422 118.836 286.996 118.653C286.601 118.44 286.403 118.03 286.403 117.421C286.403 117.147 286.449 116.813 286.54 116.417L288.046 109.436H292.7L294.342 103.094H289.369L290.738 96.6152L281.749 98.6685L280.791 103.094L279.468 109.436L277.825 117.056C277.643 117.877 277.552 118.638 277.552 119.338C277.552 121.163 278.13 122.592 279.286 123.627Z" fill="white"/>
<path fill-rule="evenodd" clip-rule="evenodd" d="M255.64 123.079C257.618 124.478 260.218 125.178 263.443 125.178C267.275 125.178 270.348 124.676 272.659 123.672L273.754 118.516C272.903 118.82 271.823 119.094 270.515 119.338C269.237 119.55 267.975 119.657 266.728 119.657C264.294 119.657 262.637 119.414 261.754 118.927C260.872 118.41 260.416 117.589 260.386 116.463H275.397L276.218 112.676C276.309 112.281 276.37 111.9 276.401 111.535C276.431 111.17 276.446 110.82 276.446 110.486C276.446 108.144 275.625 106.258 273.982 104.828C272.34 103.368 270.028 102.638 267.047 102.638C263.002 102.638 259.838 103.672 257.557 105.741C255.275 107.779 253.77 110.516 253.04 113.954C252.918 114.44 252.827 114.927 252.766 115.414C252.735 115.9 252.72 116.357 252.72 116.782C252.72 119.55 253.694 121.649 255.64 123.079ZM269.009 111.809H261.389C261.633 110.592 262.119 109.68 262.849 109.071C263.58 108.433 264.69 108.113 266.18 108.113C267.306 108.113 268.097 108.311 268.553 108.706C269.009 109.102 269.237 109.619 269.237 110.258C269.237 110.379 269.222 110.501 269.192 110.623C269.192 110.744 269.176 110.881 269.146 111.033L269.009 111.809Z" fill="white"/>
<path fill-rule="evenodd" clip-rule="evenodd" d="M301.636 125.178C299.112 125.178 297.104 124.615 295.614 123.49C294.154 122.334 293.423 120.509 293.423 118.014C293.423 117.497 293.454 116.965 293.515 116.417C293.576 115.87 293.667 115.292 293.789 114.684C294.336 112.22 295.249 110.09 296.526 108.296C297.804 106.471 299.34 105.071 301.134 104.098C302.929 103.125 304.861 102.638 306.929 102.638C308.085 102.638 309.089 102.79 309.941 103.094C310.792 103.368 311.461 103.718 311.948 104.144L312.176 103.094H320.754L316.191 124.722H308.754L308.663 123.033C307.659 123.703 306.595 124.235 305.469 124.63C304.344 124.995 303.066 125.178 301.636 125.178ZM305.423 118.973C306.093 118.973 306.747 118.866 307.385 118.653C308.024 118.41 308.587 118.075 309.074 117.649L310.716 109.984C310.047 109.224 309.074 108.843 307.796 108.843C305.15 108.843 303.401 110.805 302.549 114.729C302.366 115.49 302.275 116.144 302.275 116.691C302.275 117.543 302.519 118.136 303.005 118.471C303.492 118.805 304.298 118.973 305.423 118.973Z" fill="white"/>
<path d="M215.029 152.77C216.611 153.044 218.329 153.181 220.185 153.181C224.018 153.181 226.862 152.588 228.717 151.401C230.573 150.185 231.744 148.481 232.23 146.291C232.291 145.956 232.337 145.652 232.367 145.379C232.428 145.105 232.459 144.831 232.459 144.557C232.459 143.401 232.063 142.428 231.272 141.637C230.512 140.816 229.189 140.116 227.303 139.538C225.934 139.082 224.839 138.747 224.018 138.534C223.196 138.322 222.831 137.972 222.922 137.485C223.044 137.059 223.485 136.801 224.246 136.709C225.037 136.618 225.919 136.572 226.892 136.572C227.774 136.572 228.732 136.664 229.767 136.846C230.801 137.029 231.729 137.318 232.55 137.713L233.827 131.69C233.037 131.417 231.911 131.173 230.451 130.96C229.021 130.747 227.607 130.641 226.208 130.641C222.405 130.641 219.561 131.234 217.675 132.42C215.82 133.576 214.664 135.234 214.208 137.394C214.147 137.668 214.101 137.926 214.071 138.169C214.04 138.413 214.025 138.656 214.025 138.899C214.025 140.116 214.421 141.12 215.211 141.911C216.002 142.671 217.158 143.356 218.679 143.964C220.109 144.481 221.295 144.877 222.238 145.15C223.181 145.424 223.592 145.82 223.47 146.337C223.379 146.793 223.044 147.052 222.466 147.112C221.888 147.173 221.052 147.204 219.957 147.204C218.923 147.204 217.691 147.067 216.261 146.793C214.862 146.519 213.675 146.139 212.702 145.652L211.424 151.812C212.276 152.207 213.478 152.527 215.029 152.77Z" fill="white"/>
<path fill-rule="evenodd" clip-rule="evenodd" d="M272.483 153.181C269.167 153.181 266.581 152.481 264.726 151.082C262.87 149.652 261.943 147.569 261.943 144.831C261.943 144.375 261.958 143.903 261.988 143.417C262.049 142.93 262.14 142.428 262.262 141.911C263.053 138.261 264.65 135.477 267.053 133.561C269.456 131.614 272.863 130.641 277.273 130.641C280.802 130.641 283.463 131.386 285.258 132.877C287.053 134.367 287.95 136.42 287.95 139.036C287.95 139.493 287.92 139.964 287.859 140.451C287.828 140.907 287.752 141.394 287.631 141.911C286.87 145.591 285.243 148.39 282.749 150.306C280.254 152.223 276.832 153.181 272.483 153.181ZM273.806 146.93C275.205 146.93 276.3 146.534 277.091 145.744C277.912 144.953 278.505 143.675 278.87 141.911C279.053 141.09 279.144 140.36 279.144 139.721C279.144 138.747 278.886 138.033 278.368 137.576C277.882 137.12 277.076 136.892 275.95 136.892C274.581 136.892 273.502 137.303 272.711 138.124C271.95 138.915 271.387 140.177 271.022 141.911C270.84 142.823 270.749 143.599 270.749 144.238C270.749 145.181 270.977 145.865 271.433 146.291C271.92 146.717 272.711 146.93 273.806 146.93Z" fill="white"/>
<path d="M290.21 131.097L291.35 152.724H299.381L304.719 142.915L305.951 152.724H313.388L323.654 131.097H315.35L310.605 141.82L309.875 131.097H303.578L302.94 134.2L298.788 141.82L298.514 131.097H290.21Z" fill="white"/>
<path d="M228.883 103.306C230.161 102.88 231.499 102.668 232.899 102.668C234.298 102.668 235.362 102.865 236.092 103.261C236.822 103.656 237.34 104.234 237.644 104.995C238.769 104.295 239.986 103.732 241.294 103.306C242.602 102.88 244.092 102.668 245.765 102.668C247.834 102.668 249.34 103.124 250.283 104.036C251.256 104.949 251.743 106.257 251.743 107.96C251.743 108.356 251.712 108.782 251.651 109.238C251.621 109.694 251.545 110.181 251.423 110.698L248.457 124.751L246.902 132.45C247.784 131.933 248.819 131.507 250.005 131.172C251.222 130.838 252.484 130.67 253.792 130.67C258.537 130.67 260.91 132.587 260.91 136.419C260.91 136.815 260.879 137.241 260.818 137.697C260.788 138.153 260.712 138.64 260.59 139.157L257.716 152.754H249.092L251.83 139.796C251.921 139.37 251.967 139.005 251.967 138.701C251.967 137.575 251.206 137.013 249.685 137.013C248.925 137.013 248.18 137.165 247.45 137.469C246.75 137.773 246.142 138.138 245.625 138.564L242.613 152.754H234.035L240.016 124.751L242.754 111.702C242.845 111.276 242.891 110.926 242.891 110.652C242.891 109.557 242.191 109.01 240.792 109.01C239.606 109.01 238.541 109.436 237.598 110.287C237.568 110.683 237.507 111.063 237.416 111.428C237.355 111.763 237.279 112.143 237.188 112.569L234.632 124.751H226.693L229.477 111.565C229.568 111.139 229.613 110.774 229.613 110.47C229.613 109.496 229.02 109.01 227.834 109.01C227.256 109.01 226.663 109.162 226.054 109.466C225.446 109.77 224.883 110.135 224.366 110.561L221.355 124.751H213.051L217.643 103.056L226.439 101.05L225.651 104.719C226.65 104.144 227.727 103.673 228.883 103.306Z" fill="white"/>
</g>
<defs>
<filter id="filter0_d_225_244" x="91" y="31.5" width="356" height="277" filterUnits="userSpaceOnUse" color-interpolation-filters="sRGB">
<feFlood flood-opacity="0" result="BackgroundImageFix"/>
<feColorMatrix in="SourceAlpha" type="matrix" values="0 0 0 0 0 0 0 0 0 0 0 0 0 0 0 0 0 0 127 0" result="hardAlpha"/>
<feOffset/>
<feGaussianBlur stdDeviation="10"/>
<feComposite in2="hardAlpha" operator="out"/>
<feColorMatrix type="matrix" values="0 0 0 0 0 0 0 0 0 0 0 0 0 0 0 0 0 0 0.1 0"/>
<feBlend mode="normal" in2="BackgroundImageFix" result="effect1_dropShadow_225_244"/>
<feBlend mode="normal" in="SourceGraphic" in2="effect1_dropShadow_225_244" result="shape"/>
</filter>
<filter id="filter1_d_225_244" x="58.8238" y="211.226" width="158.156" height="91.1563" filterUnits="userSpaceOnUse" color-interpolation-filters="sRGB">
<feFlood flood-opacity="0" result="BackgroundImageFix"/>
<feColorMatrix in="SourceAlpha" type="matrix" values="0 0 0 0 0 0 0 0 0 0 0 0 0 0 0 0 0 0 127 0" result="hardAlpha"/>
<feOffset dx="-0.598015" dy="-1.19603"/>
<feGaussianBlur stdDeviation="3.28908"/>
<feComposite in2="hardAlpha" operator="out"/>
<feColorMatrix type="matrix" values="0 0 0 0 0 0 0 0 0 0 0 0 0 0 0 0 0 0 0.25 0"/>
<feBlend mode="normal" in2="BackgroundImageFix" result="effect1_dropShadow_225_244"/>
<feBlend mode="normal" in="SourceGraphic" in2="effect1_dropShadow_225_244" result="shape"/>
</filter>
<filter id="filter2_d_225_244" x="319.824" y="211.226" width="158.156" height="91.1563" filterUnits="userSpaceOnUse" color-interpolation-filters="sRGB">
<feFlood flood-opacity="0" result="BackgroundImageFix"/>
<feColorMatrix in="SourceAlpha" type="matrix" values="0 0 0 0 0 0 0 0 0 0 0 0 0 0 0 0 0 0 127 0" result="hardAlpha"/>
<feOffset dx="-0.598015" dy="-1.19603"/>
<feGaussianBlur stdDeviation="3.28908"/>
<feComposite in2="hardAlpha" operator="out"/>
<feColorMatrix type="matrix" values="0 0 0 0 0 0 0 0 0 0 0 0 0 0 0 0 0 0 0.25 0"/>
<feBlend mode="normal" in2="BackgroundImageFix" result="effect1_dropShadow_225_244"/>
<feBlend mode="normal" in="SourceGraphic" in2="effect1_dropShadow_225_244" result="shape"/>
</filter>
<linearGradient id="paint0_linear_225_244" x1="117.424" y1="58.3334" x2="264.846" y2="291.13" gradientUnits="userSpaceOnUse">
<stop stop-color="#F1FFFC"/>
<stop offset="0.515625" stop-color="#F1F1FF"/>
<stop offset="1" stop-color="#E6F6FF"/>
</linearGradient>
<linearGradient id="paint1_linear_225_244" x1="431.708" y1="122.422" x2="488.69" y2="189.908" gradientUnits="userSpaceOnUse">
<stop stop-color="#F1FFFC"/>
<stop offset="0.515625" stop-color="#F1F1FF"/>
<stop offset="1" stop-color="#E6F6FF"/>
</linearGradient>
<linearGradient id="paint2_linear_225_244" x1="437.464" y1="128.076" x2="486.305" y2="185.921" gradientUnits="userSpaceOnUse">
<stop stop-color="#F1FFFC"/>
<stop offset="0.515625" stop-color="#F1F1FF"/>
<stop offset="1" stop-color="#E6F6FF"/>
</linearGradient>
<linearGradient id="paint3_linear_225_244" x1="472" y1="146.167" x2="472" y2="169.917" gradientUnits="userSpaceOnUse">
<stop stop-color="#6523D7"/>
<stop offset="0.807145" stop-color="#4C42B9"/>
</linearGradient>
<linearGradient id="paint4_linear_225_244" x1="472" y1="146.167" x2="472" y2="169.917" gradientUnits="userSpaceOnUse">
<stop stop-color="#6523D7"/>
<stop offset="0.807145" stop-color="#4C42B9"/>
</linearGradient>
<linearGradient id="paint5_linear_225_244" x1="472" y1="176.25" x2="472" y2="177.828" gradientUnits="userSpaceOnUse">
<stop stop-color="#6523D7"/>
<stop offset="0.807145" stop-color="#4C42B9"/>
</linearGradient>
<linearGradient id="paint6_linear_225_244" x1="346.009" y1="209.402" x2="421.236" y2="321.148" gradientUnits="userSpaceOnUse">
<stop stop-color="#F1FFFC"/>
<stop offset="0.515625" stop-color="#F1F1FF"/>
<stop offset="1" stop-color="#E6F6FF"/>
</linearGradient>
<linearGradient id="paint7_linear_225_244" x1="6.29354" y1="102.574" x2="160.87" y2="232.651" gradientUnits="userSpaceOnUse">
<stop stop-color="#F1FFFC"/>
<stop offset="0.515625" stop-color="#F1F1FF"/>
<stop offset="1" stop-color="#E6F6FF"/>
</linearGradient>
<linearGradient id="paint8_linear_225_244" x1="2.75034" y1="41.3794" x2="171.505" y2="57.0441" gradientUnits="userSpaceOnUse">
<stop stop-color="#A2E0E2"/>
<stop offset="0.0001" stop-color="#3A40B7"/>
<stop offset="1" stop-color="#E270FF"/>
</linearGradient>
<linearGradient id="paint9_linear_225_244" x1="267.51" y1="96.7773" x2="267.51" y2="153.059" gradientUnits="userSpaceOnUse">
<stop stop-color="#774FFF"/>
<stop offset="0.619792" stop-color="#FFA34F"/>
<stop offset="1" stop-color="#FF5B5B"/>
</linearGradient>
<clipPath id="clip0_225_244">
<rect width="514" height="375" fill="white"/>
</clipPath>
</defs>
</svg>
