<svg width="66" height="52" viewBox="0 0 66 52" fill="none" xmlns="http://www.w3.org/2000/svg">
<path d="M18.5512 7.37732C12.8285 7.37732 8.17969 12.0126 8.17969 17.7488C8.17969 23.4851 12.8149 28.1204 18.5512 28.1204C24.2875 28.1204 28.9227 23.4851 28.9227 17.7488C28.9227 12.0126 24.2739 7.37732 18.5512 7.37732ZM18.5512 14.3642C16.689 14.3642 15.1665 15.873 15.1665 17.7488C15.1665 18.6052 14.4733 19.2985 13.6169 19.2985C12.7606 19.2985 12.0673 18.6052 12.0673 17.7488C12.0673 14.1739 14.9762 11.2785 18.5376 11.2785C19.394 11.2785 20.0872 11.9718 20.0872 12.8281C20.0872 13.6845 19.394 14.3642 18.5512 14.3642Z" fill="#89EAB0"/>
<path d="M47.45 0.30896C41.7273 0.30896 37.0785 4.9442 37.0785 10.6805C37.0785 16.4168 41.7137 21.052 47.45 21.052C53.1863 21.052 57.8215 16.4168 57.8215 10.6805C57.8215 4.9442 53.1863 0.30896 47.45 0.30896ZM47.45 7.29581C45.5878 7.29581 44.0653 8.80464 44.0653 10.6805C44.0653 11.5368 43.3721 12.2301 42.5157 12.2301C41.6594 12.2301 40.9661 11.5368 40.9661 10.6805C40.9661 7.1055 43.875 4.21018 47.4364 4.21018C48.2928 4.21018 48.986 4.90342 48.986 5.75979C48.9996 6.60256 48.3064 7.29581 47.45 7.29581Z" fill="#89EAB0"/>
<path d="M65.991 35.0121V34.7946C65.991 34.781 65.991 34.7674 65.991 34.7674C65.8959 31.8449 65.3522 29.8331 62.3617 27.9573C58.4061 25.4697 53.9883 23.322 53.9883 23.322L50.4677 34.4412L48.4152 30.3089C52.0173 25.2794 48.1569 25.0212 47.4772 25.0212C47.4772 25.0212 47.4637 25.0212 47.4501 25.0212C47.4365 25.0212 47.4365 25.0212 47.4229 25.0212C46.7296 25.0212 42.8692 25.2794 46.485 30.3089L44.4324 34.4412L40.9118 23.322C40.9118 23.322 36.494 25.4697 32.5384 27.9573C31.6277 28.5282 30.9481 29.1127 30.4315 29.738C31.8588 30.5128 33.49 31.4507 35.0668 32.443C36.9834 33.6528 38.3019 35.0529 39.1039 36.7384C39.8923 38.4103 40.069 40.1231 40.1098 41.5911C40.1234 41.6863 40.1234 41.7814 40.1234 41.8766V42.0533C40.137 42.6514 40.137 43.2631 40.1234 43.8884C40.1234 43.9291 40.1234 43.9563 40.1234 43.9971V44.6224H47.4229H65.9774V36.5753C65.9774 36.7112 65.9774 36.7928 65.9774 36.7928C66.0046 36.1675 66.0046 35.5694 65.991 35.0121ZM65.9638 34.713C65.9638 34.6587 65.9638 34.6587 65.9638 34.713V34.713Z" fill="#89EAB0"/>
<path d="M37.0785 42.0806V41.8631C37.0785 41.8495 37.0785 41.8359 37.0785 41.8359C36.997 38.9134 36.4397 36.9016 33.4492 35.0257C29.4936 32.5382 25.0758 30.3905 25.0758 30.3905L21.5552 41.5096L19.5027 37.3773C23.1048 32.3479 19.2444 32.0896 18.5648 32.0896C18.5648 32.0896 18.5512 32.0896 18.5376 32.0896C18.524 32.0896 18.524 32.0896 18.5104 32.0896C17.8171 32.0896 13.9567 32.3479 17.5725 37.3773L15.5199 41.5096L11.9993 30.3905C11.9993 30.3905 7.58154 32.5382 3.62596 35.0257C0.64907 36.9016 0.105346 38.9134 0.0101948 41.8359C0.0101948 41.8495 0.0101948 41.8495 0.0101948 41.8631V42.0806C-0.00339827 42.6379 -0.00339827 43.236 0.0101948 43.8613C0.0101948 43.8613 0.0101948 43.7797 0.0101948 43.6438V51.6909H18.524H37.0785V43.6438C37.0785 43.7797 37.0785 43.8613 37.0785 43.8613C37.0921 43.236 37.0921 42.6379 37.0785 42.0806Z" fill="#89EAB0"/>
</svg>
