<svg width="20" height="20" viewBox="0 0 20 20" fill="none" xmlns="http://www.w3.org/2000/svg">
<path d="M11.8484 11.707C11.7621 11.7847 11.6358 11.8987 11.6358 12.0942C11.6358 12.2973 11.7696 12.5016 12.011 12.6657C13.1077 13.434 15.1635 13.3425 15.2523 13.34H15.2548C16.0889 13.34 16.9055 13.1144 17.6233 12.6896C18.3452 12.2663 18.9443 11.6613 19.361 10.9345C19.7778 10.2077 19.9978 9.38443 19.9993 8.54618C20.0218 6.89685 19.4491 5.76639 19.1664 5.20742L19.1164 5.10716C17.452 1.86364 13.8793 0 9.99516 0C7.93618 2.93e-06 5.92735 0.636717 4.24279 1.82326C2.55823 3.00979 1.28 4.68836 0.58252 6.6299C1.85179 5.07332 3.97142 4.08823 6.24361 4.08823C9.78257 4.08823 12.5087 6.45068 12.5087 10.1003H12.5037V10.1028C12.5037 10.5264 12.2936 11.1455 11.8947 11.6619L11.9022 11.6543C11.8851 11.6724 11.8672 11.6895 11.8484 11.7057V11.707Z" fill="url(#paint0_linear_511_2810)"/>
<path d="M0.00359065 9.71675C-0.0381275 11.2903 0.284165 12.8521 0.94523 14.28C1.6854 15.8593 2.82398 17.2177 4.24845 18.2209C5.67291 19.224 7.33394 19.8373 9.06734 20C8.72753 19.8702 8.39917 19.7122 8.08568 19.5275H8.07317L7.92311 19.4335C7.1584 18.9574 6.49536 18.3343 5.97231 17.5999C5.37553 16.7814 4.96475 15.8418 4.7688 14.8472C4.57284 13.8526 4.59648 12.8271 4.83803 11.8426C5.07958 10.8581 5.5332 9.93859 6.16704 9.1485C6.80089 8.3584 7.5996 7.71692 8.5071 7.26908L8.51961 7.26407L8.55087 7.24903C8.81098 7.1262 9.32619 6.88307 10.0102 6.89184C10.1715 6.89309 10.3316 6.90688 10.4904 6.9332C10.1229 6.58055 9.70421 6.28561 9.24866 6.0584L9.23616 6.05214C7.92937 5.36659 6.49252 5.34277 6.24367 5.34277C3.19241 5.34277 0.211176 7.39065 0.00359065 9.71675ZM12.8376 19.6328C12.9477 19.5989 13.059 19.5651 13.169 19.5275C13.0415 19.5676 12.9139 19.6027 12.7851 19.6353L12.8376 19.6328Z" fill="url(#paint1_linear_511_2810)"/>
<path d="M12.7812 19.6349C12.9086 19.6028 13.0349 19.5668 13.1601 19.5271L13.2626 19.4958C15.4159 18.7497 17.2516 17.2911 18.4673 15.3599C18.5025 15.3013 18.5177 15.2326 18.5103 15.1646C18.503 15.0965 18.4736 15.0327 18.4266 14.983C18.3797 14.9332 18.3178 14.9003 18.2504 14.8891C18.183 14.878 18.1138 14.8893 18.0534 14.9213C17.7845 15.0616 17.5082 15.1845 17.2243 15.2897C16.327 15.6245 15.3768 15.7943 14.4194 15.791C10.7216 15.791 7.50152 13.2456 7.50152 9.97077C7.50402 9.80157 7.52278 9.63488 7.55904 9.4707C6.59813 10.4309 6.01188 11.7041 5.90637 13.06C5.80086 14.4158 6.18305 15.7647 6.9838 16.8626L6.98755 16.8689C7.38147 17.4216 7.87167 17.8978 8.43565 18.2738H8.4394L8.61948 18.3866C9.71618 19.0759 10.7716 19.7377 12.7812 19.6349Z" fill="url(#paint2_linear_511_2810)"/>
<defs>
<linearGradient id="paint0_linear_511_2810" x1="0.977285" y1="0.384765" x2="8.94944" y2="14.1232" gradientUnits="userSpaceOnUse">
<stop stop-color="#F1FFFC"/>
<stop offset="0.515625" stop-color="#F1F1FF"/>
<stop offset="1" stop-color="#E6F6FF"/>
</linearGradient>
<linearGradient id="paint1_linear_511_2810" x1="0.267733" y1="5.76539" x2="10.3338" y2="16.4766" gradientUnits="userSpaceOnUse">
<stop stop-color="#F1FFFC"/>
<stop offset="0.515625" stop-color="#F1F1FF"/>
<stop offset="1" stop-color="#E6F6FF"/>
</linearGradient>
<linearGradient id="paint2_linear_511_2810" x1="6.14579" y1="9.76407" x2="12.6588" y2="19.3337" gradientUnits="userSpaceOnUse">
<stop stop-color="#F1FFFC"/>
<stop offset="0.515625" stop-color="#F1F1FF"/>
<stop offset="1" stop-color="#E6F6FF"/>
</linearGradient>
</defs>
</svg>
