<svg width="60" height="56" viewBox="0 0 60 56" fill="none" xmlns="http://www.w3.org/2000/svg">
<path d="M14.7778 16.7778C15.2493 16.7778 15.7015 16.5905 16.0349 16.2571C16.3683 15.9237 16.5556 15.4715 16.5556 15V4.33332C16.5556 3.86182 16.3683 3.40964 16.0349 3.07624C15.7015 2.74284 15.2493 2.55554 14.7778 2.55554C14.3063 2.55554 13.8541 2.74284 13.5207 3.07624C13.1873 3.40964 13 3.86182 13 4.33332V15C13 15.4715 13.1873 15.9237 13.5207 16.2571C13.8541 16.5905 14.3063 16.7778 14.7778 16.7778Z" fill="#FF889D"/>
<path d="M50.3333 23C46.7971 23 43.4057 21.5953 40.9052 19.0948C38.4047 16.5943 37 13.2029 37 9.66671H18.6888V15C18.6888 16.0373 18.2768 17.0321 17.5433 17.7656C16.8098 18.4991 15.815 18.9112 14.7777 18.9112C13.7404 18.9112 12.7456 18.4991 12.0122 17.7656C11.2787 17.0321 10.8666 16.0373 10.8666 15V9.66671H3.75551C3.33244 9.66189 2.9127 9.74197 2.52112 9.9022C2.12953 10.0624 1.77406 10.2996 1.47571 10.5996C1.17737 10.8996 0.942213 11.2563 0.784157 11.6488C0.626101 12.0413 0.548352 12.4615 0.555511 12.8845V52.6712C0.548448 53.0867 0.623322 53.4996 0.775859 53.8863C0.928395 54.2729 1.1556 54.6257 1.44451 54.9245C1.73341 55.2233 2.07835 55.4623 2.45963 55.6278C2.8409 55.7932 3.25104 55.882 3.66662 55.8889H54.3333C54.7489 55.882 55.159 55.7932 55.5403 55.6278C55.9216 55.4623 56.2665 55.2233 56.5554 54.9245C56.8443 54.6257 57.0715 54.2729 57.224 53.8863C57.3766 53.4996 57.4515 53.0867 57.4444 52.6712V20.9378C55.3183 22.2873 52.8515 23.0026 50.3333 23ZM43.1155 28.4756L25.9244 45.6667L16.5555 36.2267C16.1404 35.7702 15.9156 35.1723 15.927 34.5554C15.9385 33.9385 16.1853 33.3493 16.6171 32.9085C17.0488 32.4677 17.6327 32.2086 18.2492 32.1843C18.8657 32.16 19.4682 32.3723 19.9333 32.7778L25.9422 38.7867L39.6666 25.0623C39.8919 24.837 40.1594 24.6583 40.4537 24.5363C40.7481 24.4144 41.0636 24.3517 41.3822 24.3517C41.7008 24.3517 42.0163 24.4144 42.3106 24.5363C42.605 24.6583 42.8724 24.837 43.0977 25.0623C43.323 25.2876 43.5017 25.555 43.6237 25.8494C43.7456 26.1437 43.8083 26.4592 43.8083 26.7778C43.8083 27.0964 43.7456 27.4119 43.6237 27.7063C43.5017 28.0006 43.323 28.2681 43.0977 28.4934L43.1155 28.4756Z" fill="#FF889D"/>
<path d="M50.3333 18.5556C55.2425 18.5556 59.2222 14.5759 59.2222 9.66672C59.2222 4.75752 55.2425 0.777832 50.3333 0.777832C45.4241 0.777832 41.4445 4.75752 41.4445 9.66672C41.4445 14.5759 45.4241 18.5556 50.3333 18.5556Z" fill="#FF889D"/>
</svg>
