<svg width="20" height="20" viewBox="0 0 20 20" fill="none" xmlns="http://www.w3.org/2000/svg">
<path d="M17.0433 2.85383C16.4332 2.22645 15.7367 1.68974 14.9749 1.26001C14.1199 0.808925 12.5816 0.0537789 10.3974 0.00282321C9.78573 -0.0113775 9.18322 0.0278834 8.58572 0.123112C7.98571 0.218341 7.42071 0.367031 6.8207 0.590902C5.9732 0.905824 5.15735 1.40536 4.67568 1.88902C5.16152 1.59749 5.90569 1.27671 6.8007 1.06036C7.81886 0.820397 8.87275 0.773086 9.90823 0.920861C11.8591 1.20488 13.3899 2.07446 14.4749 3.11363C14.8903 3.5076 15.2538 3.95309 15.5566 4.43931C16.78 6.42908 16.665 8.93009 15.7099 10.4053C15.0016 11.5013 13.4849 12.5304 12.0682 12.5187C11.5824 12.4995 10.8699 12.3917 10.1932 12.0459C8.00238 10.924 7.67571 8.12983 9.26156 6.77826C8.73489 6.66465 7.74488 6.88685 7.05654 7.91682C6.4382 8.84154 6.4732 10.2691 6.85487 11.2816C6.61077 10.7824 6.44493 10.2485 6.3632 9.6986C6.20409 8.61585 6.32342 7.51031 6.70987 6.48672C6.98225 5.75846 7.3762 5.08194 7.87488 4.48609C8.62155 3.59311 9.46489 3.0493 10.1666 2.81123C9.71656 2.41779 8.99072 2.19475 8.14905 2.17053C6.92487 2.13377 5.27236 2.53306 3.91651 3.65994C3.24317 4.21952 2.68403 4.90424 2.26983 5.67644C1.89066 6.37479 1.69399 7.06227 1.68899 7.07814C1.79066 5.87108 2.27566 4.57714 2.729 3.69084C2.07066 4.03584 1.20649 5.08419 0.72065 6.23194C0.0789775 7.80322 -0.166858 9.67271 0.116478 11.6616C0.921485 16.3963 5.03319 20 9.98573 20C15.5166 20 20 15.5059 20 9.9634C20.0024 8.64098 19.7422 7.33131 19.2346 6.1107C18.727 4.89009 17.9821 3.78296 17.0433 2.85383Z" fill="url(#paint0_linear_511_2816)"/>
<defs>
<linearGradient id="paint0_linear_511_2816" x1="0.40661" y1="0.576661" x2="13.9737" y2="16.6448" gradientUnits="userSpaceOnUse">
<stop stop-color="#F1FFFC"/>
<stop offset="0.515625" stop-color="#F1F1FF"/>
<stop offset="1" stop-color="#E6F6FF"/>
</linearGradient>
</defs>
</svg>
