<svg width="221" height="50" viewBox="0 0 221 50" fill="none" xmlns="http://www.w3.org/2000/svg">
<path fill-rule="evenodd" clip-rule="evenodd" d="M63.6608 43.7151C63.422 43.4364 63.1035 43.2971 62.7054 43.2971H46.8217V35.8927H58.1672C58.5653 35.8927 58.8838 35.7732 59.1226 35.5344C59.3615 35.2557 59.4809 34.9373 59.4809 34.579V31.0559C59.4809 30.6976 59.3615 30.3991 59.1226 30.1602C58.8838 29.8816 58.5653 29.7422 58.1672 29.7422H46.8217V22.2781H62.7054C63.1035 22.2781 63.422 22.1587 63.6608 21.9198C63.8997 21.6412 64.0191 21.3227 64.0191 20.9644V17.1428C64.0191 16.7845 63.8997 16.4859 63.6608 16.2471C63.422 15.9684 63.1035 15.8291 62.7054 15.8291H41.3281C40.9699 15.8291 40.6514 15.9684 40.3727 16.2471C40.0941 16.4859 39.9547 16.8044 39.9547 17.2025V48.3727C39.9547 48.7708 40.0941 49.1092 40.3727 49.3878C40.6514 49.6267 40.9699 49.7461 41.3281 49.7461H62.7054C63.1035 49.7461 63.422 49.6267 63.6608 49.3878C63.8997 49.1092 64.0191 48.7907 64.0191 48.4324V44.6108C64.0191 44.2525 63.8997 43.9539 63.6608 43.7151ZM97.1383 49.5904C97.4025 49.31 97.5346 48.9696 97.5346 48.5691V17.2108C97.5346 16.8103 97.4025 16.4899 97.1383 16.2496C96.8741 15.9693 96.5721 15.8291 96.2324 15.8291H92.3257C91.986 15.8291 91.6841 15.9693 91.4199 16.2496C91.1556 16.4899 91.0235 16.8103 91.0235 17.2108V37.3955L78.7374 16.7903C78.6242 16.55 78.4544 16.3297 78.2279 16.1295C78.0392 15.9292 77.7938 15.8291 77.4919 15.8291H73.2455C72.9058 15.8291 72.6038 15.9693 72.3396 16.2496C72.0754 16.4899 71.9433 16.8103 71.9433 17.2108V48.5691C71.9433 48.9696 72.0754 49.31 72.3396 49.5904C72.6038 49.8307 72.9058 49.9508 73.2455 49.9508H77.1521C77.4919 49.9508 77.7938 49.8307 78.058 49.5904C78.3223 49.31 78.4544 48.9696 78.4544 48.5691V28.3244L90.514 48.5691C90.7027 48.8895 90.9858 49.2099 91.3632 49.5303C91.7407 49.8107 92.0993 49.9508 92.439 49.9508H96.2324C96.5721 49.9508 96.8741 49.8307 97.1383 49.5904ZM112.932 48.3727C112.932 48.7708 112.793 49.1092 112.514 49.3878C112.236 49.6267 111.917 49.7461 111.559 49.7461H107.439C107.081 49.7461 106.762 49.6267 106.483 49.3878C106.205 49.1092 106.065 48.7708 106.065 48.3727V17.2025C106.065 16.8044 106.205 16.4859 106.483 16.2471C106.762 15.9684 107.081 15.8291 107.439 15.8291H111.559C111.917 15.8291 112.236 15.9684 112.514 16.2471C112.793 16.4859 112.932 16.8044 112.932 17.2025V48.3727ZM126.109 45.8775C128.097 48.593 131.368 49.9508 135.922 49.9508C140.477 49.9508 143.748 48.593 145.736 45.8775C147.724 43.1619 148.718 39.364 148.718 34.4839V17.1869C148.718 16.7933 148.591 16.4785 148.338 16.2423C148.085 15.9668 147.796 15.8291 147.471 15.8291H143.73C143.404 15.8291 143.115 15.9668 142.862 16.2423C142.609 16.4785 142.483 16.7933 142.483 17.1869V34.0706C142.483 35.6055 142.392 36.983 142.212 38.203C142.067 39.4231 141.76 40.466 141.29 41.3318C140.82 42.1583 140.151 42.8077 139.284 43.28C138.452 43.7522 137.332 43.9884 135.922 43.9884C134.512 43.9884 133.374 43.7522 132.506 43.28C131.675 42.8077 131.024 42.1583 130.554 41.3318C130.085 40.466 129.759 39.4231 129.579 38.203C129.434 36.983 129.362 35.6055 129.362 34.0706V17.1869C129.362 16.7933 129.235 16.4785 128.982 16.2423C128.729 15.9668 128.44 15.8291 128.115 15.8291H124.374C124.048 15.8291 123.759 15.9668 123.506 16.2423C123.253 16.4785 123.126 16.7933 123.126 17.1869V34.4839C123.126 39.364 124.12 43.1619 126.109 45.8775ZM19.6385 15.9567L19.6003 16.16C20.3063 16.6334 20.7104 17.49 20.5641 18.3836L20.2697 20.181C20.1147 21.1272 19.3879 21.8372 18.5003 22.0156L18.4737 22.1571C18.1415 22.129 17.7966 22.115 17.439 22.115C15.8952 22.115 14.4774 22.3985 13.1856 22.9657C11.9253 23.5328 10.8383 24.3047 9.92463 25.2814C9.01093 26.2266 8.30203 27.3608 7.79792 28.6841C7.29381 29.9759 7.04176 31.378 7.04176 32.8903C7.04176 34.4026 7.29381 35.8204 7.79792 37.1437C8.33354 38.4355 9.07394 39.5697 10.0191 40.5464C10.9643 41.4916 12.0828 42.2478 13.3746 42.8149C14.6664 43.382 16.0842 43.6656 17.628 43.6656C18.7308 43.6656 19.7705 43.5238 20.7472 43.2402C21.7554 42.9252 22.6691 42.4683 23.4883 41.8697C24.3075 41.2711 25.0006 40.5464 25.5677 39.6957C26.1664 38.845 26.5759 37.8683 26.7965 36.7656H26.1676V36.7942H22.6979C21.2097 36.7942 20.0032 35.5878 20.0032 34.0995V33.5506C20.0032 32.0623 21.2097 30.8559 22.6979 30.8559H26.1676V30.8581H32.0424C32.6095 30.8581 33.0978 31.0629 33.5074 31.4725C33.917 31.8821 34.1218 32.3704 34.1218 32.9375C34.1218 35.332 33.7122 37.569 32.893 39.6485C32.0739 41.6964 30.9239 43.4923 29.4431 45.0361C27.9937 46.5485 26.2451 47.7457 24.1972 48.6279C22.1808 49.5101 19.9595 49.9512 17.5335 49.9512C15.139 49.9512 12.8705 49.5258 10.728 48.6752C8.6171 47.793 6.7582 46.5957 5.15135 45.0834C3.57602 43.5396 2.31575 41.7279 1.37054 39.6485C0.456848 37.569 0 35.3163 0 32.8903C0 30.4643 0.456848 28.2115 1.37054 26.1321C2.28424 24.0526 3.52876 22.2567 5.10409 20.7444C6.71094 19.2006 8.56984 18.0033 10.6808 17.1527C12.7917 16.2705 15.0445 15.8294 17.439 15.8294C18.1773 15.8294 18.9105 15.8718 19.6385 15.9567ZM171.392 38.3542C170.964 37.779 170.195 37.2038 169.062 36.6516L161.601 33.0852C159.464 32.0499 158.518 30.9413 157.744 29.5861C156.969 28.2308 156.514 26.5281 156.514 24.4113C156.514 21.6733 157.497 19.5565 159.442 18.0609C161.387 16.5654 164.059 15.8291 167.437 15.8291C170.75 15.8291 174.769 16.7952 178.04 18.7509C178.852 19.2341 179.023 19.9243 178.574 20.8217L177.42 23.0765C176.971 23.9508 176.33 24.1349 175.496 23.6287C172.845 22.0411 169.66 21.2361 167.373 21.2131C166.069 21.2131 165.021 21.4892 164.252 22.0414C163.482 22.5936 163.098 23.4219 163.098 24.5263C163.098 25.3777 163.354 26.1139 163.846 26.7352C164.337 27.3564 165.15 27.9546 166.261 28.5068L172.674 32.0268C174.812 33.0622 176.33 34.2357 177.227 35.5702C178.125 36.9047 178.574 38.6533 178.574 40.7931C178.574 43.6692 177.569 45.924 175.581 47.5346C173.593 49.1452 170.75 49.9505 167.052 49.9505C163.055 49.9505 159.335 48.8461 155.872 46.6603C155.081 46.1541 154.91 45.4639 155.359 44.5895L156.514 42.3117C156.962 41.4143 157.604 41.2303 158.437 41.7365C161.537 43.6232 164.38 44.5665 166.988 44.5665C168.549 44.5665 169.788 44.2214 170.686 43.5541C171.584 42.8869 172.033 41.9205 172.033 40.6781C172.033 39.7117 171.819 38.9294 171.392 38.3542Z" fill="white"/>
<path d="M204.999 4.92073L201.914 1.13282C201.331 0.416063 200.456 4.8304e-05 199.531 4.8304e-05H194.16C193.124 4.8304e-05 192.553 1.20251 193.207 2.00571L200.29 10.704L204.999 4.92073Z" fill="url(#paint0_linear_397_2652)"/>
<path d="M208.17 20.3812L211.253 24.1681C211.837 24.8849 212.712 25.3009 213.637 25.3009H219.008C220.044 25.3009 220.615 24.0984 219.961 23.2952L212.879 14.598L208.17 20.3812Z" fill="url(#paint1_linear_397_2652)"/>
<path d="M211.254 1.13278C211.838 0.416015 212.713 0 213.638 0H219.009C220.045 0 220.616 1.20246 219.962 2.00566L201.915 24.1681C201.332 24.8848 200.457 25.3008 199.532 25.3008H194.161C193.125 25.3008 192.554 24.0984 193.208 23.2952L211.254 1.13278Z" fill="url(#paint2_linear_397_2652)"/>
<defs>
<linearGradient id="paint0_linear_397_2652" x1="192.928" y1="0.97812" x2="221.976" y2="27.9793" gradientUnits="userSpaceOnUse">
<stop stop-color="#FFB35A"/>
<stop offset="1" stop-color="#FF145B"/>
</linearGradient>
<linearGradient id="paint1_linear_397_2652" x1="192.928" y1="0.97812" x2="221.976" y2="27.9793" gradientUnits="userSpaceOnUse">
<stop stop-color="#FFB35A"/>
<stop offset="1" stop-color="#FF145B"/>
</linearGradient>
<linearGradient id="paint2_linear_397_2652" x1="192.928" y1="0.97812" x2="221.976" y2="27.9793" gradientUnits="userSpaceOnUse">
<stop stop-color="#FFB35A"/>
<stop offset="1" stop-color="#FF145B"/>
</linearGradient>
</defs>
</svg>
