<svg width="66" height="62" viewBox="0 0 66 62" fill="none" xmlns="http://www.w3.org/2000/svg">
<path d="M33.9307 20.6772V19.5173C33.9307 18.6028 33.1897 17.8618 32.2752 17.8618C31.3607 17.8618 30.6197 18.6028 30.6197 19.5173V20.7167C27.6736 21.4897 25.4918 24.2019 25.4918 27.4199C25.4918 30.6371 27.6738 33.3484 30.6197 34.1209V41.0802C29.184 40.3531 27.8221 39.0044 27.3312 38.4246C26.7427 37.7248 25.6987 37.6343 24.9987 38.223C24.299 38.8113 24.2087 39.8556 24.7972 40.5555C25.1117 40.9294 27.5709 43.7608 30.6199 44.6256V45.8542C30.6199 46.7687 31.3609 47.5097 32.2754 47.5097C33.1899 47.5097 33.9309 46.7687 33.9309 45.8542V44.6852C36.9415 43.9572 39.187 41.216 39.187 37.9531C39.187 34.6906 36.9415 31.9498 33.9309 31.2218V24.1284C35.4266 24.6884 36.7817 25.8351 37.2918 26.3622C37.9239 27.0217 38.9704 27.044 39.6307 26.4129C40.2913 25.781 40.3149 24.7332 39.683 24.0721C39.3828 23.7586 37.0046 21.3588 33.9307 20.6772ZM28.8026 27.4199C28.8026 26.0648 29.537 24.8833 30.6195 24.2648V30.5731C29.537 29.955 28.8026 28.7739 28.8026 27.4199ZM35.8755 37.9533C35.8755 39.3596 35.0825 40.5778 33.9304 41.1742V34.7332C35.0827 35.3292 35.8755 36.547 35.8755 37.9533Z" fill="#89EAB0"/>
<path d="M58.8516 43.5394C57.0619 43.5394 55.4249 44.2022 54.1694 45.2931L49.4417 42.1415C50.993 39.336 51.8777 36.1126 51.8777 32.6859C51.8777 28.5794 50.6076 24.7647 48.4411 21.6116L51.6307 19.0594C52.7465 19.7801 54.0736 20.2004 55.498 20.2004C59.4396 20.2004 62.6464 16.9936 62.6464 13.0518C62.6464 9.10991 59.4398 5.90288 55.498 5.90288C51.5561 5.90288 48.3491 9.10969 48.3491 13.0518C48.3491 14.3671 48.7078 15.5999 49.33 16.6599L46.3435 19.0495C42.7785 15.3719 37.7895 13.0822 32.2751 13.0822C27.4627 13.0822 23.0509 14.8262 19.6355 17.7143L13.291 11.4276C13.9291 10.3582 14.2971 9.10969 14.2971 7.77646C14.2971 3.83461 11.0905 0.627808 7.14887 0.627808C3.20681 0.627808 0 3.83461 0 7.77646C0 11.7181 3.20681 14.9251 7.14887 14.9251C8.5598 14.9251 9.87581 14.5123 10.985 13.8038L17.2953 20.0567C14.4125 23.4708 12.6723 27.8788 12.6723 32.6862C12.6723 36.8596 13.9839 40.7317 16.2157 43.9142L10.2279 48.9041C9.51049 48.5352 8.69842 48.3255 7.838 48.3255C4.94552 48.3255 2.59251 50.6785 2.59251 53.5708C2.59251 56.4631 4.94552 58.8161 7.838 58.8161C10.73 58.8161 13.0828 56.4631 13.0828 53.5708C13.0828 52.7483 12.8921 51.9698 12.5535 51.2763L18.3374 46.4561C21.8934 50.0554 26.8283 52.2894 32.2753 52.2894C34.8369 52.2894 37.2846 51.795 39.5297 50.8973L41.0051 53.8476C40.2012 54.6455 39.7023 55.7503 39.7023 56.9696C39.7023 59.397 41.677 61.3719 44.1042 61.3719C46.5316 61.3719 48.5063 59.397 48.5063 56.9696C48.5063 54.5425 46.5316 52.5678 44.1042 52.5678C44.0918 52.5678 44.0801 52.5696 44.068 52.5696L42.4891 49.412C44.4454 48.2127 46.1758 46.68 47.6015 44.8933L52.2364 47.9832C51.8938 48.8182 51.7036 49.7312 51.7036 50.688C51.7036 54.6297 54.9102 57.8365 58.852 57.8365C62.7939 57.8365 66.0004 54.6299 66.0004 50.688C66 46.7462 62.7934 43.5394 58.8516 43.5394ZM55.498 9.2141C57.6139 9.2141 59.3354 10.9358 59.3354 13.052C59.3354 15.1681 57.6139 16.8896 55.498 16.8896C53.3818 16.8896 51.6601 15.1681 51.6601 13.052C51.6601 10.9358 53.3818 9.2141 55.498 9.2141ZM7.83778 55.5049C6.7712 55.5049 5.90328 54.6372 5.90328 53.5706C5.90328 52.504 6.7712 51.6363 7.83778 51.6363C8.90414 51.6363 9.77162 52.504 9.77162 53.5706C9.77162 54.6372 8.90414 55.5049 7.83778 55.5049ZM45.195 56.9699C45.195 57.5718 44.7055 58.0612 44.104 58.0612C43.5025 58.0612 43.0131 57.5716 43.0131 56.9699C43.0131 56.3681 43.5025 55.879 44.104 55.879C44.7055 55.879 45.195 56.3681 45.195 56.9699ZM7.14887 11.6139C5.03271 11.6139 3.31099 9.89241 3.31099 7.77646C3.31099 5.6603 5.03271 3.9388 7.14887 3.9388C9.2646 3.9388 10.9861 5.6603 10.9861 7.77646C10.9861 9.89241 9.2646 11.6139 7.14887 11.6139ZM32.2751 48.9785C23.2917 48.9785 15.983 41.6698 15.983 32.6859C15.983 23.7021 23.2915 16.3932 32.2751 16.3932C41.2583 16.3932 48.567 23.7019 48.567 32.6859C48.5667 41.6695 41.2583 48.9785 32.2751 48.9785ZM58.8516 54.5257C56.7356 54.5257 55.0141 52.8042 55.0141 50.6883C55.0141 48.5721 56.7356 46.8504 58.8516 46.8504C60.9675 46.8504 62.689 48.5721 62.689 50.6883C62.689 52.8042 60.9675 54.5257 58.8516 54.5257Z" fill="#89EAB0"/>
</svg>
