<svg width="97" height="54" viewBox="0 0 97 54" fill="none" xmlns="http://www.w3.org/2000/svg">
<path fill-rule="evenodd" clip-rule="evenodd" d="M60.0764 27.7502C60.4376 27.7481 60.7896 27.7346 61.1322 27.7098C61.7933 27.662 62.4199 27.5718 63.0119 27.4395C63.1016 27.4195 63.1904 27.3984 63.2785 27.3765C63.3656 27.3547 63.452 27.332 63.5376 27.3084C63.8595 27.2194 64.1705 27.1171 64.4705 27.0013L65.39 22.7441C64.6408 22.9712 63.9369 23.0847 63.2785 23.0847C63.166 23.0847 63.0584 23.082 62.9557 23.0767C62.5403 23.055 62.2051 22.9896 61.9502 22.8804C61.9309 22.87 61.9123 22.859 61.8942 22.8473C61.8443 22.8151 61.7993 22.778 61.759 22.7361C61.5913 22.5615 61.5075 22.3031 61.5075 21.9608C61.5075 21.9428 61.5078 21.9244 61.5083 21.9057C61.5138 21.7121 61.5476 21.4807 61.6097 21.2116L62.7336 16.0009H66.2074L67.4334 11.2669H63.7212L64.7429 6.43083L58.0337 7.9634L57.3185 11.2669L56.3309 16.0009L55.1048 21.6884C54.9696 22.2971 54.9014 22.861 54.9005 23.3802C54.9005 23.3839 54.9005 23.3876 54.9005 23.3912C54.9005 24.4873 55.1797 25.3922 55.7382 26.1061C55.8739 26.2796 56.026 26.4417 56.1946 26.5926C56.2031 26.6001 56.2116 26.6077 56.2201 26.6151C56.4193 26.7901 56.6394 26.9449 56.8804 27.0794C57.5217 27.4375 58.3106 27.6523 59.247 27.7238C59.4805 27.7416 59.7231 27.7505 59.9749 27.7505C60.0089 27.7505 60.0427 27.7504 60.0764 27.7502ZM59.1384 32.5873C58.2051 32.1897 57.0901 31.9483 55.7934 31.8631C55.7393 31.8596 55.6849 31.8563 55.6301 31.8533C55.3274 31.8366 55.0149 31.8283 54.6927 31.8283C54.3556 31.8283 54.0264 31.8359 53.7051 31.8511C52.2533 31.92 50.9618 32.1442 49.8306 32.5239C48.7904 32.873 47.8857 33.3536 47.1166 33.9657C47.099 33.9797 47.0814 33.9938 47.0639 34.0079C46.314 34.606 45.6692 35.3172 45.1296 36.1415C44.904 36.4862 44.6967 36.8507 44.5079 37.2349C44.4865 37.2785 44.4653 37.3223 44.4444 37.3663C44.2659 37.7419 44.1047 38.1361 43.9606 38.5486C43.9561 38.5613 43.9517 38.5739 43.9473 38.5866C43.7669 39.1085 43.6138 39.6597 43.4879 40.2404C43.3971 40.6264 43.329 41.001 43.2836 41.3643C43.2609 41.7275 43.2495 42.0795 43.2495 42.42C43.2495 44.4632 43.9419 46.0183 45.3265 47.0854L45.327 47.0858C46.4954 47.9669 48.0516 48.4763 49.9955 48.6142C50.3559 48.6397 50.7297 48.6525 51.1167 48.6525C51.4534 48.6525 51.7826 48.6448 52.1044 48.6294C53.6074 48.5576 54.9479 48.3179 56.126 47.9105C57.1281 47.564 58.0126 47.0961 58.7796 46.5069C59.2911 46.1139 59.7538 45.6712 60.1676 45.1788C61.26 43.879 62.012 42.2328 62.4237 40.2404C62.5145 39.8544 62.5712 39.4911 62.594 39.1506C62.6394 38.7873 62.6621 38.4354 62.6621 38.0948C62.6621 36.1422 61.9923 34.6096 60.6527 33.4971C60.314 33.2158 59.934 32.9701 59.5126 32.7599C59.3913 32.6994 59.2665 32.6419 59.1384 32.5873ZM54.9971 36.6922C54.9028 36.6554 54.8014 36.6237 54.6927 36.5972C54.4116 36.5285 54.0824 36.4941 53.7051 36.4941C52.9357 36.4941 52.2886 36.6679 51.7639 37.0155C51.5918 37.1295 51.4328 37.2622 51.287 37.4136C50.7194 38.004 50.2994 38.9462 50.0269 40.2404C49.8907 40.9215 49.8226 41.5005 49.8226 41.9773C49.8226 42.6811 49.9928 43.192 50.3334 43.5099C50.4622 43.6226 50.6196 43.7153 50.8056 43.7881C50.9017 43.8257 51.0054 43.8579 51.1167 43.8848C51.3975 43.9527 51.7267 43.9867 52.1044 43.9867C52.9266 43.9867 53.6081 43.8037 54.1489 43.4378C54.2951 43.339 54.4309 43.2268 54.5565 43.1012C55.1695 42.5109 55.6123 41.5573 55.8847 40.2404C56.0209 39.6274 56.0891 39.0824 56.0891 38.6056C56.0891 37.8791 55.8961 37.3455 55.5101 37.005C55.373 36.8765 55.202 36.7722 54.9971 36.6922ZM52.7141 40.9591C53.0233 41.1527 53.2945 41.251 53.4628 41.2986C53.574 41.3301 53.6573 41.3446 53.7051 41.3511C53.7114 41.3519 53.7172 41.3526 53.7223 41.3532C53.7686 41.349 53.8907 41.3322 54.0619 41.2671C54.1492 41.2339 54.2367 41.1928 54.3222 41.1446L52.8335 40.8312L52.7141 40.9591ZM52.7015 40.8035L52.6193 40.8974C52.5496 40.8504 52.4783 40.7985 52.4063 40.7413L52.7015 40.8035ZM52.8567 40.8063L54.3798 41.111C54.4034 41.0966 54.4267 41.0818 54.4499 41.0664C54.3029 40.7392 54.0678 40.3623 53.7051 40.0092C53.687 39.9916 53.6686 39.974 53.6498 39.9565L52.8567 40.8063ZM52.7225 40.7795L52.365 40.708C52.3416 40.6889 52.3182 40.6692 52.2948 40.649C52.2761 40.6329 52.2575 40.6164 52.2388 40.5996C52.221 40.5832 52.2035 40.5668 52.1863 40.5504C52.1582 40.5235 52.1309 40.4965 52.1044 40.4694C51.7504 40.1081 51.5394 39.7361 51.4136 39.4201C51.4549 39.3917 51.4965 39.3654 51.538 39.3411C51.5667 39.3243 51.5953 39.3084 51.6238 39.2935C51.7009 39.2533 51.7769 39.2201 51.8499 39.1937C51.9674 39.1513 52.0531 39.135 52.0955 39.129C52.0983 39.1294 52.1013 39.1298 52.1044 39.1302C52.1479 39.1364 52.2189 39.149 52.3122 39.1741C52.4832 39.2201 52.7834 39.3236 53.1282 39.5456C53.1573 39.5644 53.1867 39.584 53.2164 39.6045C53.2454 39.6244 53.2745 39.6452 53.3039 39.6669C53.3278 39.6844 53.3517 39.7026 53.3758 39.7213C53.4281 39.762 53.481 39.8055 53.5341 39.852L52.7225 40.7795ZM52.055 39.1249C52.055 39.1249 52.0578 39.125 52.0628 39.1254C52.0575 39.1251 52.055 39.1249 52.055 39.1249ZM53.751 41.3558C53.751 41.3558 53.748 41.3557 53.7423 41.3553C53.7482 41.3555 53.751 41.3558 53.751 41.3558ZM65.2001 48.3119H71.1941L75.1788 40.9896L76.0984 48.3119H81.6497L89.3125 32.1689H83.1141L79.5722 40.1723L79.0273 32.1689H74.3274L73.8506 34.4847L70.7514 40.1723L70.5471 32.1689H64.3487L65.2001 48.3119ZM69.9352 27.3084C70.0667 27.3542 70.2015 27.3965 70.3395 27.4352C70.4079 27.4544 70.4771 27.4727 70.5471 27.4901C71.2442 27.6637 72.0211 27.7505 72.8778 27.7505C73.0346 27.7505 73.189 27.7476 73.341 27.7417C73.37 27.7406 73.3989 27.7393 73.4277 27.738C73.738 27.7236 74.0379 27.6968 74.3274 27.6575C74.455 27.6402 74.5806 27.6205 74.7041 27.5984C74.9044 27.5626 75.0995 27.5204 75.2892 27.4718C75.4306 27.4357 75.569 27.396 75.7045 27.3528C75.7159 27.3492 75.7272 27.3455 75.7386 27.3419C75.7699 27.3308 75.8012 27.3197 75.8325 27.3084C76.4157 27.0973 76.9769 26.8366 77.5161 26.5262C77.7214 26.4079 77.9236 26.2825 78.1226 26.1499L78.1907 27.41H83.742L87.1477 11.2669H80.7449L80.5747 12.0502C80.2114 11.7324 79.7119 11.4713 79.0761 11.2669C78.605 11.0986 78.0714 10.9927 77.4755 10.9492C77.2674 10.934 77.0517 10.9264 76.8284 10.9264C76.492 10.9264 76.1604 10.9436 75.8337 10.9781C75.4418 11.0195 75.0568 11.0857 74.6789 11.1767C73.9259 11.358 73.2007 11.6379 72.5031 12.0162C72.4073 12.0682 72.3125 12.1218 72.2186 12.177C72.092 12.2515 71.9673 12.3289 71.8443 12.4093C70.7837 13.1027 69.8568 14.016 69.0634 15.1494C68.7558 15.5815 68.4766 16.0396 68.2257 16.5236C68.1689 16.6332 68.1135 16.7441 68.0596 16.8564C67.6135 17.7855 67.267 18.8058 67.02 19.9174C66.9547 20.2438 66.9011 20.5584 66.8593 20.8614C66.843 20.9799 66.8284 21.0966 66.8156 21.2116C66.7702 21.6203 66.7475 22.0176 66.7475 22.4036C66.7475 22.6235 66.7551 22.8364 66.7703 23.0423C66.8838 24.5802 67.4211 25.7295 68.3822 26.4904C68.6975 26.7285 69.0438 26.9328 69.421 27.1034C69.5864 27.1782 69.7578 27.2465 69.9352 27.3084ZM74.3117 22.9423C74.6637 23.06 75.1279 23.1188 75.7045 23.1188C75.8342 23.1188 75.963 23.1134 76.0911 23.1027C76.4566 23.0722 76.8159 22.9981 77.169 22.8804C77.6458 22.6987 78.0658 22.449 78.4291 22.1311L79.6551 16.4095C79.1947 15.8863 78.5414 15.6043 77.6952 15.5633C77.6452 15.5609 77.5947 15.5593 77.5434 15.5586C77.5307 15.5584 77.518 15.5583 77.5052 15.5582C77.4953 15.5581 77.4854 15.5581 77.4755 15.5581C77.2511 15.5581 77.0354 15.577 76.8284 15.6148C76.689 15.6402 76.5536 15.6742 76.422 15.7167C76.3081 15.7536 76.1971 15.7968 76.089 15.8465C75.4435 16.1433 74.9028 16.6692 74.4668 17.4242C74.083 18.089 73.7803 18.9314 73.5589 19.9515C73.4227 20.5191 73.3546 21.0072 73.3546 21.4159C73.3546 22.0517 73.5362 22.4944 73.8995 22.7441C73.9223 22.7598 73.946 22.775 73.9707 22.7897C74.0328 22.8267 74.1009 22.8605 74.1749 22.8913C74.2184 22.9094 74.264 22.9264 74.3117 22.9423ZM76.7309 20.1904L76.134 19.5082L76.8465 18.8811C77.0909 19.073 77.2999 19.2859 77.4755 19.5082C77.6853 19.7738 77.8473 20.0529 77.9647 20.3255C77.7517 20.401 77.5752 20.4186 77.4755 20.4186C77.4742 20.4186 77.4254 20.4186 77.3385 20.4039C77.2505 20.3891 77.1221 20.3589 76.9671 20.2983C76.8886 20.2677 76.8095 20.2316 76.7309 20.1904ZM73.7119 6.41128C74.7249 6.18108 75.7661 6.06585 76.8284 6.06585C77.7928 6.06585 78.7884 6.16087 79.7727 6.40642H93.1406L88.7309 27.3084H97L84.7228 53.1724H69.2028H66.2212H60.5892L60.4861 51.2169C57.7424 52.8708 54.4999 53.513 51.1167 53.513C48.7494 53.513 46.3777 53.135 44.2651 52.1061L44.035 53.1944H16.4107L16.419 53.1556C15.0081 53.4166 13.538 53.513 12.0807 53.513C10.4736 53.513 8.92282 53.3957 7.44159 53.1418C6.10466 52.9302 4.7133 52.6049 3.49495 52.0393L0 50.4166L2.62549 37.758C2.63327 37.4522 2.65625 37.1476 2.6941 36.8448C2.73713 36.5006 2.79745 36.1642 2.86904 35.8389C3.1457 34.5434 3.62973 33.3529 4.3072 32.2925H0.758609L6.07195 7.19091L23.1035 3.30606L22.4995 6.11665C23.572 6.18589 24.7784 6.39824 25.9237 6.94187C26.0592 6.89417 26.1953 6.84804 26.3322 6.80347C27.8863 6.29749 29.5213 6.08788 31.1745 6.08788C33.2695 6.08788 35.8888 6.52541 37.8979 8.44993C37.9462 8.49564 37.9937 8.54171 38.0405 8.58812C40.6574 6.7847 43.7944 6.06585 47.0597 6.06585C49.1602 6.06585 51.2807 6.43039 53.1857 7.38562L53.9374 3.9134L71.0694 0L69.7159 6.40642H73.7132L73.7119 6.41128ZM52.1067 12.4494C52.024 12.3805 51.9393 12.3139 51.8524 12.2496C51.6719 12.1162 51.4821 11.9928 51.2831 11.8796C50.1665 11.2441 48.7587 10.9264 47.0597 10.9264C46.8405 10.9264 46.6248 10.9304 46.4126 10.9386C44.3126 11.019 42.5522 11.4976 41.1314 12.3744C41.1011 12.393 41.0711 12.4119 41.0411 12.4309C40.7885 12.5914 40.5469 12.7648 40.3162 12.951C40.1999 13.0448 40.0865 13.1419 39.9758 13.2422C39.6066 13.5721 39.2645 13.9265 38.9497 14.3055C38.7906 14.4971 38.6384 14.6949 38.4932 14.899C38.2447 15.2483 38.0166 15.616 37.8088 16.002C37.7839 16.0482 37.7593 16.0948 37.735 16.1415C37.6932 16.222 37.6523 16.3032 37.6123 16.3851C37.4646 16.6874 37.3286 17.0003 37.2044 17.3237C37.1992 17.3371 37.1941 17.3505 37.189 17.3639C37.1673 17.4212 37.1459 17.4788 37.1248 17.5368C36.9147 18.1157 36.7411 18.7276 36.6042 19.3725C36.5134 19.7358 36.4452 20.0991 36.3998 20.4623C36.3771 20.8256 36.3658 21.1662 36.3658 21.484C36.3658 23.4961 37.0548 25.0344 38.4328 26.0991C38.4698 26.1277 38.5074 26.156 38.5454 26.1839C39.1116 26.5846 39.7463 26.9084 40.4495 27.1554C40.5248 27.1818 40.6009 27.2074 40.6778 27.2321C40.7183 27.2451 40.7589 27.2578 40.7998 27.2703C41.8469 27.5905 43.0367 27.7505 44.3692 27.7505C45.239 27.7505 46.0564 27.7159 46.8213 27.6466C48.1138 27.5296 49.2565 27.3136 50.2493 26.9988C50.2713 26.9918 50.2933 26.9847 50.3153 26.9776C50.4291 26.9408 50.5409 26.9026 50.6507 26.8632C50.8571 26.789 51.0564 26.7101 51.2487 26.6267L52.0661 22.7782C51.5176 22.9741 50.8423 23.1531 50.0402 23.3152C49.9708 23.3292 49.9003 23.3431 49.829 23.3569C49.7693 23.3685 49.709 23.3799 49.648 23.3912C48.7269 23.5448 47.8163 23.6241 46.9164 23.6294C46.8847 23.6295 46.853 23.6296 46.8213 23.6296C45.8323 23.6296 45.0149 23.5758 44.3692 23.4681C43.829 23.378 43.409 23.2502 43.1091 23.0847C42.9361 22.9833 42.7851 22.8663 42.656 22.7335C42.6241 22.7008 42.5935 22.667 42.5643 22.6323C42.2616 22.2728 42.1026 21.8105 42.0874 21.2456H53.2921L53.9051 18.4189C53.9733 18.1237 54.0187 17.8399 54.0414 17.5675C54.0606 17.3367 54.0717 17.1141 54.0746 16.8997C54.0752 16.8609 54.0754 16.8224 54.0754 16.7842C54.0754 16.3353 54.035 15.9089 53.9542 15.505C53.9531 15.4993 53.9519 15.4935 53.9507 15.4878C53.7146 14.3259 53.1432 13.3504 52.2363 12.5611C52.1937 12.5232 52.1505 12.486 52.1067 12.4494ZM48.5696 15.9734C48.5556 15.9412 48.5405 15.9097 48.5241 15.8789C48.441 15.7217 48.3275 15.5807 48.1836 15.4559C47.9384 15.2435 47.5638 15.1074 47.0597 15.0479C46.8636 15.0248 46.6479 15.0132 46.4126 15.0132C45.3156 15.0132 44.4946 15.245 43.9495 15.7085C43.9475 15.7102 43.9455 15.7119 43.9434 15.7137C43.9377 15.7186 43.9321 15.7235 43.9264 15.7284C43.7077 15.9107 43.5182 16.1296 43.3579 16.3851C43.2857 16.5004 43.2194 16.623 43.159 16.7531C43.1537 16.7646 43.1484 16.7762 43.1432 16.7878C43.1088 16.864 43.0765 16.9427 43.0461 17.0239C42.9603 17.2532 42.8905 17.5025 42.8366 17.7718H48.5241L48.6263 17.1929C48.649 17.0793 48.6604 16.9772 48.6604 16.8863C48.6831 16.7955 48.6944 16.7047 48.6944 16.6139C48.6944 16.5352 48.6898 16.4589 48.6805 16.3851C48.662 16.238 48.625 16.1008 48.5696 15.9734ZM33.1839 27.432L35.3976 16.9424C35.4885 16.5564 35.5452 16.1932 35.5679 15.8526C35.6133 15.512 35.636 15.1942 35.636 14.899C35.636 13.6505 35.2858 12.6867 34.5853 12.0074C34.5724 11.9948 34.5594 11.9824 34.5462 11.9701C33.8424 11.289 32.7185 10.9484 31.1745 10.9484C30.554 10.9484 29.9671 10.9876 29.4138 11.0661C29.2688 11.0867 29.1262 11.11 28.9859 11.1359C28.584 11.2102 28.201 11.3067 27.837 11.4252C27.711 11.4662 27.5861 11.5089 27.4623 11.5534C26.6274 11.8532 25.844 12.2305 25.1124 12.6853C24.9952 12.3922 24.8355 12.1354 24.6335 11.915C24.4939 11.7626 24.334 11.6275 24.1538 11.5098C24.0899 11.4681 24.0235 11.4285 23.9545 11.3911C23.4095 11.096 22.6149 10.9484 21.5705 10.9484C21.534 10.9484 21.4975 10.9486 21.4611 10.949C20.8973 10.955 20.3469 11.0076 19.8097 11.1068C19.3895 11.1844 18.9774 11.2905 18.5734 11.4252C18.3067 11.5098 18.0456 11.6018 17.7901 11.7012C17.6065 11.7727 17.4258 11.848 17.248 11.9272C16.8727 12.0943 16.5103 12.2785 16.1607 12.4799L16.7493 9.74079L10.1834 11.2384L6.75565 27.432H12.954L15.2018 16.8403C15.2199 16.8254 15.238 16.8106 15.2563 16.7959C15.2602 16.7927 15.2642 16.7895 15.2681 16.7864C15.274 16.7816 15.28 16.7769 15.2859 16.7721C15.6486 16.4833 16.0406 16.2335 16.4619 16.0229C16.916 15.7958 17.3587 15.6823 17.7901 15.6823C17.8668 15.6823 17.9401 15.685 18.0101 15.6905C18.6118 15.7373 18.9685 15.9851 19.0802 16.4339C19.1056 16.5362 19.1184 16.6489 19.1184 16.7721C19.1184 16.9992 19.0843 17.2716 19.0162 17.5895L18.4905 20.0801L16.9387 27.432H22.8646L24.7718 18.3388C24.8399 18.0209 24.8967 17.7371 24.9421 17.4873C24.989 17.2997 25.0251 17.1067 25.0505 16.9084C25.0518 16.8987 25.053 16.889 25.0542 16.8792C25.0549 16.8736 25.0555 16.8679 25.0562 16.8623C25.0651 16.7876 25.0725 16.7121 25.0783 16.6359C25.6559 16.1142 26.2946 15.8066 26.9945 15.713C27.1475 15.6925 27.3035 15.6823 27.4623 15.6823C28.1561 15.6823 28.6195 15.8627 28.8524 16.2234C28.9701 16.4056 29.029 16.634 29.029 16.9084C29.029 16.9187 29.0289 16.9292 29.0287 16.9398C29.0254 17.1393 28.9915 17.3899 28.9268 17.6917L26.8834 27.432L22.419 48.3339H28.8217L31.0695 37.7422C31.0886 37.7265 31.1078 37.7109 31.1272 37.6954C31.1318 37.6918 31.1363 37.6881 31.1409 37.6845C31.5111 37.3913 31.9414 37.138 32.4318 36.9248C32.9509 36.7085 33.4803 36.5953 34.02 36.585C34.0468 36.5845 34.0737 36.5843 34.1006 36.5843C34.7229 36.5843 35.1747 36.7105 35.4558 36.963C35.6876 37.171 35.8034 37.4648 35.8034 37.8444C35.8034 38.0714 35.7693 38.3439 35.7012 38.6617L33.6578 48.3339H40.0946L42.2402 38.1849C42.331 37.799 42.3878 37.4357 42.4105 37.0951C42.4559 36.7545 42.4786 36.4367 42.4786 36.1415C42.4786 34.8128 42.0966 33.7927 41.3326 33.0811C40.4647 32.2728 39.1038 31.8626 37.25 31.8506C37.222 31.8504 37.1939 31.8503 37.1657 31.8503C36.7418 31.8503 36.3243 31.8739 35.9133 31.9209C35.3776 31.9823 34.8528 32.0836 34.339 32.225C34.2585 32.2476 34.1791 32.2709 34.1006 32.2947C33.3142 32.533 32.6217 32.8276 32.0231 33.1785L33.1839 27.432ZM21.2309 42.4635C21.2383 42.3809 21.2421 42.2983 21.2421 42.2157C21.2421 41.3529 20.9469 40.6264 20.3566 40.036C20.2631 39.9351 20.1583 39.8367 20.0422 39.7407C19.8521 39.5837 19.6316 39.4333 19.3806 39.2895C19.1987 39.1852 19.0007 39.0843 18.7868 38.987C18.7157 38.9546 18.6429 38.9227 18.5683 38.8911C18.2161 38.742 17.8245 38.6015 17.3936 38.4694C17.2893 38.4347 17.1871 38.4008 17.0871 38.368C16.3807 38.1358 15.7805 37.9509 15.2864 37.8131C15.2841 37.8125 15.2818 37.8119 15.2795 37.8112C15.1607 37.7781 15.048 37.7478 14.9415 37.7202C14.3285 37.5612 14.056 37.3001 14.1241 36.9369C14.1315 36.9109 14.1405 36.8858 14.1511 36.8615C14.2703 36.5883 14.5905 36.4204 15.1118 36.3579C15.1738 36.3507 15.2365 36.344 15.3 36.3376C15.6961 36.2976 16.1216 36.2723 16.5762 36.2616C16.7426 36.2577 16.9129 36.2557 17.0871 36.2557C17.1601 36.2557 17.2338 36.2565 17.3081 36.2582C17.5507 36.2637 17.8007 36.278 18.058 36.3013C18.0768 36.303 18.0957 36.3047 18.1146 36.3065C18.3781 36.3316 18.6494 36.3659 18.9283 36.4094C18.9828 36.4179 19.0377 36.4268 19.0928 36.436C19.0972 36.4367 19.1016 36.4375 19.106 36.4382C19.1481 36.4453 19.1903 36.4526 19.2327 36.4601C19.4805 36.5038 19.7202 36.5557 19.9517 36.6158C20.2427 36.6914 20.5207 36.7799 20.7858 36.8814C20.9666 36.9506 21.1414 37.0259 21.3102 37.1071L22.2638 32.6116C21.9363 32.4982 21.532 32.3919 21.0508 32.2925C20.9956 32.2811 20.9395 32.2698 20.8823 32.2586C20.6113 32.2055 20.3176 32.1544 20.0012 32.1054C19.9169 32.0924 19.831 32.0795 19.7435 32.0667C19.692 32.059 19.6404 32.0515 19.5888 32.0442C18.8732 31.9427 18.1627 31.8769 17.4573 31.847C17.3337 31.8418 17.2103 31.8377 17.0871 31.8346C17.0544 31.8338 17.0216 31.8331 16.9889 31.8324C16.9722 31.8321 16.9554 31.8318 16.9387 31.8315C16.8177 31.8294 16.6969 31.8283 16.5762 31.8283C15.8731 31.8283 15.2139 31.8555 14.5986 31.9098C14.5918 31.9104 14.585 31.911 14.5782 31.9116C13.9976 31.9636 13.4562 32.0398 12.954 32.1402C12.7255 32.186 12.505 32.2367 12.2927 32.2925C12.1627 32.3266 12.0358 32.3627 11.9119 32.4006C11.2594 32.6003 10.6913 32.8523 10.2076 33.1565C8.82259 34.0193 7.95981 35.2567 7.61924 36.8687C7.57383 37.0731 7.53977 37.2661 7.51707 37.4477C7.49436 37.6293 7.48301 37.811 7.48301 37.9926C7.48301 38.0264 7.48342 38.06 7.48424 38.0933C7.50125 38.7877 7.6954 39.3867 8.0667 39.8904C8.15685 40.0127 8.25745 40.1293 8.36849 40.2404C8.71105 40.5698 9.14534 40.88 9.67138 41.1712C9.67477 41.173 9.67817 41.1749 9.68157 41.1768C9.84127 41.2649 10.0094 41.3513 10.1859 41.4359C10.4272 41.5515 10.6841 41.6639 10.9568 41.7729C11.2927 41.8944 11.6106 42.0069 11.9104 42.1104C12.5633 42.3357 13.131 42.5184 13.6133 42.6584C13.6189 42.66 13.6244 42.6617 13.6299 42.6633C14.322 42.8675 14.6229 43.161 14.5328 43.5439C14.5275 43.5704 14.5211 43.596 14.5136 43.6207C14.4248 43.9136 14.1814 44.081 13.7836 44.1229C13.6116 44.141 13.4089 44.1555 13.1755 44.1664C12.8649 44.1809 12.5 44.189 12.0807 44.1907C12.0249 44.1909 11.9682 44.191 11.9104 44.191C11.6933 44.191 11.4646 44.1829 11.2242 44.1668C10.8839 44.1439 10.5203 44.1048 10.1334 44.0496C10.106 44.0457 10.0785 44.0417 10.0509 44.0377C9.94414 44.0219 9.83559 44.005 9.72529 43.9868C9.53911 43.9562 9.34795 43.922 9.15181 43.8845C9.104 43.8751 9.05653 43.8656 9.00939 43.8559C8.9858 43.8511 8.9623 43.8462 8.93888 43.8413C8.41208 43.7304 7.92745 43.5984 7.485 43.4453C7.1276 43.3217 6.79771 43.1842 6.49536 43.0331L5.54176 47.6308C6.17749 47.9259 7.07433 48.1643 8.23227 48.346C8.24729 48.3486 8.26233 48.3511 8.27739 48.3537C8.2834 48.3547 8.2894 48.3558 8.29541 48.3568C8.87569 48.4551 9.4805 48.5289 10.1098 48.5782C10.175 48.5833 10.2405 48.5882 10.3062 48.5927C10.8246 48.6289 11.3593 48.6486 11.9104 48.652C11.967 48.6523 12.0238 48.6525 12.0807 48.6525C12.8583 48.6525 13.5814 48.6198 14.25 48.5543C15.2763 48.4539 16.174 48.2764 16.9434 48.0218C17.1611 47.9498 17.3685 47.8716 17.5656 47.7872C17.8106 47.6824 18.0396 47.568 18.2528 47.4441C18.3199 47.4051 18.3854 47.3651 18.4494 47.3242C19.8344 46.4161 20.7085 45.1446 21.0718 43.5099C21.1172 43.2601 21.1512 43.0331 21.1739 42.8287C21.201 42.707 21.22 42.5853 21.2309 42.4635Z" fill="url(#paint0_linear_225_214)"/>
<path fill-rule="evenodd" clip-rule="evenodd" d="M71.1789 9.57452C71.0045 9.66915 70.8329 9.76774 70.6641 9.87022L71.0218 8.48929H67.1467L68.358 2.75586L55.6929 5.6489L54.5517 10.929C54.3991 10.7734 54.2387 10.6221 54.0705 10.4753C52.1804 8.80103 49.7151 8.14872 47.0596 8.14872C43.5755 8.14872 40.474 9.04542 38.118 11.1774C37.9682 11.3114 37.8222 11.4483 37.68 11.5881C37.3809 10.9988 36.9805 10.4484 36.4614 9.95835C35.0111 8.56613 33.032 8.17075 31.1745 8.17075C29.6946 8.17075 28.2835 8.35864 26.9771 8.784C26.5608 8.91951 26.1531 9.07099 25.7541 9.23857C25.6014 9.13486 25.4424 9.03817 25.2773 8.94875C24.137 8.33109 22.7988 8.17075 21.5704 8.17075C21.0084 8.17075 20.4525 8.20701 19.9039 8.28022L20.3802 6.06359L7.83396 8.92536L3.32873 30.2092H9.85016C9.45935 30.3836 9.08655 30.5806 8.73377 30.8021C6.70722 32.0664 5.40176 33.9452 4.90478 36.2801C4.84448 36.5533 4.79539 36.8282 4.76104 37.103C4.68352 37.7232 4.50883 38.9344 4.50883 38.9344L2.375 49.2225L4.37211 50.1497C5.34172 50.5999 6.52154 50.8876 7.78018 51.0862C9.13287 51.3189 10.5689 51.4297 12.0807 51.4297C14.7744 51.4297 17.2484 51.0755 19.2046 50.0859L18.9856 51.1112H42.3462L42.8721 48.6234C43.1069 48.8552 43.36 49.0763 43.6318 49.2858L43.6432 49.2945L43.6547 49.3032C45.6886 50.837 48.2881 51.4297 51.1167 51.4297C54.7451 51.4297 57.9691 50.6318 60.4716 48.7091C61.1727 48.1705 61.7959 47.5672 62.3446 46.9053L62.5653 51.0891H72.8447H83.4057L93.7053 29.3912H86.1625L90.5722 8.48929H79.502C78.6445 8.24817 77.7425 8.14872 76.8284 8.14872C74.8283 8.14872 72.9306 8.62448 71.1789 9.57452ZM37.189 17.3637C37.1935 17.3517 37.1981 17.3398 37.2027 17.3279L37.1998 17.3354C37.1962 17.3448 37.1926 17.3543 37.189 17.3637ZM44.4444 37.3661C44.4653 37.3221 44.4865 37.2783 44.5078 37.2347C44.5002 37.2502 44.4927 37.2657 44.4851 37.2813C44.4714 37.3094 44.4579 37.3377 44.4444 37.3661ZM34.2314 39.3687C34.2311 39.3691 34.2227 39.3683 34.2073 39.3653C34.2241 39.3669 34.2318 39.3684 34.2314 39.3687ZM16.5797 38.2033C16.8348 38.2847 17.1061 38.3734 17.3936 38.4692C17.2893 38.4344 17.1871 38.4006 17.0871 38.3677C16.9114 38.31 16.7422 38.2552 16.5797 38.2033ZM19.5872 32.0438C19.6393 32.0512 19.6914 32.0587 19.7435 32.0665L19.5872 32.0438ZM17.8141 18.4606C17.8149 18.4605 17.8153 18.4605 17.8153 18.4605L17.8141 18.4606Z" fill="#06072B"/>
<path d="M56.1946 26.5924C57.0574 27.3644 58.3175 27.7504 59.9749 27.7504C61.6778 27.7504 63.1763 27.5006 64.4705 27.0011L65.39 22.744C64.6407 22.971 63.9369 23.0846 63.2785 23.0846C62.7108 23.0846 62.2681 23.0164 61.9502 22.8802C61.6551 22.7213 61.5075 22.4148 61.5075 21.9607C61.5075 21.7563 61.5415 21.5066 61.6097 21.2114L62.7335 16.0007H66.2074L67.4334 11.2668H63.7212L64.7429 6.43066L58.0337 7.96323L57.3185 11.2668L56.3309 16.0007L55.1048 21.6882C54.9686 22.3012 54.9005 22.8689 54.9005 23.3911C54.9005 24.7533 55.3319 25.8205 56.1946 26.5924Z" fill="white"/>
<path fill-rule="evenodd" clip-rule="evenodd" d="M38.5454 26.1837C40.0212 27.2282 41.9625 27.7504 44.3692 27.7504C47.2299 27.7504 49.5231 27.3757 51.2487 26.6265L52.066 22.778C51.4303 23.0051 50.6243 23.2094 49.648 23.3911C48.6944 23.55 47.7522 23.6295 46.8213 23.6295C45.0049 23.6295 43.7675 23.4478 43.109 23.0846C42.4506 22.6986 42.11 22.0855 42.0873 21.2455H53.2921L53.9051 18.4187C53.9732 18.1236 54.0187 17.8398 54.0414 17.5673C54.0641 17.2949 54.0754 17.0338 54.0754 16.784C54.0754 15.0357 53.4624 13.6281 52.2363 12.5609C51.0103 11.4711 49.2847 10.9262 47.0597 10.9262C44.0399 10.9262 41.6787 11.6982 39.9758 13.2421C38.2729 14.7633 37.1491 16.8067 36.6042 19.3723C36.5133 19.7356 36.4452 20.0989 36.3998 20.4622C36.3771 20.8254 36.3658 21.166 36.3658 21.4839C36.3658 23.55 37.0923 25.1166 38.5454 26.1837ZM48.5241 17.7717H42.8366C43.0182 16.8635 43.3815 16.1823 43.9264 15.7282C44.4713 15.2514 45.3 15.013 46.4126 15.013C47.2527 15.013 47.843 15.1606 48.1835 15.4558C48.5241 15.7509 48.6944 16.1369 48.6944 16.6137C48.6944 16.7045 48.6831 16.7954 48.6603 16.8862C48.6603 16.977 48.649 17.0792 48.6263 17.1927L48.5241 17.7717Z" fill="white"/>
<path fill-rule="evenodd" clip-rule="evenodd" d="M72.8777 27.7504C70.9933 27.7504 69.4948 27.3303 68.3822 26.4903C67.2924 25.6275 66.7475 24.2652 66.7475 22.4034C66.7475 22.0174 66.7702 21.6201 66.8156 21.2114C66.861 20.8027 66.9291 20.3713 67.0199 19.9172C67.4286 18.0782 68.1098 16.4888 69.0634 15.1493C70.017 13.787 71.1636 12.7426 72.5031 12.016C73.8427 11.2895 75.2845 10.9262 76.8284 10.9262C77.6911 10.9262 78.4404 11.0397 79.0761 11.2668C79.7119 11.4711 80.2114 11.7322 80.5746 12.0501L80.7449 11.2668H87.1477L83.742 27.4098H78.1907L78.1225 26.1497C77.3733 26.6492 76.5786 27.0465 75.7385 27.3417C74.8985 27.6141 73.9449 27.7504 72.8777 27.7504ZM75.7045 23.1186C76.204 23.1186 76.6921 23.0391 77.1689 22.8802C77.6457 22.6986 78.0658 22.4488 78.429 22.131L79.6551 16.4094C79.1556 15.8418 78.429 15.5579 77.4754 15.5579C75.5001 15.5579 74.1946 17.0224 73.5589 19.9513C73.4227 20.5189 73.3545 21.0071 73.3545 21.4158C73.3545 22.0515 73.5362 22.4942 73.8995 22.744C74.2627 22.9937 74.8644 23.1186 75.7045 23.1186Z" fill="white"/>
<path d="M8.23225 48.3458C9.4129 48.5501 10.6957 48.6523 12.0807 48.6523C14.9415 48.6523 17.0644 48.2096 18.4494 47.3241C19.8344 46.4159 20.7085 45.1444 21.0718 43.5097C21.1172 43.2599 21.1512 43.0329 21.1739 42.8285C21.2193 42.6242 21.242 42.4199 21.242 42.2155C21.242 41.3527 20.9469 40.6262 20.3566 40.0359C19.7889 39.4228 18.8013 38.9006 17.3936 38.4692C16.3719 38.1287 15.5545 37.8789 14.9415 37.72C14.3285 37.5611 14.056 37.3 14.1241 36.9367C14.2149 36.6188 14.5442 36.4258 15.1118 36.3577C15.7021 36.2896 16.3605 36.2555 17.0871 36.2555C17.7455 36.2555 18.4607 36.3237 19.2327 36.4599C20.0046 36.5961 20.6971 36.8118 21.3102 37.107L22.2638 32.6114C21.6734 32.4071 20.8334 32.2255 19.7435 32.0665C18.6764 31.9076 17.6206 31.8281 16.5762 31.8281C13.7381 31.8281 11.6153 32.2709 10.2076 33.1564C8.82258 34.0191 7.9598 35.2565 7.61923 36.8686C7.57382 37.0729 7.53976 37.2659 7.51706 37.4475C7.49435 37.6292 7.483 37.8108 7.483 37.9924C7.483 38.9006 7.77816 39.6499 8.36848 40.2402C8.9588 40.8078 9.82158 41.3187 10.9568 41.7728C12.0239 42.1588 12.9094 42.4539 13.6133 42.6583C14.3171 42.8626 14.6236 43.1578 14.5328 43.5437C14.4647 43.8843 14.2149 44.0773 13.7836 44.1227C13.3522 44.1681 12.7278 44.1908 11.9104 44.1908C11.1385 44.1908 10.2189 44.0887 9.15179 43.8843C8.10738 43.68 7.2219 43.3962 6.49534 43.0329L5.54175 47.6306C6.17748 47.9258 7.07431 48.1642 8.23225 48.3458Z" fill="white"/>
<path fill-rule="evenodd" clip-rule="evenodd" d="M51.1167 48.6523C48.6419 48.6523 46.712 48.1301 45.327 47.0857C43.942 46.0186 43.2495 44.4633 43.2495 42.4199C43.2495 42.0793 43.2609 41.7274 43.2836 41.3641C43.329 41.0008 43.3971 40.6262 43.4879 40.2402C44.0783 37.5156 45.2703 35.4382 47.0639 34.0078C48.8576 32.5547 51.4005 31.8281 54.6927 31.8281C57.3264 31.8281 59.3131 32.3844 60.6527 33.4969C61.9923 34.6095 62.662 36.142 62.662 38.0946C62.662 38.4352 62.6393 38.7871 62.5939 39.1504C62.5712 39.491 62.5145 39.8542 62.4236 40.2402C61.856 42.9875 60.6413 45.0763 58.7795 46.5067C56.9178 47.9371 54.3635 48.6523 51.1167 48.6523ZM52.1044 43.9865C53.1488 43.9865 53.9661 43.6913 54.5565 43.101C55.1695 42.5107 55.6122 41.5571 55.8847 40.2402C56.0209 39.6272 56.089 39.0823 56.089 38.6055C56.089 37.8789 55.896 37.3454 55.5101 37.0048C55.1468 36.6642 54.5451 36.4939 53.705 36.4939C52.6833 36.4939 51.8773 36.8005 51.287 37.4135C50.7194 38.0038 50.2993 38.946 50.0269 40.2402C49.8907 40.9214 49.8225 41.5003 49.8225 41.9771C49.8225 42.681 49.9928 43.1918 50.3334 43.5097C50.6967 43.8276 51.287 43.9865 52.1044 43.9865Z" fill="white"/>
<path d="M64.3487 32.1687L65.2001 48.3117H71.1941L75.1788 40.9895L76.0983 48.3117H81.6496L89.3125 32.1687H83.1141L79.5722 40.1721L79.0272 32.1687H74.3274L73.8506 34.4846L70.7514 40.1721L70.547 32.1687H64.3487Z" fill="white"/>
<path d="M18.5734 11.425C19.527 11.1072 20.526 10.9482 21.5705 10.9482C22.6149 10.9482 23.4095 11.0958 23.9544 11.391C24.4994 11.6861 24.8853 12.1175 25.1124 12.6851C25.9525 12.1629 26.8606 11.7429 27.8369 11.425C28.8132 11.1072 29.9258 10.9482 31.1745 10.9482C32.7185 10.9482 33.8424 11.2888 34.5462 11.9699C35.2728 12.6511 35.636 13.6274 35.636 14.8988C35.636 15.194 35.6133 15.5119 35.5679 15.8524C35.5452 16.193 35.4884 16.5563 35.3976 16.9423L33.1839 27.4318L32.0231 33.1784C32.6815 32.7924 33.4535 32.4745 34.3389 32.2248C35.2471 31.975 36.1894 31.8502 37.1657 31.8502C40.7076 31.8502 42.4786 33.2806 42.4786 36.1413C42.4786 36.4365 42.4559 36.7544 42.4105 37.0949C42.3877 37.4355 42.331 37.7988 42.2402 38.1848L40.0946 48.3338H33.6578L35.7012 38.6616C35.7693 38.3437 35.8034 38.0712 35.8034 37.8442C35.8034 37.0041 35.2358 36.5841 34.1005 36.5841C33.5329 36.5841 32.9767 36.6976 32.4317 36.9247C31.9095 37.1517 31.4554 37.4242 31.0695 37.742L28.8217 48.3338H22.419L26.8834 27.4318L28.9268 17.6915C28.9949 17.3736 29.0289 17.1125 29.0289 16.9082C29.0289 16.0908 28.5067 15.6822 27.4623 15.6822C26.5768 15.6822 25.7822 16 25.0783 16.6357C25.0556 16.9309 25.0102 17.2147 24.9421 17.4872C24.8967 17.7369 24.8399 18.0207 24.7718 18.3386L22.8646 27.4318H16.9387L19.0162 17.5893C19.0843 17.2715 19.1183 16.999 19.1183 16.772C19.1183 16.0454 18.6756 15.6822 17.7901 15.6822C17.3587 15.6822 16.916 15.7957 16.4619 16.0227C16.0078 16.2498 15.5878 16.5222 15.2018 16.8401L12.954 27.4318H6.75564L10.1834 11.2383L16.7493 9.74062L16.1607 12.4797C16.9064 12.0502 17.7107 11.6986 18.5734 11.425Z" fill="white"/>
<defs>
<linearGradient id="paint0_linear_225_214" x1="47.405" y1="6.55154" x2="47.405" y2="48.5612" gradientUnits="userSpaceOnUse">
<stop stop-color="#774FFF"/>
<stop offset="0.619792" stop-color="#FFA34F"/>
<stop offset="1" stop-color="#FF5B5B"/>
</linearGradient>
</defs>
</svg>
