<svg width="158" height="94" viewBox="0 0 158 94" fill="none" xmlns="http://www.w3.org/2000/svg">
<path d="M68.5223 32.2005C68.5277 32.7189 68.4308 33.2333 68.2374 33.7138C68.0439 34.1944 67.7577 34.6315 67.3953 35C67.0329 35.3686 66.6015 35.6611 66.126 35.8608C65.6506 36.0604 65.1405 36.1632 64.6252 36.1632C64.11 36.1632 63.5999 36.0604 63.1245 35.8608C62.649 35.6611 62.2176 35.3686 61.8552 35C61.4928 34.6315 61.2066 34.1944 61.0131 33.7138C60.8197 33.2333 60.7228 32.7189 60.7282 32.2005V14.39C60.7282 12.1575 60.593 11.041 60.3226 11.0404C60.1053 11.0404 59.3474 11.7758 58.0489 13.2466L40.1882 33.6714C39.4841 34.4885 38.5919 35.1197 37.5895 35.5098C35.4448 36.3267 33.0774 36.3267 30.9328 35.5098C29.9301 35.1207 29.0379 34.4893 28.3349 33.6714L10.4755 13.2466C9.23005 11.7758 8.47243 11.0404 8.20261 11.0404C7.93278 11.0404 7.79731 12.157 7.79618 14.39V32.2005C7.805 32.7172 7.70855 33.2303 7.51277 33.7081C7.317 34.1859 7.02605 34.6183 6.65786 34.9786C6.3 35.349 5.87055 35.6417 5.39598 35.8387C4.92141 36.0357 4.41177 36.1329 3.89848 36.1241C3.38513 36.1333 2.87536 36.0364 2.40073 35.8394C1.9261 35.6423 1.4967 35.3494 1.13911 34.9786C0.770463 34.6185 0.479217 34.1861 0.28341 33.7082C0.0876032 33.2302 -0.00859255 32.7169 0.000782674 32.2V8.34419C-0.0547159 6.32746 0.607833 4.35717 1.8689 2.78879C3.11318 1.26397 4.81814 0.501271 6.98376 0.500706C8.2172 0.482342 9.42967 0.82281 10.4755 1.48119C11.5176 2.14772 12.4722 2.94369 13.3166 3.85032L31.9885 25.2569C32.3045 25.5683 32.6436 25.8551 33.0029 26.1147C33.3584 26.4057 33.8027 26.5645 34.2609 26.5645C34.7192 26.5645 35.1634 26.4057 35.519 26.1147C35.8786 25.8551 36.2182 25.5683 36.5346 25.2569L55.1272 3.85032H55.2073C55.9379 2.83982 56.8804 2.00335 57.968 1.40016C59.0625 0.797703 60.2923 0.488007 61.5398 0.500706C63.704 0.500706 65.4091 1.2634 66.655 2.78879C67.9147 4.3579 68.5766 6.32779 68.5219 8.34419L68.5223 32.2005Z" fill="white"/>
<path d="M158 18.3115C157.991 20.4357 157.648 22.5452 156.985 24.5618C156.326 26.6236 155.324 28.5577 154.021 30.2814C152.741 31.9805 151.141 33.41 149.313 34.4884C147.415 35.5942 145.254 36.1595 143.062 36.124H106.04C103.937 36.0527 101.891 35.4181 100.114 34.2856C98.3874 33.1769 96.8853 31.7495 95.6867 30.0786C94.4562 28.3642 93.5103 26.4602 92.886 24.4409C91.5732 20.4182 91.588 16.0763 92.9282 12.0628C93.5859 10.0006 94.5881 8.0662 95.8916 6.34279C97.1721 4.64333 98.7722 3.21385 100.601 2.13573C102.499 1.03033 104.66 0.465124 106.853 0.500596H143.874C145.977 0.574221 148.022 1.20864 149.801 2.33896C151.525 3.44965 153.026 4.877 154.226 6.54644C155.455 8.26095 156.4 10.1648 157.024 12.1837C157.659 14.1639 157.988 16.2306 158 18.3115ZM145.903 27.2568C147.011 26.6494 147.969 25.7976 148.704 24.765C149.375 23.7949 149.845 22.6981 150.084 21.5406C150.315 20.4799 150.437 19.3981 150.449 18.3123C150.437 17.2269 150.315 16.1455 150.084 15.0853C149.845 13.9279 149.375 12.8311 148.704 11.8609C147.968 10.8284 147.011 9.97628 145.903 9.36784C144.501 8.63789 142.934 8.28619 141.357 8.34705H108.556C106.661 8.34705 105.131 8.68731 103.969 9.36784C102.877 9.98395 101.934 10.8353 101.208 11.8609C100.536 12.8307 100.066 13.9277 99.8281 15.0853C99.5968 16.1455 99.4743 17.2269 99.4626 18.3123C99.4742 19.3982 99.5967 20.4799 99.8281 21.5406C100.066 22.6983 100.536 23.7953 101.208 24.765C101.934 25.7908 102.877 26.6418 103.969 27.2568C105.133 27.939 106.662 28.2797 108.557 28.2788H141.357C142.935 28.3404 144.501 27.9882 145.903 27.2568Z" fill="white"/>
<path d="M156.584 86.8003C157.133 87.3485 157.507 88.0488 157.659 88.8119C157.811 89.575 157.734 90.3664 157.437 91.0852C157.141 91.804 156.638 92.4176 155.994 92.8479C155.349 93.2782 154.592 93.5057 153.819 93.5013H102.266C101.034 93.4896 99.8178 93.2279 98.6893 92.7316C97.5096 92.2138 96.4362 91.4789 95.5243 90.5649C94.5772 89.591 93.8086 88.4563 93.254 87.2132C92.6401 85.8243 92.3349 84.3172 92.3598 82.7973V61.8079C92.3585 61.2923 92.4583 60.7815 92.6534 60.3048C92.8485 59.8281 93.1351 59.3948 93.4969 59.0297C93.8586 58.6645 94.2883 58.3748 94.7614 58.177C95.2346 57.9792 95.7418 57.8773 96.2541 57.877H153.82C154.333 57.8746 154.841 57.9747 155.315 58.1715C155.79 58.3683 156.22 58.658 156.583 59.0237C156.945 59.3893 157.231 59.8237 157.425 60.3017C157.62 60.7796 157.717 61.2916 157.713 61.8079C157.716 62.3231 157.617 62.8338 157.422 63.3103C157.227 63.7868 156.94 64.2197 156.578 64.5841C156.216 64.9484 155.786 65.237 155.312 65.4331C154.839 65.6291 154.332 65.7288 153.82 65.7264H100.16V71.7629H152.03C152.802 71.762 153.557 71.9915 154.199 72.4224C154.841 72.8533 155.342 73.4662 155.638 74.1835C155.934 74.9009 156.012 75.6905 155.862 76.4524C155.712 77.2143 155.341 77.9143 154.795 78.4639C154.438 78.8364 154.007 79.1307 153.532 79.3282C153.056 79.5258 152.545 79.6224 152.03 79.6119H100.16V83.6136C100.162 83.8883 100.224 84.159 100.342 84.4067C100.46 84.6544 100.631 84.8728 100.842 85.0464C101.357 85.4726 102.011 85.6919 102.678 85.662H153.82C154.333 85.6537 154.842 85.7504 155.317 85.946C155.793 86.1417 156.223 86.4323 156.584 86.8003Z" fill="white"/>
<path d="M33.9356 93.2572H33.9167C31.9621 93.2488 30.0906 92.4611 28.712 91.0667L1.60854 65.8494C0.819287 65.1338 0.328217 64.1443 0.233908 63.0795C0.139598 62.0146 0.44903 60.9533 1.10009 60.1086C1.4544 59.6678 1.89484 59.3048 2.39415 59.0422C2.89346 58.7797 3.44102 58.623 4.00293 58.5819C4.56483 58.5409 5.12913 58.6164 5.66089 58.8036C6.19265 58.9909 6.68056 59.286 7.09441 59.6707L31.6666 82.5308C32.2854 83.1068 33.097 83.4273 33.94 83.4286C34.783 83.4298 35.5955 83.1117 36.2161 82.5376L61.4367 59.2112C61.8338 58.8388 62.3002 58.5491 62.8091 58.3589C63.3179 58.1686 63.8592 58.0816 64.4016 58.1027C64.944 58.1238 65.477 58.2527 65.9697 58.482C66.4624 58.7113 66.9052 59.0364 67.2726 59.4385C67.6399 59.8407 67.9246 60.3121 68.1101 60.8254C68.2957 61.3388 68.3785 61.884 68.3538 62.4298C68.3291 62.9755 68.1974 63.5109 67.9662 64.0051C67.7351 64.4994 67.409 64.9428 67.0069 65.3097L39.139 91.0849C37.7577 92.4722 35.8871 93.2531 33.9356 93.2572Z" fill="white"/>
</svg>
