<svg width="20" height="20" viewBox="0 0 20 20" fill="none" xmlns="http://www.w3.org/2000/svg">
<path d="M6.70895 4.36638C5.60204 5.67204 4.88577 7.6021 4.83702 9.76716V10.2353C4.88889 12.4004 5.60204 14.3304 6.70895 15.6361C8.14399 17.498 10.2734 18.6793 12.6591 18.6793C14.121 18.6793 15.4917 18.2337 16.6636 17.4549C14.712 19.2087 12.1458 20.1192 9.52528 19.9875C4.21825 19.7406 0 15.3655 0 10.0003C0 4.47576 4.47576 0 10.0003 0H10.0397C12.4857 0.00541996 14.844 0.911683 16.6642 2.5457C15.4923 1.77068 14.1217 1.32129 12.6572 1.32129C10.2741 1.32129 8.14211 2.5032 6.70645 4.3645L6.70895 4.36638ZM20 10.0015C20.0012 11.4092 19.7045 12.8012 19.1294 14.086C18.5542 15.3708 17.7137 16.5194 16.663 17.4561C14.101 18.7062 11.7085 17.8312 10.9178 17.2836C13.4373 16.7305 15.3411 13.6867 15.3411 10.0015C15.3411 6.31644 13.4366 3.27322 10.9178 2.71946C11.7085 2.17194 14.101 1.30004 16.663 2.54695C17.714 3.48349 18.5547 4.63199 19.1299 5.91685C19.705 7.20172 20.0016 8.59382 20 10.0015Z" fill="url(#paint0_linear_511_2819)"/>
<defs>
<linearGradient id="paint0_linear_511_2819" x1="0.406609" y1="0.576661" x2="13.9737" y2="16.6447" gradientUnits="userSpaceOnUse">
<stop stop-color="#F1FFFC"/>
<stop offset="0.515625" stop-color="#F1F1FF"/>
<stop offset="1" stop-color="#E6F6FF"/>
</linearGradient>
</defs>
</svg>
