<svg width="266" height="19" viewBox="0 0 266 19" fill="none" xmlns="http://www.w3.org/2000/svg">
<path d="M133 1.50001L133 2.50001L133 1.50001ZM9.13493 15.8424C9.67078 15.7087 9.99678 15.1659 9.86307 14.6301C9.72935 14.0942 9.18656 13.7682 8.65071 13.9019L9.13493 15.8424ZM24.9905 10.2824C24.4487 10.3893 24.0962 10.9153 24.2032 11.4571C24.3102 11.999 24.8361 12.3515 25.3779 12.2445L24.9905 10.2824ZM41.7602 9.33784C42.3056 9.25129 42.6777 8.73895 42.5911 8.19349C42.5046 7.64803 41.9922 7.27601 41.4468 7.36256L41.7602 9.33784ZM57.9869 5.02031C57.4389 5.08892 57.0503 5.58879 57.1189 6.13679C57.1875 6.6848 57.6874 7.07342 58.2354 7.00481L57.9869 5.02031ZM74.7822 5.18874C75.3321 5.13666 75.7356 4.64872 75.6835 4.0989C75.6314 3.54908 75.1435 3.14557 74.5937 3.19765L74.7822 5.18874ZM91.2565 1.85971C90.7054 1.89617 90.2882 2.37246 90.3247 2.92354C90.3611 3.47462 90.8374 3.89181 91.3885 3.85535L91.2565 1.85971ZM108.006 2.98338C108.558 2.96186 108.988 2.49705 108.966 1.94518C108.945 1.39331 108.48 0.963383 107.928 0.984901L108.006 2.98338ZM124.641 0.553378C124.088 0.560445 123.646 1.01385 123.653 1.56609C123.661 2.11833 124.114 2.56028 124.666 2.55321L124.641 0.553378ZM141.315 2.56036C141.867 2.56836 142.321 2.12718 142.329 1.57495C142.337 1.02273 141.896 0.568569 141.344 0.560566L141.315 2.56036ZM158.014 1.04134C157.462 1.01754 156.996 1.44555 156.972 1.99732C156.948 2.54909 157.376 3.01569 157.928 3.03949L158.014 1.04134ZM174.503 3.98967C175.054 4.02906 175.533 3.61442 175.572 3.06354C175.612 2.51266 175.197 2.03415 174.646 1.99476L174.503 3.98967ZM191.255 3.41849C190.706 3.36354 190.215 3.76449 190.161 4.31403C190.106 4.86357 190.507 5.35361 191.056 5.40856L191.255 3.41849ZM207.562 7.29736C208.11 7.36803 208.611 6.98129 208.682 6.43355C208.753 5.8858 208.366 5.38447 207.818 5.3138L207.562 7.29736ZM224.32 7.69095C223.775 7.604 223.262 7.97565 223.175 8.52105C223.088 9.06645 223.46 9.57906 224.005 9.66601L224.32 7.69095ZM240.364 12.5408C240.906 12.6454 241.43 12.2905 241.535 11.7482C241.639 11.2059 241.285 10.6816 240.742 10.577L240.364 12.5408ZM257.065 14.0473C256.527 13.9209 255.989 14.2543 255.862 14.7919C255.736 15.3296 256.069 15.8679 256.607 15.9942L257.065 14.0473ZM0.878905 17.0469C1.17789 18.0012 1.17784 18.0012 1.17781 18.0012C1.17782 18.0012 1.1778 18.0012 1.1778 18.0012C1.17782 18.0012 1.17787 18.0012 1.17797 18.0011C1.17817 18.0011 1.17853 18.001 1.17906 18.0008C1.18012 18.0005 1.18185 17.9999 1.18425 17.9992C1.18905 17.9977 1.19651 17.9954 1.20665 17.9922C1.22691 17.986 1.25784 17.9764 1.29937 17.9637C1.38244 17.9384 1.50793 17.9003 1.67543 17.8504C2.01043 17.7507 2.51345 17.6034 3.18107 17.4151C4.51633 17.0385 6.51001 16.4974 9.13493 15.8424L8.65071 13.9019C6.00558 14.562 3.99231 15.1083 2.63812 15.4902C1.96102 15.6812 1.44869 15.8311 1.10452 15.9336C0.932442 15.9849 0.8024 16.0243 0.714825 16.0511C0.671038 16.0645 0.637867 16.0747 0.615365 16.0816C0.604115 16.0851 0.595531 16.0878 0.589622 16.0896C0.586668 16.0905 0.584382 16.0913 0.582765 16.0918C0.581957 16.092 0.581316 16.0922 0.580842 16.0924C0.580605 16.0924 0.58041 16.0925 0.580257 16.0926C0.580181 16.0926 0.580097 16.0926 0.580059 16.0926C0.579986 16.0926 0.579924 16.0927 0.878905 17.0469ZM25.3779 12.2445C30.1739 11.2976 35.6458 10.308 41.7602 9.33784L41.4468 7.36256C35.3069 8.33678 29.8104 9.33073 24.9905 10.2824L25.3779 12.2445ZM58.2354 7.00481C63.431 6.35431 68.9509 5.74105 74.7822 5.18874L74.5937 3.19765C68.7419 3.75189 63.2021 4.36737 57.9869 5.02031L58.2354 7.00481ZM91.3885 3.85535C96.7211 3.50259 102.263 3.20733 108.006 2.98338L107.928 0.984901C102.167 1.20956 96.6068 1.50578 91.2565 1.85971L91.3885 3.85535ZM124.666 2.55321C127.405 2.51816 130.183 2.50001 133 2.50001L133 0.500011C130.175 0.500011 127.388 0.518215 124.641 0.553378L124.666 2.55321ZM133 2.50001C135.801 2.50001 138.574 2.52063 141.315 2.56036L141.344 0.560566C138.593 0.520699 135.811 0.500011 133 0.500011L133 2.50001ZM157.928 3.03949C163.622 3.28507 169.152 3.60702 174.503 3.98967L174.646 1.99476C169.277 1.61081 163.727 1.28777 158.014 1.04134L157.928 3.03949ZM191.056 5.40856C196.836 5.98654 202.347 6.62447 207.562 7.29736L207.818 5.3138C202.585 4.63856 197.055 3.99844 191.255 3.41849L191.056 5.40856ZM224.005 9.66601C230.066 10.6322 235.54 11.6106 240.364 12.5408L240.742 10.577C235.898 9.64285 230.403 8.66066 224.32 7.69095L224.005 9.66601ZM256.607 15.9942C259.217 16.6078 261.22 17.1125 262.569 17.4632C263.244 17.6386 263.755 17.7756 264.096 17.8684C264.267 17.9148 264.395 17.9502 264.481 17.9739C264.523 17.9858 264.555 17.9947 264.576 18.0005C264.587 18.0035 264.594 18.0057 264.599 18.0071C264.602 18.0078 264.604 18.0083 264.605 18.0087C264.605 18.0088 264.606 18.0089 264.606 18.009C264.606 18.009 264.606 18.0091 264.606 18.0091C264.606 18.0091 264.606 18.0091 264.606 18.0091C264.606 18.0091 264.606 18.0091 264.879 17.0469C265.151 16.0848 265.151 16.0848 265.151 16.0848C265.151 16.0848 265.151 16.0847 265.151 16.0847C265.151 16.0847 265.151 16.0846 265.151 16.0846C265.15 16.0844 265.15 16.0843 265.149 16.084C265.147 16.0836 265.145 16.083 265.142 16.0821C265.136 16.0805 265.128 16.078 265.116 16.0749C265.093 16.0685 265.06 16.0591 265.016 16.0468C264.927 16.0222 264.795 15.9858 264.621 15.9385C264.272 15.8437 263.754 15.7049 263.072 15.5276C261.709 15.173 259.691 14.6646 257.065 14.0473L256.607 15.9942Z" fill="#584F67"/>
</svg>
