<svg width="53" height="77" viewBox="0 0 53 77" fill="none" xmlns="http://www.w3.org/2000/svg">
<path opacity="0.6" d="M50.402 8.88291L29.0103 -1.48783C28.1878 -1.88657 27.2284 -1.8886 26.4043 -1.49333L18.6132 2.24324C17.582 2.7378 16.9217 3.77564 16.9107 4.91925L16.7095 25.7467C16.6881 27.9566 17.8833 29.9993 19.8202 31.0634L40.7798 42.5782C41.7267 43.0984 42.8803 43.0693 43.7997 42.5019L50.3876 38.4367C51.6791 37.6397 52.172 36.0037 51.5357 34.6259L46.6973 24.1486C46.2266 23.1293 46.3644 21.9326 47.0544 21.0469L51.8123 14.9408C53.3769 12.9327 52.6926 9.9934 50.402 8.88291Z" fill="url(#paint0_linear_326_286)"/>
<path opacity="0.9" d="M43.9193 12.9016L21.0267 2.03474C19.0362 1.08986 16.7402 2.54149 16.7402 4.7449V25.8393C16.7402 28.0173 17.9205 30.0242 19.8238 31.0829L40.6791 42.6825C43.1863 44.077 46.0329 41.4944 44.8882 38.8637L40.2148 28.1236C39.7764 27.1161 39.9239 25.9495 40.5992 25.0827L45.3593 18.9737C46.9322 16.955 46.2312 13.999 43.9193 12.9016Z" fill="url(#paint1_linear_326_286)"/>
<ellipse cx="18.5843" cy="52.8518" rx="17.6077" ry="13.1995" fill="white"/>
<path opacity="0.4" d="M36.192 63.5781C36.192 70.868 28.3088 76.7776 18.5843 76.7776C8.85982 76.7776 0.976562 70.868 0.976562 63.5781C0.976562 63.4189 0.980325 53.2603 0.987788 53.1024C1.3219 46.0329 9.07227 40.3787 18.5843 40.3787C28.0963 40.3787 35.8467 46.0329 36.1808 53.1024C36.1883 53.2603 36.192 63.4189 36.192 63.5781Z" fill="white"/>
<ellipse cx="18.5847" cy="52.3051" rx="9.01436" ry="6.27299" fill="#26116E"/>
<path d="M18.585 35.6211V50.7998" stroke="#EFCB49" stroke-width="4" stroke-linecap="round"/>
<defs>
<linearGradient id="paint0_linear_326_286" x1="36.2331" y1="-2.1189" x2="36.2331" y2="42.9281" gradientUnits="userSpaceOnUse">
<stop stop-color="#9462FF"/>
<stop offset="1" stop-color="#641BFF"/>
</linearGradient>
<linearGradient id="paint1_linear_326_286" x1="32.9723" y1="0" x2="32.9723" y2="46.4828" gradientUnits="userSpaceOnUse">
<stop stop-color="#9462FF"/>
<stop offset="1" stop-color="#641BFF"/>
</linearGradient>
</defs>
</svg>
