<svg width="53" height="79" viewBox="0 0 53 79" fill="none" xmlns="http://www.w3.org/2000/svg">
<path opacity="0.6" d="M50.402 10.8829L29.0103 0.512165C28.1878 0.113425 27.2284 0.111401 26.4043 0.506666L18.6132 4.24324C17.582 4.7378 16.9217 5.77564 16.9107 6.91925L16.7095 27.7467C16.6881 29.9566 17.8833 31.9993 19.8202 33.0634L40.7798 44.5782C41.7267 45.0984 42.8803 45.0693 43.7997 44.5019L50.3876 40.4367C51.6791 39.6397 52.172 38.0037 51.5357 36.6259L46.6973 26.1486C46.2266 25.1293 46.3644 23.9326 47.0544 23.0469L51.8123 16.9408C53.3769 14.9327 52.6926 11.9934 50.402 10.8829Z" fill="url(#paint0_linear_326_292)"/>
<path opacity="0.9" d="M43.9193 14.9016L21.0267 4.03474C19.0362 3.08986 16.7402 4.54149 16.7402 6.7449V27.8393C16.7402 30.0173 17.9205 32.0242 19.8238 33.0829L40.6791 44.6825C43.1863 46.077 46.0329 43.4944 44.8882 40.8637L40.2148 30.1236C39.7764 29.1161 39.9239 27.9495 40.5992 27.0827L45.3593 20.9737C46.9322 18.955 46.2312 15.999 43.9193 14.9016Z" fill="url(#paint1_linear_326_292)"/>
<ellipse cx="18.5843" cy="54.8518" rx="17.6077" ry="13.1995" fill="white"/>
<path opacity="0.4" d="M36.192 65.5781C36.192 72.868 28.3088 78.7776 18.5843 78.7776C8.85982 78.7776 0.976562 72.868 0.976562 65.5781C0.976562 65.4189 0.980325 55.2603 0.987788 55.1024C1.3219 48.0329 9.07227 42.3787 18.5843 42.3787C28.0963 42.3787 35.8467 48.0329 36.1808 55.1024C36.1883 55.2603 36.192 65.4189 36.192 65.5781Z" fill="white"/>
<ellipse cx="18.5847" cy="54.3051" rx="9.01436" ry="6.27299" fill="#26116E"/>
<path d="M18.585 37.6211V52.7998" stroke="#EFCB49" stroke-width="4" stroke-linecap="round"/>
<defs>
<linearGradient id="paint0_linear_326_292" x1="36.2331" y1="-0.118896" x2="36.2331" y2="44.9281" gradientUnits="userSpaceOnUse">
<stop stop-color="#21DDD2"/>
<stop offset="1" stop-color="#20DC98"/>
</linearGradient>
<linearGradient id="paint1_linear_326_292" x1="32.9723" y1="2" x2="32.9723" y2="48.4828" gradientUnits="userSpaceOnUse">
<stop stop-color="#21DDD2"/>
<stop offset="1" stop-color="#20DC98"/>
</linearGradient>
</defs>
</svg>
