<svg width="54" height="78" viewBox="0 0 54 78" fill="none" xmlns="http://www.w3.org/2000/svg">
<path opacity="0.6" d="M50.9176 9.88291L29.5259 -0.487835C28.7034 -0.886575 27.744 -0.888599 26.9199 -0.493334L19.1289 3.24324C18.0977 3.7378 17.4374 4.77564 17.4263 5.91925L17.2251 26.7467C17.2037 28.9566 18.3989 30.9993 20.3358 32.0634L41.2954 43.5782C42.2424 44.0984 43.3959 44.0693 44.3154 43.5019L50.9032 39.4367C52.1947 38.6397 52.6877 37.0037 52.0514 35.6259L47.2129 25.1486C46.7422 24.1293 46.88 22.9326 47.5701 22.0469L52.3279 15.9408C53.8925 13.9327 53.2082 10.9934 50.9176 9.88291Z" fill="url(#paint0_linear_326_288)"/>
<path opacity="0.9" d="M44.435 13.9016L21.5423 3.03474C19.5518 2.08986 17.2559 3.54149 17.2559 5.7449V26.8393C17.2559 29.0173 18.4361 31.0242 20.3394 32.0829L41.1947 43.6825C43.702 45.077 46.5485 42.4944 45.4038 39.8637L40.7304 29.1236C40.292 28.1161 40.4395 26.9495 41.1148 26.0827L45.8749 19.9737C47.4478 17.955 46.7468 14.999 44.435 13.9016Z" fill="url(#paint1_linear_326_288)"/>
<ellipse cx="19.0999" cy="53.8518" rx="17.6077" ry="13.1995" fill="white"/>
<path opacity="0.4" d="M36.7077 64.5781C36.7077 71.868 28.8244 77.7776 19.0999 77.7776C9.37544 77.7776 1.49219 71.868 1.49219 64.5781C1.49219 64.4189 1.49595 54.2603 1.50341 54.1024C1.83752 47.0329 9.5879 41.3787 19.0999 41.3787C28.612 41.3787 36.3623 47.0329 36.6964 54.1024C36.7039 54.2603 36.7077 64.4189 36.7077 64.5781Z" fill="white"/>
<ellipse cx="19.1003" cy="53.3051" rx="9.01436" ry="6.27299" fill="#26116E"/>
<path d="M19.1006 36.6211V51.7998" stroke="#EFCB49" stroke-width="4" stroke-linecap="round"/>
<defs>
<linearGradient id="paint0_linear_326_288" x1="36.7488" y1="-1.1189" x2="36.7488" y2="43.9281" gradientUnits="userSpaceOnUse">
<stop stop-color="#FF6262"/>
<stop offset="1" stop-color="#FF1B28"/>
</linearGradient>
<linearGradient id="paint1_linear_326_288" x1="33.4879" y1="1" x2="33.4879" y2="47.4828" gradientUnits="userSpaceOnUse">
<stop stop-color="#FF6262"/>
<stop offset="1" stop-color="#FF1B28"/>
</linearGradient>
</defs>
</svg>
