<svg width="20" height="20" viewBox="0 0 20 20" fill="none" xmlns="http://www.w3.org/2000/svg">
<path d="M10 20C12.6522 20 15.1957 18.9464 17.0711 17.0711C18.9464 15.1957 20 12.6522 20 10C20 7.34784 18.9464 4.8043 17.0711 2.92893C15.1957 1.05357 12.6522 0 10 0C7.34784 0 4.8043 1.05357 2.92893 2.92893C1.05357 4.8043 0 7.34784 0 10C0 12.6522 1.05357 15.1957 2.92893 17.0711C4.8043 18.9464 7.34784 20 10 20ZM10.3125 1.5625V3.4375C10.3125 3.52038 10.2796 3.59987 10.221 3.65847C10.1624 3.71708 10.0829 3.75 10 3.75C9.91712 3.75 9.83763 3.71708 9.77903 3.65847C9.72042 3.59987 9.6875 3.52038 9.6875 3.4375V1.5625C9.6875 1.47962 9.72042 1.40013 9.77903 1.34153C9.83763 1.28292 9.91712 1.25 10 1.25C10.0829 1.25 10.1624 1.28292 10.221 1.34153C10.2796 1.40013 10.3125 1.47962 10.3125 1.5625ZM10.3125 16.5625V18.4375C10.3125 18.5204 10.2796 18.5999 10.221 18.6585C10.1624 18.7171 10.0829 18.75 10 18.75C9.91712 18.75 9.83763 18.7171 9.77903 18.6585C9.72042 18.5999 9.6875 18.5204 9.6875 18.4375V16.5625C9.6875 16.4796 9.72042 16.4001 9.77903 16.3415C9.83763 16.2829 9.91712 16.25 10 16.25C10.0829 16.25 10.1624 16.2829 10.221 16.3415C10.2796 16.4001 10.3125 16.4796 10.3125 16.5625ZM5.625 2.4225C5.66053 2.40186 5.69978 2.38843 5.74051 2.38297C5.78123 2.37752 5.82263 2.38015 5.86234 2.39071C5.90205 2.40128 5.93928 2.41957 5.97191 2.44455C6.00454 2.46952 6.03193 2.50068 6.0525 2.53625L6.99 4.16125C7.03144 4.23319 7.0426 4.31865 7.02104 4.39882C6.99947 4.47899 6.94694 4.54731 6.875 4.58875C6.80306 4.63019 6.7176 4.64136 6.63743 4.61979C6.55726 4.59822 6.48894 4.54569 6.4475 4.47375L5.51 2.84875C5.46881 2.77696 5.45779 2.69175 5.47935 2.61184C5.50091 2.53193 5.55329 2.46383 5.625 2.4225ZM13.125 15.4125C13.1968 15.3713 13.282 15.3603 13.3619 15.3818C13.4418 15.4034 13.5099 15.4558 13.5512 15.5275L14.4887 17.1512C14.5122 17.1868 14.5282 17.2268 14.5357 17.2687C14.5431 17.3106 14.542 17.3536 14.5322 17.3951C14.5224 17.4366 14.5043 17.4756 14.4789 17.5098C14.4535 17.544 14.4214 17.5726 14.3845 17.594C14.3477 17.6153 14.3068 17.6289 14.2645 17.6339C14.2222 17.6388 14.1793 17.6351 14.1385 17.6229C14.0977 17.6107 14.0598 17.5903 14.0272 17.5629C13.9946 17.5356 13.9679 17.5018 13.9488 17.4637L13.0113 15.8387C12.9704 15.7672 12.9594 15.6824 12.9807 15.6028C13.002 15.5232 13.0538 15.4553 13.125 15.4138V15.4125ZM2.85 5.51L4.4725 6.4475C4.54444 6.48894 4.59697 6.55726 4.61854 6.63743C4.6401 6.7176 4.62894 6.80306 4.5875 6.875C4.54606 6.94694 4.47774 6.99947 4.39757 7.02104C4.3174 7.0426 4.23194 7.03144 4.16 6.99L2.53625 6.0525C2.46431 6.01106 2.41178 5.94274 2.39021 5.86257C2.36865 5.7824 2.37981 5.69694 2.42125 5.625C2.46269 5.55306 2.53101 5.50053 2.61118 5.47896C2.69135 5.4574 2.77681 5.46856 2.84875 5.51H2.85ZM15.84 13.01L17.4637 13.9475C17.4994 13.968 17.5306 13.9954 17.5557 14.0279C17.5807 14.0605 17.5991 14.0977 17.6098 14.1374C17.6205 14.1771 17.6232 14.2185 17.6179 14.2593C17.6126 14.3001 17.5993 14.3394 17.5788 14.375C17.5582 14.4106 17.5309 14.4419 17.4983 14.4669C17.4657 14.492 17.4285 14.5104 17.3888 14.521C17.3491 14.5317 17.3077 14.5345 17.2669 14.5291C17.2262 14.5238 17.1869 14.5105 17.1512 14.49L15.5262 13.5525C15.4543 13.5111 15.4018 13.4427 15.3802 13.3626C15.3586 13.2824 15.3698 13.1969 15.4113 13.125C15.4527 13.0531 15.521 13.0005 15.6012 12.979C15.6814 12.9574 15.7668 12.9686 15.8387 13.01H15.84ZM1.25 10C1.25 9.91712 1.28292 9.83763 1.34153 9.77903C1.40013 9.72042 1.47962 9.6875 1.5625 9.6875H3.4375C3.52038 9.6875 3.59987 9.72042 3.65847 9.77903C3.71708 9.83763 3.75 9.91712 3.75 10C3.75 10.0829 3.71708 10.1624 3.65847 10.221C3.59987 10.2796 3.52038 10.3125 3.4375 10.3125H1.5625C1.47962 10.3125 1.40013 10.2796 1.34153 10.221C1.28292 10.1624 1.25 10.0829 1.25 10ZM16.25 10C16.25 9.91712 16.2829 9.83763 16.3415 9.77903C16.4001 9.72042 16.4796 9.6875 16.5625 9.6875H18.4375C18.5204 9.6875 18.5999 9.72042 18.6585 9.77903C18.7171 9.83763 18.75 9.91712 18.75 10C18.75 10.0829 18.7171 10.1624 18.6585 10.221C18.5999 10.2796 18.5204 10.3125 18.4375 10.3125H16.5625C16.4796 10.3125 16.4001 10.2796 16.3415 10.221C16.2829 10.1624 16.25 10.0829 16.25 10ZM2.5375 13.9488L4.16 13.0113C4.2312 12.9755 4.31338 12.9683 4.38972 12.9911C4.46606 13.0139 4.5308 13.065 4.57071 13.134C4.61062 13.203 4.62268 13.2846 4.60443 13.3621C4.58617 13.4397 4.53898 13.5073 4.4725 13.5512L2.84875 14.4887C2.77755 14.5245 2.69537 14.5317 2.61903 14.5089C2.54269 14.4861 2.47795 14.435 2.43804 14.366C2.39813 14.297 2.38607 14.2154 2.40432 14.1379C2.42258 14.0603 2.46977 13.9927 2.53625 13.9488H2.5375ZM15.5275 6.44875L17.1512 5.51125C17.1868 5.49041 17.2261 5.4768 17.267 5.47122C17.3078 5.46564 17.3493 5.46818 17.3892 5.47872C17.429 5.48925 17.4664 5.50756 17.4991 5.5326C17.5319 5.55763 17.5593 5.58889 17.5799 5.62459C17.6005 5.66028 17.6139 5.69969 17.6192 5.74056C17.6245 5.78143 17.6217 5.82294 17.6109 5.86272C17.6001 5.90249 17.5815 5.93973 17.5563 5.9723C17.531 6.00488 17.4996 6.03213 17.4637 6.0525L15.8387 6.99C15.7668 7.03144 15.6814 7.0426 15.6012 7.02104C15.521 6.99947 15.4527 6.94694 15.4113 6.875C15.3698 6.80306 15.3586 6.7176 15.3802 6.63743C15.4018 6.55726 15.4543 6.48894 15.5262 6.4475L15.5275 6.44875ZM5.625 17.5763C5.55329 17.5349 5.50091 17.4668 5.47935 17.3869C5.45779 17.307 5.46881 17.2218 5.51 17.15L6.4475 15.525C6.48894 15.4531 6.55726 15.4005 6.63743 15.379C6.7176 15.3574 6.80306 15.3686 6.875 15.41C6.94694 15.4514 6.99947 15.5198 7.02104 15.5999C7.0426 15.6801 7.03144 15.7656 6.99 15.8375L6.0525 17.4625C6.03193 17.4981 6.00454 17.5292 5.97191 17.5542C5.93928 17.5792 5.90205 17.5975 5.86234 17.608C5.82263 17.6186 5.78123 17.6212 5.74051 17.6158C5.69978 17.6103 5.66053 17.5969 5.625 17.5763ZM13.125 4.58625C13.0894 4.56568 13.0583 4.53829 13.0333 4.50566C13.0083 4.47303 12.99 4.4358 12.9795 4.39609C12.9689 4.35638 12.9663 4.31498 12.9717 4.27425C12.9772 4.23353 12.9906 4.19428 13.0113 4.15875L13.9488 2.535C13.9679 2.49693 13.9946 2.46318 14.0272 2.43581C14.0598 2.40843 14.0977 2.38802 14.1385 2.37582C14.1793 2.36363 14.2222 2.3599 14.2645 2.36488C14.3068 2.36986 14.3477 2.38343 14.3845 2.40477C14.4214 2.4261 14.4535 2.45475 14.4789 2.48895C14.5043 2.52315 14.5224 2.56218 14.5322 2.60364C14.542 2.6451 14.5431 2.68812 14.5357 2.73006C14.5282 2.77199 14.5122 2.81196 14.4887 2.8475L13.5512 4.4725C13.5095 4.54379 13.4412 4.59564 13.3613 4.61672C13.2815 4.6378 13.1965 4.6264 13.125 4.585V4.58625ZM8.1175 1.76875L8.28 2.3725C8.29067 2.41214 8.29343 2.4535 8.28811 2.49421C8.2828 2.53492 8.26952 2.57418 8.24904 2.60976C8.20766 2.68161 8.13944 2.73408 8.05938 2.75563C7.97931 2.77717 7.89397 2.76604 7.82212 2.72466C7.75027 2.68329 7.6978 2.61506 7.67625 2.535L7.51375 1.93125C7.4922 1.85119 7.50334 1.76584 7.54471 1.69399C7.58609 1.62214 7.65431 1.56967 7.73438 1.54813C7.81444 1.52658 7.89978 1.53771 7.97163 1.57909C8.04348 1.62046 8.09595 1.68869 8.1175 1.76875ZM12.325 17.465L12.4875 18.0688C12.4982 18.1084 12.5009 18.1497 12.4956 18.1905C12.4903 18.2312 12.477 18.2704 12.4565 18.306C12.4152 18.3779 12.3469 18.4303 12.2669 18.4519C12.1868 18.4734 12.1015 18.4623 12.0296 18.4209C11.9578 18.3795 11.9053 18.3113 11.8837 18.2313L11.7212 17.6275C11.6997 17.5474 11.7108 17.4621 11.7522 17.3902C11.7936 17.3184 11.8618 17.2659 11.9419 17.2444C12.0219 17.2228 12.1073 17.234 12.1791 17.2753C12.251 17.3167 12.3035 17.3849 12.325 17.465ZM3.8125 3.8125C3.84153 3.7834 3.87601 3.76031 3.91398 3.74455C3.95194 3.7288 3.99265 3.72069 4.03375 3.72069C4.07485 3.72069 4.11556 3.7288 4.15352 3.74455C4.19149 3.76031 4.22597 3.7834 4.255 3.8125L4.69625 4.255C4.74947 4.31454 4.77788 4.39219 4.77564 4.47201C4.77341 4.55183 4.7407 4.62777 4.68424 4.68424C4.62777 4.7407 4.55183 4.77341 4.47201 4.77564C4.39219 4.77788 4.31454 4.74947 4.255 4.69625L3.8125 4.255C3.7834 4.22597 3.76031 4.19149 3.74455 4.15352C3.7288 4.11556 3.72069 4.07485 3.72069 4.03375C3.72069 3.99265 3.7288 3.95194 3.74455 3.91398C3.76031 3.87601 3.7834 3.84153 3.8125 3.8125ZM15.3038 15.3038C15.3623 15.2454 15.4417 15.2126 15.5244 15.2126C15.6071 15.2126 15.6864 15.2454 15.745 15.3038L16.1875 15.745C16.2166 15.7741 16.2396 15.8085 16.2553 15.8465C16.2711 15.8845 16.2791 15.9252 16.2791 15.9662C16.2791 16.0073 16.2711 16.048 16.2553 16.086C16.2396 16.124 16.2166 16.1584 16.1875 16.1875C16.1584 16.2166 16.124 16.2396 16.086 16.2553C16.048 16.2711 16.0073 16.2791 15.9662 16.2791C15.9252 16.2791 15.8845 16.2711 15.8465 16.2553C15.8085 16.2396 15.7741 16.2166 15.745 16.1875L15.3038 15.745C15.2454 15.6864 15.2126 15.6071 15.2126 15.5244C15.2126 15.4417 15.2454 15.3623 15.3038 15.3038ZM1.93125 7.5125L2.535 7.675C2.61506 7.69655 2.68329 7.74902 2.72466 7.82087C2.76604 7.89272 2.77717 7.97806 2.75563 8.05812C2.73408 8.13819 2.68161 8.20641 2.60976 8.24779C2.53791 8.28916 2.45256 8.3003 2.3725 8.27875L1.76875 8.11625C1.72716 8.10748 1.68779 8.09033 1.65306 8.06583C1.61833 8.04133 1.58896 8.01 1.56675 7.97376C1.54454 7.93752 1.52995 7.89713 1.52389 7.85506C1.51782 7.81299 1.5204 7.77013 1.53147 7.72909C1.54254 7.68805 1.56186 7.6497 1.58826 7.61639C1.61466 7.58308 1.64757 7.5555 1.68499 7.53534C1.72242 7.51518 1.76355 7.50287 1.8059 7.49916C1.84824 7.49545 1.89089 7.50041 1.93125 7.51375V7.5125ZM17.6275 11.7188L18.2313 11.8813C18.3113 11.9028 18.3795 11.9553 18.4209 12.0271C18.4623 12.099 18.4734 12.1843 18.4519 12.2644C18.4303 12.3444 18.3779 12.4127 18.306 12.454C18.2342 12.4954 18.1488 12.5065 18.0688 12.485L17.465 12.3225C17.4254 12.3118 17.3882 12.2935 17.3557 12.2684C17.3231 12.2434 17.2958 12.2122 17.2753 12.1766C17.2549 12.1411 17.2416 12.1018 17.2363 12.0611C17.2309 12.0204 17.2337 11.979 17.2444 11.9394C17.255 11.8997 17.2734 11.8626 17.2984 11.83C17.3235 11.7975 17.3547 11.7702 17.3902 11.7497C17.4258 11.7292 17.4651 11.7159 17.5058 11.7106C17.5465 11.7053 17.5879 11.7081 17.6275 11.7188ZM1.54875 12.2638C1.52734 12.1839 1.53847 12.0987 1.57971 12.027C1.62094 11.9553 1.68893 11.9029 1.76875 11.8813L2.3725 11.7188C2.41214 11.7081 2.4535 11.7053 2.49421 11.7106C2.53492 11.7159 2.57418 11.7292 2.60976 11.7497C2.64533 11.7702 2.67652 11.7975 2.70155 11.83C2.72658 11.8626 2.74496 11.8997 2.75563 11.9394C2.76629 11.979 2.76905 12.0204 2.76374 12.0611C2.75843 12.1018 2.74515 12.1411 2.72466 12.1766C2.70417 12.2122 2.67688 12.2434 2.64434 12.2684C2.6118 12.2935 2.57464 12.3118 2.535 12.3225L1.93125 12.485C1.85119 12.5064 1.76592 12.4951 1.69419 12.4536C1.62246 12.4121 1.57014 12.3438 1.54875 12.2638ZM17.245 8.0575C17.2236 7.97761 17.2347 7.89248 17.276 7.82079C17.3172 7.74909 17.3852 7.69666 17.465 7.675L18.0688 7.5125C18.1488 7.49095 18.2342 7.50209 18.306 7.54346C18.3779 7.58484 18.4303 7.65306 18.4519 7.73313C18.4734 7.81319 18.4623 7.89853 18.4209 7.97038C18.3795 8.04223 18.3113 8.0947 18.2313 8.11625L17.6275 8.27875C17.5474 8.30012 17.4622 8.28882 17.3904 8.24733C17.3187 8.20584 17.2664 8.13756 17.245 8.0575ZM3.80625 16.18C3.74715 16.1177 3.71129 16.037 3.70468 15.9514C3.69808 15.8658 3.72115 15.7806 3.77 15.71L8.6425 8.72C8.66357 8.6898 8.6898 8.66357 8.72 8.6425L15.7225 3.7875C15.789 3.7305 15.8745 3.7007 15.962 3.70405C16.0495 3.7074 16.1325 3.74366 16.1944 3.80557C16.2563 3.86749 16.2926 3.9505 16.296 4.03799C16.2993 4.12549 16.2695 4.21103 16.2125 4.2775L11.3575 11.28C11.3364 11.3102 11.3102 11.3364 11.28 11.3575L4.29 16.23C4.21805 16.28 4.13082 16.3032 4.04354 16.2954C3.95626 16.2876 3.87448 16.2494 3.8125 16.1875L3.80625 16.18ZM7.735 18.4513C7.65518 18.4296 7.58719 18.3772 7.54596 18.3055C7.50472 18.2338 7.49359 18.1486 7.515 18.0688L7.67625 17.465C7.6978 17.3849 7.75027 17.3167 7.82212 17.2753C7.89397 17.234 7.97931 17.2228 8.05938 17.2444C8.13944 17.2659 8.20766 17.3184 8.24904 17.3902C8.29041 17.4621 8.30155 17.5474 8.28 17.6275L8.1175 18.2313C8.09584 18.3111 8.04341 18.3791 7.97171 18.4203C7.90001 18.4615 7.81489 18.4727 7.735 18.4513ZM11.9413 2.755C11.8612 2.73361 11.7929 2.68129 11.7514 2.60956C11.7099 2.53783 11.6986 2.45256 11.72 2.3725L11.8825 1.76875C11.8932 1.72911 11.9115 1.69195 11.9366 1.65941C11.9616 1.62687 11.9928 1.59958 12.0284 1.57909C12.0639 1.5586 12.1032 1.54532 12.1439 1.54001C12.1846 1.5347 12.226 1.53746 12.2656 1.54813C12.3053 1.55879 12.3424 1.57717 12.375 1.6022C12.4075 1.62723 12.4348 1.65842 12.4553 1.69399C12.4758 1.72957 12.4891 1.76883 12.4944 1.80954C12.4997 1.85025 12.4969 1.89161 12.4862 1.93125L12.3238 2.535C12.3021 2.61483 12.2497 2.68281 12.178 2.72404C12.1063 2.76528 12.0211 2.77641 11.9413 2.755Z" fill="url(#paint0_linear_511_2807)"/>
<defs>
<linearGradient id="paint0_linear_511_2807" x1="0.40661" y1="0.576661" x2="13.9737" y2="16.6448" gradientUnits="userSpaceOnUse">
<stop stop-color="#F1FFFC"/>
<stop offset="0.515625" stop-color="#F1F1FF"/>
<stop offset="1" stop-color="#E6F6FF"/>
</linearGradient>
</defs>
</svg>
