<svg width="221" height="50" version="1.0" xmlns="http://www.w3.org/2000/svg" viewBox="0 0 967 386">
	<path fill="#fff" d="M63.5 2.1c-16 1.8-29 8.2-40.6 19.8-8.8 8.8-14.3 18-17.6 29.5L3 59.2V288h95v96.1l162.3-.3 162.2-.3 7.9-2.2c12.1-3.5 20.9-8.7 30.2-17.8 9.3-9.2 14.7-18 18.1-29.9l2.3-7.8V97h-95V1l-157.7.1c-86.8.1-160.9.5-164.8 1zM386 192.5V288H98V97h288v95.5zM594 27.9c-6.9 2.1-13 7.2-14.9 12.4-.6 1.6-1.1 5.2-1.1 8 .1 11.3 7.9 17.8 23.9 19.8 4.6.5 9.7 1.7 11.3 2.5 2.5 1.3 2.9 2 2.6 5.2-.4 4.6-3.1 6.2-10.8 6.2-6.5 0-11.1-2.4-13.5-7-.8-1.6-1.8-3-2.2-3-2.1 0-14.3 4.5-14.3 5.3 0 .5 1.2 3.1 2.7 5.8 9.9 18.3 45.2 18.6 53.4.5 3.5-7.7 1.9-16.6-3.8-21.6-4.9-4.3-8.9-5.9-19.7-7.6-10.3-1.7-13.6-3.3-13.6-6.9 0-3.4 3.6-5.5 9.3-5.5 4.3 0 5.4.5 8.5 3.6l3.6 3.6 6.8-2.7c3.7-1.5 6.8-2.9 6.8-3.1 0-1.7-3.5-6.6-6.9-9.7-6.2-5.6-19.5-8.4-28.1-5.8zm80.3.5c-10.3 3.4-16.7 8.9-21.2 18.6-2.1 4.6-2.6 7-2.6 14.5 0 12.4 2.1 18.3 9.4 25.6 7.2 7.2 13.2 9.4 25.1 9.3 10.5-.1 17.2-2.7 23-9 2.2-2.4 4-4.7 4-5.2 0-.4-3.1-2.4-6.9-4.5l-6.8-3.7-1.9 2.1c-4.7 5.2-14.8 6.6-21.4 3-3.8-2-8-7.3-8-10.2 0-1.8 1.3-1.9 24.5-1.9H716v-7.3c0-4.1-.7-9.4-1.6-12.1-2.2-6.5-10-14.8-16.6-17.6-6.5-2.8-17.5-3.6-23.5-1.6zm18.8 15.9c3.4 2.3 6.8 7.1 5.8 8.2-.4.3-7.7.4-16.3.3l-15.7-.3 2.3-3.5c3.1-4.7 8-7 14.9-7 4.2 0 6.5.6 9 2.3zm75.7-16.4c-4.7 1.5-9.2 4.8-11.1 8-2.8 4.8-4.7 4-4.7-1.9v-5h-16v68h15.9l.3-21.8c.3-24.2 1.1-27.6 7.2-31.3 4.4-2.7 12.5-2.6 16 .2 5.3 4.1 5.6 5.9 5.6 30.4V97h16.1l-.3-27.3-.3-27.2-2.8-4.7c-3.6-6.2-9.7-9.9-17.4-10.4-3.2-.2-7 .1-8.5.5zm67.9.5c-8.7 3.2-14.7 11-14.7 19.4 0 11.4 8 18 24.6 20.3 11.9 1.6 16.1 4.8 13.4 9.9-1.5 2.8-5 4-11.3 4-6.2 0-10.9-2.5-13.2-7-.8-1.6-1.9-3-2.3-3-.8 0-13.5 4.1-14 4.5-.9.8 3.4 8.5 6.5 11.7 10.2 10.5 32.6 11.8 43.7 2.7 9.2-7.7 10.2-21.4 2-29.1-4-3.8-9.2-5.7-19.8-7.4-10.3-1.7-13.6-3.3-13.6-6.9 0-3.5 3.5-5.5 9.8-5.5 4.8 0 5.8.4 8.9 3.5l3.5 3.5 6.1-2.6c3.4-1.4 6.6-2.9 7-3.3 1.1-1.1-5.1-9.1-9.2-11.8-1.9-1.3-5-2.7-7-3.3-5-1.4-15.9-1.2-20.4.4zm84.6 0c-10.3 3.4-16.7 9-21.2 18.6-2.1 4.6-2.5 6.9-2.5 14.5.1 10.4 2.4 17.6 7.5 23.8 12.9 15.7 42 15.2 52.5-.9.9-1.3 1.5-2.6 1.3-2.8-.2-.3-3.3-2-6.8-4l-6.3-3.6-2.4 2.5c-3 3.3-6.4 4.5-12.5 4.5-8.4 0-14.5-4.3-16.3-11.3L914 67h49v-7.5c0-13.6-6.3-24.1-17.7-29.5-6-2.9-17.8-3.6-24-1.6zM940 44.1c3.8 2.3 5.6 4.4 6.3 7.1.5 1.7-.7 1.8-15.4 1.8-12.1 0-15.9-.3-15.9-1.3 0-1.9 4.2-6.5 7.5-8.2 4.5-2.2 13.3-1.9 17.5.6zm-260.9 86.7c-6.1 3-7.6 6.1-7.9 16.8l-.4 9.4H652v15h19v51h17v-50h26v-16h-26.1l.3-5.8.3-5.7 11.8-.3 11.7-.3V129h-14.7c-12.1 0-15.4.3-18.2 1.8zm-86.7 25.8c-19.7 6-29.1 30.3-19.4 50.1 3.5 7.1 8.2 11.6 16 15.2 4.6 2.1 7 2.6 14.5 2.6 7.8 0 9.8-.4 15.1-2.8 12.5-5.8 18.5-15.2 19.2-30.2.3-7.5 0-10-1.9-14.9-2.8-7.5-9.3-14.7-16.7-18.3-6.9-3.4-18.9-4.1-26.8-1.7zm20.4 16.2c1.9.8 4.6 3.3 6 5.5 2.3 3.5 2.7 5.1 2.7 11.6 0 9.1-2.2 13.4-8.5 17-3.5 1.9-5.2 2.3-10.6 1.9-6.8-.4-10-2.1-13.8-7.2-1.6-2.1-2.2-4.6-2.4-10.9-.3-7.3-.1-8.6 2-11.6 5.8-8.5 14.9-10.8 24.6-6.3zm-18.6 91.6c-10.2 3.3-15.4 9.6-16 19-.6 12.2 6.6 18.3 24.7 21 10.2 1.6 13.1 3.2 13.1 7.7s-3.6 6.2-12.1 5.7c-6.7-.4-7.3-.6-10.4-3.9-1.8-2-3.4-4.1-3.6-4.7-.3-.8-2.6-.5-7.7 1-7 2.1-7.3 2.3-6.7 4.7 2.7 10.9 14.7 18.1 30.1 18.1 12.7 0 22.1-5.1 25.8-14.2 2.8-6.5 1.4-15-3.2-20.1-2.4-2.7-10.1-6.4-14.8-7.2-17.8-2.8-20.3-3.9-19-8.8 1.4-5.9 12.9-6.2 18.2-.5l3 3.4 7.2-2.9 7.1-2.9-1.4-2.8c-2.2-4.3-7.5-9.1-12.5-11.3-5.7-2.5-16.1-3.1-21.8-1.3zm86.3 0c-3.6 1-6.1 2.7-9.3 6-2.4 2.5-4.7 4.6-5.3 4.6-.5 0-.9-2.3-.9-5v-5h-16v93h16v-18c0-19.9.3-20.7 5.4-14.4 4 5.1 9.6 7.4 18.1 7.4 15.9 0 25.9-9.9 28.5-27.9 1.2-8.3 0-18-2.9-24.7-5.6-12.7-20.3-19.7-33.6-16zm13.4 17.5c4.5 3.3 7.1 9.2 7.1 16.6 0 9.7-5 16.6-13.6 18.5-11.3 2.7-21.3-4.4-22.2-15.5-.8-10.1 1.8-16 9.3-20.7 4.4-2.8 14.8-2.2 19.4 1.1zm59.1-18c-15.3 4.7-24.3 22.1-21.1 41.2 2.6 16 12.1 26.2 25.7 27.6 8.9.9 15.8-1.8 19.8-8 2-3 4.6-3.6 4.6-1.1 0 .8 1.3 2.9 2.9 4.5 2.8 2.7 3.4 2.9 11 2.9h8.1v-7.4c0-7.3 0-7.4-2.9-7.9-1.8-.4-3.1-1.4-3.5-2.9-.3-1.3-.6-12.5-.6-25.1V265h-16v4c0 2.2-.5 4-1 4-.6 0-2.7-1.8-4.8-3.9-5.1-5.4-14.4-7.5-22.2-5.2zm20 17.3c5.8 4 7.4 7.1 7.8 15.3.7 13.3-5.1 20.6-16.2 20.7-10.6.1-16.6-6.9-16.6-19.4 0-12 5.9-18.8 16.6-18.8 3.6 0 6 .6 8.4 2.2zm65.9-16.9c-10 2.8-18.1 9.7-22.3 18.6-1.7 3.8-2.1 6.5-2.1 15.6 0 10 .3 11.5 2.8 16.7 5.3 10.7 15.5 16.9 29.4 17.6 10 .5 16.9-1.4 23.8-6.6 4.7-3.6 9.7-11.1 11-16.3.6-2.5.4-2.7-7.3-4.6l-7.9-2-2.1 4.8c-3.6 7.7-10.8 10.8-20.5 8.7-9.2-1.9-14.7-10.4-13.3-20.6 1.4-10.3 7.1-16.2 16.1-17 3-.2 6.5-.2 7.9.2 3.8.9 9.3 6.2 10.6 10.1.6 1.9 1.2 3.5 1.3 3.5 1.2-.1 15-4 15.3-4.3.2-.2-.3-2.5-1.2-5-2.1-6.3-9.3-14-15.9-17.2-6.5-3.2-18.4-4.2-25.6-2.2zm83.8-.3c-20.7 5.2-30.7 26.9-22.5 48.9 2.7 7 8.5 13.3 15.7 16.8 5 2.5 6.6 2.8 15.6 2.7 8 0 10.9-.4 14.7-2.1 4.7-2.2 12.8-9.5 12.8-11.7 0-.7-3.1-2.9-6.9-4.9-5.6-3-7-3.4-7.5-2.2-1.1 3.1-6.9 5.5-13.1 5.5-9.1 0-15.4-4.1-17.1-11.3l-.6-2.7H963v-7.3c0-4.1-.7-9.4-1.6-12.1-2.2-6.5-10-14.8-16.6-17.6-5.9-2.6-16.1-3.5-22.1-2zm15.6 15.4c3.4 1.4 7 5 8 7.8.6 1.7-.6 1.8-15.3 1.8-8.8 0-16-.3-16-.6 0-1.9 3.8-6.5 6.9-8.3 4.2-2.4 11.6-2.8 16.4-.7z"/>
</svg>