<svg width="173" height="191" viewBox="0 0 173 191" fill="none" xmlns="http://www.w3.org/2000/svg">
<g clip-path="url(#clip0_334_298)">
<path opacity="0.5" d="M132.925 180.364L93.3432 95.4462L9.05487 107.234L48.1258 190.826L132.925 180.364Z" fill="url(#paint0_linear_334_298)"/>
<path opacity="0.8" d="M132.926 180.358L93.3445 95.4395L133.07 41.0559L172.141 124.647L132.926 180.358Z" fill="url(#paint1_linear_334_298)"/>
<path d="M8.85649 107.339L93.3497 95.4394L133.075 41.0558L49.1549 53.8347L8.85649 107.339Z" fill="url(#paint2_linear_334_298)"/>
<g opacity="0.67" filter="url(#filter0_f_334_298)">
<path d="M5.73103 79.7821L99.8345 66.5285L144.078 5.95934L50.613 20.1917L5.73103 79.7821Z" fill="url(#paint3_linear_334_298)"/>
</g>
</g>
<defs>
<filter id="filter0_f_334_298" x="-3.65464" y="-3.42649" width="157.119" height="92.5942" filterUnits="userSpaceOnUse" color-interpolation-filters="sRGB">
<feFlood flood-opacity="0" result="BackgroundImageFix"/>
<feBlend mode="normal" in="SourceGraphic" in2="BackgroundImageFix" result="shape"/>
<feGaussianBlur stdDeviation="4.69286" result="effect1_foregroundBlur_334_298"/>
</filter>
<linearGradient id="paint0_linear_334_298" x1="33.3952" y1="90.0984" x2="108.868" y2="197.301" gradientUnits="userSpaceOnUse">
<stop stop-color="#FCFF62"/>
<stop offset="1" stop-color="#FFBF1B"/>
</linearGradient>
<linearGradient id="paint1_linear_334_298" x1="100.236" y1="64.1712" x2="165.76" y2="157.242" gradientUnits="userSpaceOnUse">
<stop stop-color="#FCFF62"/>
<stop offset="1" stop-color="#FFBF1B"/>
</linearGradient>
<linearGradient id="paint2_linear_334_298" x1="54.1528" y1="50.3161" x2="88.3823" y2="98.9365" gradientUnits="userSpaceOnUse">
<stop stop-color="#FCFF62"/>
<stop offset="1" stop-color="#FFBF1B"/>
</linearGradient>
<linearGradient id="paint3_linear_334_298" x1="56.1793" y1="16.2729" x2="94.3021" y2="70.4234" gradientUnits="userSpaceOnUse">
<stop stop-color="#FCFF62"/>
<stop offset="1" stop-color="#FFBF1B"/>
</linearGradient>
<clipPath id="clip0_334_298">
<rect width="173" height="191" fill="white"/>
</clipPath>
</defs>
</svg>
