<svg width="20" height="17" viewBox="0 0 20 17" fill="none" xmlns="http://www.w3.org/2000/svg">
<path fill-rule="evenodd" clip-rule="evenodd" d="M1.55486 7.38983C6.59861 5.24327 9.9619 3.82813 11.6447 3.14441C16.4496 1.19223 17.448 0.853114 18.0987 0.841916C18.2418 0.839453 18.5618 0.874102 18.7691 1.03841C18.9442 1.17715 18.9923 1.36456 19.0154 1.4961C19.0384 1.62764 19.0671 1.92728 19.0443 2.16142C18.7839 4.8338 17.6573 11.319 17.0841 14.3121C16.8416 15.5786 16.364 16.0032 15.9017 16.0448C14.897 16.1351 14.134 15.3962 13.1609 14.7731C11.6381 13.798 10.7779 13.191 9.29978 12.2396C7.59158 11.14 8.69894 10.5356 9.67244 9.54792C9.92721 9.28943 14.3541 5.35616 14.4398 4.99935C14.4505 4.95473 14.4604 4.78839 14.3593 4.70055C14.2581 4.61272 14.1088 4.64275 14.001 4.66664C13.8483 4.7005 11.4157 6.27112 6.70315 9.37849C6.01265 9.84165 5.38723 10.0673 4.82686 10.0555C4.20911 10.0425 3.0208 9.7143 2.13741 9.4338C1.0539 9.08975 0.192748 8.90786 0.267736 8.32356C0.306793 8.01922 0.735835 7.70798 1.55486 7.38983Z" fill="url(#paint0_linear_225_875)"/>
<defs>
<linearGradient id="paint0_linear_225_875" x1="9.65792" y1="0.841797" x2="9.65792" y2="16.0523" gradientUnits="userSpaceOnUse">
<stop stop-color="#EE0349"/>
<stop offset="1" stop-color="#FD2F22"/>
</linearGradient>
</defs>
</svg>
