<svg width="20" height="17" viewBox="0 0 20 17" fill="none" xmlns="http://www.w3.org/2000/svg">
<path d="M20 1.93007C19.2645 2.24734 18.4641 2.47567 17.6397 2.56461C18.4956 2.0561 19.1366 1.25274 19.4424 0.305262C18.6392 0.783063 17.7593 1.11811 16.8417 1.29553C16.4582 0.885544 15.9944 0.558933 15.4792 0.336045C14.9639 0.113158 14.4083 -0.0012301 13.8469 9.97573e-06C11.5755 9.97573e-06 9.74883 1.84114 9.74883 4.10048C9.74883 4.41775 9.78729 4.73502 9.84978 5.04027C6.44874 4.86241 3.41546 3.2376 1.39887 0.74992C1.03143 1.37753 0.838874 2.09213 0.841245 2.81938C0.841245 4.24229 1.56472 5.49695 2.66795 6.23484C2.0178 6.20923 1.38287 6.03053 0.814806 5.71327V5.76374C0.814806 7.75629 2.22329 9.40753 4.10047 9.7873C3.74801 9.87885 3.38543 9.92569 3.02127 9.9267C2.75448 9.9267 2.5021 9.90026 2.24733 9.86421C2.76649 11.489 4.27833 12.6692 6.0786 12.7076C4.67011 13.8109 2.9059 14.4598 0.990266 14.4598C0.646557 14.4598 0.329287 14.4478 0 14.4093C1.81709 15.5751 3.97308 16.2481 6.29492 16.2481C13.8325 16.2481 17.957 10.0036 17.957 4.58359C17.957 4.40573 17.957 4.22787 17.945 4.05C18.7429 3.46594 19.4424 2.74247 20 1.93007Z" fill="url(#paint0_linear_306_292)"/>
<defs>
<linearGradient id="paint0_linear_306_292" x1="10" y1="0" x2="10" y2="16.2481" gradientUnits="userSpaceOnUse">
<stop stop-color="#EE0349"/>
<stop offset="1" stop-color="#FD2F22"/>
</linearGradient>
</defs>
</svg>
