<svg width="141" height="28" viewBox="0 0 141 28" fill="none" xmlns="http://www.w3.org/2000/svg">
<path fill-rule="evenodd" clip-rule="evenodd" d="M97.9078 17.386H90.5308V10.541H97.7916V12.0543H92.5077V13.221H97.5123V14.651H92.5077V15.8302H97.9078V17.3877V17.386Z" fill="white"/>
<path fill-rule="evenodd" clip-rule="evenodd" d="M140.351 17.3859H133.089V10.6484H140.236V12.1376H135.034V13.2843H139.961V14.6918H135.034V15.8526H140.351V17.3859Z" fill="white"/>
<path fill-rule="evenodd" clip-rule="evenodd" d="M107.91 17.386H104.925L100.996 12.266H100.958V17.386H98.9995V10.541H102.033L105.914 15.666H105.952V10.541H107.91V17.386Z" fill="white"/>
<path fill-rule="evenodd" clip-rule="evenodd" d="M131.563 17.386H128.579L124.65 12.266H124.611V17.386H122.653V10.541H125.686L129.567 15.666H129.606V10.541H131.563V17.386Z" fill="white"/>
<path fill-rule="evenodd" clip-rule="evenodd" d="M113.678 17.4764C113.051 17.4764 112.511 17.4608 112.056 17.4297C111.664 17.4089 111.276 17.3494 110.896 17.2522C110.617 17.1826 110.354 17.0583 110.122 16.8864C109.919 16.726 109.76 16.5165 109.659 16.2772C109.539 15.9871 109.464 15.6802 109.437 15.3672C109.396 14.9469 109.376 14.5246 109.379 14.1022V13.9022C109.376 13.4764 109.396 13.0508 109.439 12.6272C109.468 12.3117 109.544 12.0024 109.666 11.7105C109.768 11.4721 109.928 11.2635 110.131 11.1039C110.363 10.9334 110.627 10.8108 110.906 10.743C111.286 10.6474 111.675 10.5894 112.066 10.5697C112.521 10.5403 113.058 10.5258 113.678 10.5264H113.978C114.5 10.5264 114.956 10.5378 115.348 10.5605C115.687 10.5767 116.024 10.6182 116.357 10.6847C116.6 10.7307 116.834 10.8136 117.053 10.9305C117.227 11.0263 117.376 11.1626 117.487 11.328C117.599 11.5033 117.675 11.6998 117.709 11.9055C117.753 12.1648 117.774 12.4275 117.771 12.6905V12.9539H115.853V12.8705C115.857 12.7361 115.833 12.6024 115.782 12.478C115.722 12.3625 115.622 12.2735 115.5 12.228C115.312 12.1525 115.114 12.1073 114.912 12.0939C114.66 12.0678 114.327 12.0547 113.914 12.0547H113.749C113.374 12.0547 113.054 12.0611 112.789 12.0739C112.567 12.0808 112.347 12.1087 112.13 12.1572C111.979 12.1894 111.836 12.2533 111.71 12.3447C111.603 12.4311 111.523 12.5468 111.48 12.678C111.423 12.8456 111.39 13.0203 111.382 13.1972C111.368 13.403 111.36 13.6514 111.36 13.9405V14.0622C111.36 14.3455 111.368 14.5872 111.382 14.7889C111.39 14.9625 111.423 15.1339 111.48 15.298C111.524 15.4291 111.604 15.5447 111.71 15.6314C111.836 15.7225 111.979 15.7863 112.13 15.8189C112.347 15.867 112.567 15.8949 112.789 15.9022C113.055 15.9155 113.375 15.9222 113.749 15.9222H113.914C114.219 15.9222 114.482 15.9164 114.703 15.9047C114.889 15.8967 115.075 15.8787 115.26 15.8505C115.385 15.8339 115.507 15.7996 115.622 15.7489C115.705 15.7116 115.776 15.6543 115.832 15.5822C115.882 15.5131 115.916 15.4328 115.93 15.348C115.947 15.2442 115.955 15.1391 115.954 15.0339V14.843H113.363V13.5222H117.847V15.043C117.85 15.333 117.829 15.6226 117.783 15.9089C117.748 16.1361 117.67 16.3544 117.554 16.5522C117.443 16.7344 117.291 16.8879 117.111 17.0005C116.891 17.1331 116.652 17.2288 116.402 17.2839C116.064 17.3615 115.72 17.4111 115.373 17.4322C114.975 17.4611 114.51 17.4758 113.978 17.4764H113.678Z" fill="white"/>
<path fill-rule="evenodd" clip-rule="evenodd" d="M121.209 17.3981H119.225V10.6064H121.209V17.3981Z" fill="white"/>
<path fill-rule="evenodd" clip-rule="evenodd" d="M34.9491 17.471C34.3997 17.471 33.9176 17.4562 33.5029 17.4268C33.1423 17.4054 32.784 17.3544 32.4316 17.2743C32.1687 17.217 31.9164 17.118 31.6841 16.981C31.4937 16.8649 31.3319 16.7064 31.2111 16.5176C31.0873 16.3135 31.0034 16.0871 30.9639 15.851C30.9125 15.555 30.8882 15.2548 30.8914 14.9543V10.5293H32.8881V14.3035C32.8881 14.5368 32.8955 14.7368 32.912 14.9043C32.9229 15.0514 32.9562 15.1959 33.0109 15.3326C33.0561 15.4454 33.13 15.544 33.2252 15.6185C33.3366 15.6983 33.4627 15.7549 33.596 15.7851C33.7826 15.8318 33.9734 15.8597 34.1654 15.8685C34.3904 15.8818 34.6599 15.8876 34.9705 15.8876H35.1395C35.451 15.8876 35.7163 15.881 35.9446 15.866C36.1362 15.8556 36.3265 15.8277 36.5132 15.7826C36.6469 15.7539 36.7733 15.6971 36.884 15.616C36.9787 15.5408 37.0528 15.4424 37.0991 15.3301C37.1535 15.1933 37.1868 15.0488 37.198 14.9018C37.2139 14.7351 37.2219 14.5357 37.2219 14.3035V10.5293H39.2178V14.9585C39.221 15.2579 39.1984 15.5571 39.1502 15.8526C39.1137 16.0886 39.032 16.315 38.9096 16.5193C38.7906 16.7079 38.6305 16.8664 38.4415 16.9826C38.2113 17.1196 37.9609 17.2186 37.6998 17.276C37.3455 17.3563 36.9853 17.4073 36.6228 17.4285C36.2047 17.4585 35.7177 17.4732 35.1617 17.4726L34.9491 17.471Z" fill="white"/>
<path fill-rule="evenodd" clip-rule="evenodd" d="M49.4783 17.3876H46.4944L42.5652 12.2501H42.5265V17.3843H40.5693V10.5234H43.6019L47.4825 15.6668H47.5212V10.5234H49.4783V17.3876Z" fill="white"/>
<path fill-rule="evenodd" clip-rule="evenodd" d="M55.3621 13.9876C55.7055 13.9876 55.9802 13.9768 56.1862 13.9551C56.3492 13.9466 56.5083 13.9013 56.6518 13.8226C56.7532 13.7592 56.8265 13.6586 56.8562 13.5418C56.8924 13.3859 56.9087 13.226 56.9048 13.0659V12.9476C56.9085 12.7895 56.8922 12.6315 56.8562 12.4776C56.8414 12.4197 56.8153 12.3655 56.7793 12.3181C56.7434 12.2707 56.6983 12.2311 56.6468 12.2018C56.5014 12.1264 56.3419 12.0827 56.1788 12.0734C55.9752 12.0518 55.7025 12.041 55.3621 12.041H52.8742V13.9876H55.3621ZM58.9163 17.3876H56.9435V16.8334C56.9449 16.6609 56.9366 16.4884 56.9188 16.3168C56.9078 16.1891 56.8737 16.0645 56.8182 15.9493C56.7679 15.8509 56.6929 15.7675 56.6007 15.7076C56.4873 15.6389 56.3625 15.5914 56.2323 15.5676C56.0461 15.531 55.8574 15.5087 55.6678 15.5009C55.4442 15.4893 55.1783 15.4834 54.8701 15.4834H52.8742V17.3909H50.8965V10.5234H56.1615C56.6185 10.516 57.0753 10.5506 57.5261 10.6268C57.8303 10.6738 58.1191 10.7929 58.3691 10.9743C58.5756 11.1383 58.7252 11.3645 58.796 11.6201C58.8827 11.9435 58.9232 12.2777 58.9163 12.6126V12.8543C58.9194 13.0914 58.8984 13.3282 58.8537 13.5609C58.8191 13.7463 58.7506 13.9235 58.6518 14.0834C58.5585 14.2292 58.435 14.3529 58.29 14.446C58.122 14.5491 57.9378 14.6224 57.7453 14.6626V14.7018C57.9451 14.7316 58.1415 14.7818 58.3312 14.8518C58.4741 14.9055 58.5986 14.9998 58.6897 15.1234C58.785 15.2637 58.8463 15.4248 58.8685 15.5934C58.9041 15.8398 58.9201 16.0887 58.9163 16.3376V17.3876Z" fill="white"/>
<path fill-rule="evenodd" clip-rule="evenodd" d="M67.5872 17.3876H60.2109V10.5234H67.471V12.0409H62.1871V13.2076H67.1916V14.6409H62.1871V15.8251H67.5872V17.3876Z" fill="white"/>
<path fill-rule="evenodd" clip-rule="evenodd" d="M74.2561 14.7265L72.8725 11.9723H72.8239L71.4501 14.7265H74.2561ZM77.751 17.3931H75.596L74.9739 16.1615H70.7414L70.1291 17.3931H67.9932L71.638 10.5298H74.0872L77.751 17.3931Z" fill="white"/>
<path fill-rule="evenodd" clip-rule="evenodd" d="M85.0178 17.3926H78.4805V10.5293H80.4764V15.796H85.0178V17.3926Z" fill="white"/>
<path fill-rule="evenodd" clip-rule="evenodd" d="M21.5124 15.9416C21.2825 17.0616 20.2606 19.9366 17.0014 21.4933L15.6928 20.0049L13.4843 22.2499C12.2277 22.2329 10.992 21.9223 9.87384 21.3423C8.75565 20.7623 7.78523 19.9287 7.03844 18.9066C7.273 18.9805 7.51525 19.0267 7.76033 19.0441C8.12209 19.0508 8.51353 18.9166 8.51353 18.3024V12.2441C8.51861 12.0884 8.48763 11.9336 8.42307 11.7921C8.35851 11.6506 8.26215 11.5264 8.14168 11.4292C8.0212 11.3321 7.87995 11.2648 7.72918 11.2326C7.57841 11.2005 7.4223 11.2044 7.2733 11.2441C6.25063 11.4824 5.43398 14.0624 5.43398 14.0624C5.42251 12.8712 5.66773 11.6918 6.15258 10.6062C6.63743 9.52051 7.35028 8.55466 8.24158 7.77576C9.41472 6.74962 10.8508 6.07971 12.3842 5.84326C11.2676 6.4866 10.6404 7.53576 10.6404 8.41576C10.6404 9.83243 11.4843 9.66076 11.734 9.45243V17.6291C11.7765 17.7317 11.8319 17.8283 11.8988 17.9166C12.0104 18.0726 12.1572 18.1994 12.3271 18.2864C12.4969 18.3734 12.6849 18.418 12.8753 18.4166C13.72 18.4166 14.816 17.4416 14.816 17.4416V10.8233C14.816 10.1499 14.3141 9.3366 13.8115 9.05743C13.8115 9.05743 14.7418 8.89076 15.4596 9.44659C15.5944 9.28002 15.7378 9.12064 15.8889 8.96909C17.5643 7.30659 19.1424 6.83326 20.4568 6.5966C20.4568 6.5966 18.067 8.49576 18.067 11.0441C18.067 12.9391 18.1156 17.5608 18.1156 17.5608C19.0023 18.4266 20.3208 17.1758 21.5124 15.9416Z" fill="white"/>
<path fill-rule="evenodd" clip-rule="evenodd" d="M13.5927 0.521484C10.9565 0.521484 8.3796 1.31197 6.18774 2.79299C3.99589 4.27401 2.28754 6.37904 1.27874 8.84188C0.269935 11.3047 0.00598657 14.0148 0.520269 16.6293C1.03455 19.2439 2.30397 21.6455 4.16799 23.5304C6.03201 25.4154 8.40692 26.6991 10.9924 27.2192C13.5779 27.7392 16.2578 27.4723 18.6933 26.4522C21.1287 25.432 23.2103 23.7045 24.6749 21.488C26.1395 19.2715 26.9212 16.6656 26.9212 13.9998C26.9212 10.4251 25.5169 6.99687 23.0173 4.4692C20.5177 1.94152 17.1276 0.521484 13.5927 0.521484ZM13.5927 26.9382C11.0619 26.9382 8.58807 26.1793 6.48387 24.7574C4.37968 23.3356 2.73967 21.3148 1.77125 18.9504C0.802822 16.586 0.549481 13.9843 1.04326 11.4744C1.53703 8.9644 2.75575 6.65886 4.54529 4.84932C6.33483 3.03978 8.61482 1.80751 11.0969 1.30834C13.579 0.809172 16.1518 1.06553 18.4898 2.04499C20.8278 3.02445 22.8261 4.68303 24.232 6.81097C25.6378 8.93892 26.3881 11.4407 26.388 13.9998C26.388 17.4315 25.0399 20.7226 22.6403 23.1492C20.2407 25.5758 16.9862 26.939 13.5927 26.939V26.9382Z" fill="white"/>
</svg>
