<svg width="67" height="67" viewBox="0 0 67 67" fill="none" xmlns="http://www.w3.org/2000/svg">
<path d="M55.3846 28.1077C51.5077 26.5846 50.9538 25.0615 50.9538 23.5385C50.9538 22.0154 52.0615 20.4923 53.4461 19.3846C55.8 17.4462 57.0461 14.5385 57.0461 11.3538C57.0461 5.26154 53.0308 0 45.9692 0C39.4615 0 35.5846 4.43077 35.0308 9.83077C35.0308 10.3846 35.3077 10.8 35.7231 11.0769C40.9846 14.4 44.1692 20.2154 44.1692 27.2769C44.1692 32.5385 42.0923 37.2462 38.3538 40.5692C38.0769 40.8462 38.0769 41.4 38.3538 41.6769C39.3231 42.3692 41.5385 43.3385 42.9231 44.0308C43.3385 44.1692 43.6154 44.3077 44.0308 44.3077H60.7846C63.9692 44.3077 66.4615 41.6769 66.4615 38.7692V37.9385C66.4615 33.0923 61.2 30.4615 55.3846 28.1077Z" fill="#FDC97B"/>
<path d="M36.8308 47.3539C32.1231 45.4154 31.4308 43.7538 31.4308 41.9538C31.4308 40.1538 32.8154 38.3539 34.3385 36.9692C37.1077 34.6154 38.6308 31.2923 38.6308 27.4154C38.6308 20.2154 33.9231 13.9846 25.3385 13.9846C16.8923 13.9846 12.0462 20.2154 12.0462 27.4154C12.0462 31.2923 13.5692 34.6154 16.3385 36.9692C17.8615 38.3539 19.2462 40.1538 19.2462 41.9538C19.2462 43.7538 18.5538 45.5539 13.7077 47.3539C6.78462 50.1231 0 53.3077 0 59.1231V59.5385V60.9231C0 63.9692 2.49231 66.4615 5.67692 66.4615H44.0308C47.2154 66.4615 49.8462 63.9692 49.8462 60.9231V59.5385V58.9846C49.8462 53.3077 43.7538 50.1231 36.8308 47.3539Z" fill="#FDC97B"/>
</svg>
