<svg xmlns="http://www.w3.org/2000/svg" viewBox="0 0 55.94 59"><g fill="#fff"><path d="M29,39.13A9.12,9.12,0,1,1,38.11,30,9.13,9.13,0,0,1,29,39.13Zm0-13.24A4.12,4.12,0,1,0,33.11,30,4.13,4.13,0,0,0,29,25.89Z"/><path d="M17.73,19.26a9.63,9.63,0,1,1,9.63-9.63A9.65,9.65,0,0,1,17.73,19.26ZM17.73,5a4.63,4.63,0,1,0,4.63,4.63A4.64,4.64,0,0,0,17.73,5Z"/><path d="M48.35,23.34a7.6,7.6,0,1,1,7.59-7.59A7.61,7.61,0,0,1,48.35,23.34Zm0-10.19a2.6,2.6,0,1,0,2.59,2.6A2.6,2.6,0,0,0,48.35,13.15Z"/><path d="M48.35,51.87a7.6,7.6,0,1,1,7.59-7.6A7.61,7.61,0,0,1,48.35,51.87Zm0-10.19a2.6,2.6,0,1,0,2.59,2.59A2.6,2.6,0,0,0,48.35,41.68Z"/><path d="M18,59a8.62,8.62,0,1,1,8.61-8.61A8.63,8.63,0,0,1,18,59Zm0-12.23a3.62,3.62,0,1,0,3.61,3.62A3.63,3.63,0,0,0,18,46.77Z"/><path d="M7.59,37.6A7.59,7.59,0,1,1,15.19,30,7.6,7.6,0,0,1,7.59,37.6Zm0-10.18A2.59,2.59,0,1,0,10.19,30,2.59,2.59,0,0,0,7.59,27.42Z"/><path d="M25.79,26.71a2.48,2.48,0,0,1-2.19-1.29L19,17.08a2.5,2.5,0,0,1,4.37-2.41L28,23a2.51,2.51,0,0,1-1,3.4A2.53,2.53,0,0,1,25.79,26.71Z"/><path d="M34.32,28.58a2.5,2.5,0,0,1-1.49-4.51l9.94-7.32a2.5,2.5,0,0,1,3,4L35.8,28.1A2.49,2.49,0,0,1,34.32,28.58Z"/><path d="M44.25,43.75a2.45,2.45,0,0,1-1.48-.48L32.83,36a2.5,2.5,0,1,1,3-4l9.93,7.32a2.5,2.5,0,0,1-1.48,4.51Z"/><path d="M20.87,47.51a2.53,2.53,0,0,1-1.19-.3,2.5,2.5,0,0,1-1-3.39l5-9.18A2.5,2.5,0,0,1,28,37l-5,9.18A2.5,2.5,0,0,1,20.87,47.51Z"/><path d="M22.37,32.51H12.69a2.5,2.5,0,0,1,0-5h9.68a2.5,2.5,0,0,1,0,5Z"/></g></svg>