<svg xmlns="http://www.w3.org/2000/svg" viewBox="0 0 58.99 59"><g fill="#fff"><path d="M17.85,59a2.51,2.51,0,0,1-1.77-4.27L19.84,51a2.5,2.5,0,0,1,3.54,3.53l-3.76,3.76A2.5,2.5,0,0,1,17.85,59Z"/><path d="M2.5,43.65A2.5,2.5,0,0,1,.73,39.38L4.5,35.62A2.5,2.5,0,0,1,8,39.15L4.27,42.92A2.53,2.53,0,0,1,2.5,43.65Z"/><path d="M5.38,56.12a2.53,2.53,0,0,1-1.77-.73,2.5,2.5,0,0,1,0-3.54l8.56-8.56a2.5,2.5,0,0,1,3.53,3.54L7.15,55.39A2.53,2.53,0,0,1,5.38,56.12Z"/><path d="M38.62,58.5a2.28,2.28,0,0,1-.63-.09,2.5,2.5,0,0,1-1.78-1.74L32.55,43.45a2.5,2.5,0,0,1,4.82-1.33l2.52,9.08,5.69-5.69-2-10.33a2.5,2.5,0,1,1,4.9-1l2.3,11.63a2.51,2.51,0,0,1-.68,2.26l-9.67,9.66A2.47,2.47,0,0,1,38.62,58.5Z"/><path d="M28.44,47.74A2.5,2.5,0,0,1,26.67,47L12,32.32a2.47,2.47,0,0,1-.65-2.42C16.75,10.1,37-3,56.39.61a2.49,2.49,0,0,1,2,2C62,22,48.89,42.24,29.1,47.65A2.5,2.5,0,0,1,28.44,47.74ZM16.57,29.84,29.16,42.42c16-5.09,26.64-21.24,24.59-37.17C37.8,3.2,21.66,13.85,16.57,29.84Z"/><path d="M16.21,26.54a2.57,2.57,0,0,1-.67-.09L2.33,22.78a2.5,2.5,0,0,1-1.1-4.18L10.9,8.94a2.5,2.5,0,0,1,2.25-.69l11.63,2.3a2.5,2.5,0,0,1-1,4.91l-10.32-2L7.8,19.11l9.08,2.52a2.5,2.5,0,0,1-.67,4.91Z"/><path d="M38.51,28.28A7.71,7.71,0,0,1,33,26a7.8,7.8,0,1,1,11,0h0A7.74,7.74,0,0,1,38.51,28.28Zm3.75-4.05h0Zm-3.75-6.54a2.79,2.79,0,0,0-2,4.77,2.87,2.87,0,0,0,4,0,2.79,2.79,0,0,0-2-4.77Z"/></g></svg>