<svg xmlns="http://www.w3.org/2000/svg" viewBox="0 0 57.76 59"><g fill="#fff"><path d="M34.87,59h-12a2.5,2.5,0,0,1-2.5-2.5V51.2a4,4,0,0,0-6.06-3.5L9.74,50.35a2.5,2.5,0,0,1-3.41-.91l-6-10.38a2.41,2.41,0,0,1-.25-1.89,2.5,2.5,0,0,1,1.16-1.52L5.84,33a4,4,0,0,0,0-7L1.25,23.35A2.5,2.5,0,0,1,.09,21.83a2.41,2.41,0,0,1,.25-1.89l6-10.38a2.5,2.5,0,0,1,3.41-.91l4.59,2.65a4,4,0,0,0,6.06-3.5V2.5A2.5,2.5,0,0,1,22.89,0h12a2.5,2.5,0,0,1,2.5,2.5V7.8a4,4,0,0,0,2,3.5,4.1,4.1,0,0,0,4,0L48,8.65a2.5,2.5,0,0,1,3.41.91l6,10.38a2.5,2.5,0,0,1-.91,3.41L51.92,26a4,4,0,0,0,0,7l4.59,2.65a2.5,2.5,0,0,1,.91,3.41l-6,10.38a2.5,2.5,0,0,1-3.41.91L43.43,47.7a4.1,4.1,0,0,0-4,0,4,4,0,0,0-2,3.5v5.3A2.5,2.5,0,0,1,34.87,59Zm-9.48-5h7V51.2a9,9,0,0,1,13.56-7.83l2.42,1.4,3.49-6-2.42-1.4a9,9,0,0,1,0-15.66l2.42-1.4-3.49-6-2.42,1.4A9,9,0,0,1,32.37,7.8V5h-7V7.8a9,9,0,0,1-13.56,7.83l-2.42-1.4-3.49,6,2.42,1.4a9,9,0,0,1,0,15.66l-2.42,1.4,3.49,6,2.42-1.4A9,9,0,0,1,25.39,51.2Z"/><path d="M28.88,39a9.5,9.5,0,1,1,9.5-9.5A9.51,9.51,0,0,1,28.88,39Zm0-14a4.5,4.5,0,1,0,4.5,4.5A4.51,4.51,0,0,0,28.88,25Z"/></g></svg>