<svg xmlns="http://www.w3.org/2000/svg" viewBox="0 0 59.79 58.05"><g fill="#fff"><path d="M35.5,11.12H9.1a2.5,2.5,0,0,1,0-5H35.5a2.5,2.5,0,1,1,0,5Z"/><path d="M32,28.38A19.79,19.79,0,0,1,12.18,8.62a2.5,2.5,0,0,1,5,0A14.78,14.78,0,0,0,32,23.38a2.5,2.5,0,1,1,0,5Z"/><path d="M12.65,28.38a2.5,2.5,0,0,1,0-5A14.78,14.78,0,0,0,27.42,8.62a2.5,2.5,0,1,1,5,0A19.79,19.79,0,0,1,12.65,28.38Z"/><path d="M22.3,11.12a2.5,2.5,0,0,1-2.5-2.5V2.5a2.5,2.5,0,0,1,5,0V8.62A2.5,2.5,0,0,1,22.3,11.12Z"/><path d="M41.22,51.65a2.35,2.35,0,0,1-.93-.19,2.5,2.5,0,0,1-1.39-3.25l8-19.91a2.51,2.51,0,0,1,4.64,0l8,19.91A2.5,2.5,0,0,1,55,50.08L49.26,35.92,43.54,50.08A2.51,2.51,0,0,1,41.22,51.65Z"/><path d="M54.82,47.23H43.7a2.5,2.5,0,0,1,0-5H54.82a2.5,2.5,0,0,1,0,5Z"/><path d="M18.75,53.51A18.76,18.76,0,0,1,.08,33a2.5,2.5,0,1,1,5,.46A13.76,13.76,0,0,0,26.82,45.91,2.5,2.5,0,1,1,29.75,50,18.73,18.73,0,0,1,18.75,53.51Z"/><path d="M23.92,58.05a2.39,2.39,0,0,1-1.23-.33,2.49,2.49,0,0,1-.93-3.41l3.11-5.45-5.45-3.11a2.5,2.5,0,0,1,2.49-4.34l7.62,4.36a2.49,2.49,0,0,1,.92,3.41L26.1,56.79A2.51,2.51,0,0,1,23.92,58.05Z"/></g></svg>