<svg version="1.0" xmlns="http://www.w3.org/2000/svg" viewBox="0 0 1920 727"><path d="M1916.2 14.6c-17.8 57.2-63 135.8-122.2 212.6-14.9 19.3-20.1 24.9-32.7 35.5-37.2 31.1-73.4 49.9-107.7 55.8-4.9.8-9.3 1.5-9.9 1.5-6.5 0 24.8 7.5 39.7 9.5 17.5 2.4 45.4 1.7 61.1-1.4 37.2-7.6 72.7-27.4 103.2-57.8 16-16 37-42.2 48.7-60.8 6.2-9.7 16.7-30.1 21-40.5l2.6-6.5-.2-79.2-.3-79.3-3.3 10.6zm-618.2 89c-37.9 3.6-71.9 13.8-111.3 33.6-83 41.5-178.9 126.4-286.7 253.8-54.9 64.8-104.4 113-156.2 152.1-81.4 61.3-162 95.2-250.8 105.3-51.5 5.9-113.2 4.4-165-3.9-68-11-140.2-33.5-194.4-60.7-4.3-2.2-8-3.7-8.2-3.5-.2.2 8.9 4.9 20.4 10.5 76.2 37.1 160.5 66.8 254.7 89.7 53 12.9 79.5 16.3 118 15.2 93.1-2.7 183.7-38.4 278.4-109.5 67.4-50.6 124.1-107 220.1-218.7 32.1-37.4 50.4-57.8 61.1-68.1 4.1-3.9 13.8-14 21.5-22.5 14.8-16.2 39.8-39.9 56.9-54C1212 177.1 1267 149.8 1318 143c20.4-2.8 48.2-.9 67.2 4.5 8.6 2.5 8.9 2.5 18 1 5.1-.8 11.5-1.5 14.2-1.5h4.9l-4.8-4.3c-17.8-15.9-44-31.8-58-35.2-14-3.4-45.1-5.4-61.5-3.9z" fill="#EFF5FF" fill-opacity=".19"/><path d="M1326.6 143.1c-64.5 5.3-138.9 47.1-209.1 117.4-41.5 41.5-60.7 62.6-117.1 128-103.5 120.2-180.7 190.2-265.4 241-18.3 10.9-58.1 30.6-76.5 37.8-79.3 31-155.5 37.5-234 20.1-112.6-25.1-223.8-65.1-311.5-111.9-6.9-3.7-12-6.2-11.5-5.7 1 1 24.1 14.2 64 36.6 99.8 56 215.7 99.1 293.6 109.1 42.4 5.4 92.6 3.8 142.5-4.5 104.5-17.4 205.5-63.6 285.9-130.6 30.4-25.4 53-48.7 115.8-119.4 94.2-106 110.6-123.8 149.8-162.5 54.3-53.6 97.6-87.5 144.7-113.4 27.1-14.9 62.1-28.3 86.5-33.2l6.9-1.3-3.6-1.2c-7.6-2.7-22.9-5.4-35.7-6.4-7.4-.5-13.8-.9-14.4-.9-.5.1-5.5.5-10.9 1zm590.5 29.6c-7 17.4-21.4 41.7-36.3 61.1-38.3 50-76.3 78.7-121.3 91.7-17.8 5.1-25.2 6-50.5 6-26-.1-32.1-.8-56-7.1-11.1-2.9-15.7-3.7-26-4-6.9-.2-16.5-1.2-21.5-2.3l-9-1.8 9 8.4c30.5 28.6 64.8 47.4 100.8 55.5 13.6 3.1 44.4 3.3 57.7.5 34.3-7.2 67.7-23.7 99-49 14.3-11.5 36.8-34.8 47.8-49.6l9.2-12.3v-51.4c0-28.3-.1-51.4-.3-51.4-.2 0-1.4 2.6-2.6 5.7z" fill="#F1F5FE" fill-opacity=".71"/><path d="M1572.9 290.8c.5.9 5.8 6.8 11.8 13l10.8 11.3 9.2 1.9c5.1 1 14.3 2.1 20.5 2.5l11.3.6-12-4.9c-16.5-6.8-29.1-12.8-41.7-20-6.1-3.4-10.4-5.3-9.9-4.4z" fill="#F1F6FD" fill-opacity=".64"/><path d="M1412.5 148.2c-11.9 1.3-35.5 6.2-49 10.3-74.1 22.5-149.8 76.7-240.4 172-29 30.5-45.4 48.5-93.6 103-46.4 52.5-61.9 69.7-85.8 95.2-33.4 35.7-65.8 63.3-104.7 89.4-124.9 83.9-287.8 120.1-415.5 92.3C345.8 693.5 244.8 653 161 605.3c-5.8-3.3-17.2-9.8-25.5-14.3-43.2-23.9-89-53.5-123.2-79.7L0 502v225h1920V271.9l-9.1 12.2c-29 38.5-71.7 71.5-113.6 87.9-12.6 5-29.5 9.4-41.9 11.1-12.5 1.6-38.4.6-50.2-2-45.3-10-86.1-36.5-127.1-82.5-13-14.6-25.3-29.8-51.3-63.6-23.4-30.3-31.4-39.9-45.6-54.3-20.8-21.3-37.7-31.1-56.7-32.9-2.2-.2-7.6 0-12 .4z" fill="#202342"/></svg>