<svg xmlns="http://www.w3.org/2000/svg" width="1500" height="1500" viewBox="0 0 1600 1600" version="1.1">
<path d="M 750 1.114 C 164.014 39.869, -184.312 674.514, 99.215 1186.836 C 371.938 1679.636, 1054.047 1744.138, 1415.701 1311.326 C 1523.269 1182.593, 1598.860 989.991, 1598.994 844.309 C 1598.997 840.904, 1599.450 837.840, 1600 837.500 C 1600.638 837.106, 1601 823.137, 1601 798.882 C 1601 773.803, 1600.660 761.092, 1600 761.500 C 1599.374 761.887, 1598.998 759.759, 1598.994 755.809 C 1598.958 715.525, 1585.649 635.953, 1569.505 579.500 C 1466.497 219.289, 1122.466 -23.519, 750 1.114 M 778.500 10.640 C 157.831 29.143, -201.092 724.358, 144.069 1239.500 C 479.650 1740.345, 1233.030 1693.582, 1505.427 1155 C 1773.643 624.686, 1372.339 -7.064, 778.500 10.640 M 760.500 100.593 C 758.300 100.798, 750.200 101.451, 742.500 102.044 C 250.780 139.940, -47.581 671.158, 174.130 1114 C 388.615 1542.409, 966.656 1632.952, 1300.008 1290.355 C 1711.727 867.218, 1453.316 163.152, 864 102.411 C 849.504 100.917, 771.697 99.550, 760.500 100.593 M 771.500 111.014 C 226.676 133.288, -78.040 754.756, 237.806 1199.483 C 537.907 1622.042, 1184.633 1572.556, 1416.356 1109.304 C 1651.114 639.982, 1295.581 89.588, 771.500 111.014 M 756.500 201.111 C 282.365 236.865, 34.365 785.654, 321.818 1163 C 616.349 1549.638, 1225.374 1443.871, 1372.684 980.500 C 1500.436 578.650, 1176.892 169.410, 756.500 201.111 M 773.500 211.001 C 301.214 233.337, 45.275 775.005, 328.169 1153.500 C 603.192 1521.464, 1179.136 1444.131, 1348.489 1016.500 C 1505.202 620.785, 1198.344 190.910, 773.500 211.001 M 755.500 301.586 C 378.338 335.590, 173.941 761.728, 383.573 1077 C 597.504 1398.739, 1082.323 1365.468, 1250.596 1017.500 C 1419.019 669.224, 1140.755 266.853, 755.500 301.586 M 776 311.057 C 412.451 328.606, 193.881 727.446, 374.907 1042.960 C 555.976 1358.549, 1006.112 1373.520, 1207.961 1070.667 C 1418.525 754.740, 1201.914 329.486, 821.003 310.983 C 799.797 309.953, 798.837 309.955, 776 311.057 M 769.500 400.625 C 425.498 435.493, 275.320 841.336, 516.992 1083.008 C 752.585 1318.600, 1154.588 1179.513, 1197.678 847.500 C 1229.533 602.060, 1012.889 375.955, 769.500 400.625 M 778 411.070 C 499.766 425.803, 326.948 723.886, 451.634 974 C 576.220 1223.914, 918.441 1264.690, 1097.873 1051 C 1304.685 804.704, 1140.720 428.071, 819.249 410.991 C 799.789 409.957, 799.003 409.958, 778 411.070 M 769 501.131 C 552.472 523.159, 430.015 766.387, 541.542 952.917 C 670.820 1169.135, 992.933 1140.713, 1081.319 905.289 C 1159.303 697.569, 990.119 478.635, 769 501.131 M 787.500 510.621 C 534.818 525.323, 417.597 826.767, 595.415 1004.585 C 766.099 1175.269, 1058.517 1073.633, 1087.646 833.500 C 1108.879 658.454, 962.016 500.467, 787.500 510.621 M 774.536 601.084 C 609.717 623.666, 541.299 824.355, 658.472 941.528 C 763.423 1046.479, 943.021 1004.197, 989.907 863.500 C 1036.284 724.331, 918.899 581.305, 774.536 601.084 M 784.591 611.096 C 625.195 624.224, 552.951 818.010, 664.818 932.376 C 778.861 1048.969, 975.792 976.531, 988.989 813.136 C 997.702 705.265, 901.006 603.296, 796.500 610.149 C 795.400 610.221, 790.041 610.647, 784.591 611.096 M 0.454 800 C 0.454 821.175, 0.587 829.837, 0.749 819.250 C 0.911 808.663, 0.911 791.337, 0.749 780.750 C 0.587 770.163, 0.454 778.825, 0.454 800" stroke="none" opacity="0.1" fill="#a1a1a1" fill-rule="evenodd"/>
</svg>