<?xml version="1.0" standalone="no"?>
<!DOCTYPE svg PUBLIC "-//W3C//DTD SVG 1.1//EN" "http://www.w3.org/Graphics/SVG/1.1/DTD/svg11.dtd" >
<svg xmlns="http://www.w3.org/2000/svg">
    <metadata>
        This is a custom SVG webfont generated by Font Squirrel.
        Copyright   :  thebend aka Dimitri Castrique 2007 wwwthebendbe
        Designer    : Dimitri Castrique
        Foundry     : Dimitri Castrique
        Foundry URL : FREE
    </metadata>
    <defs>
        <font id="webfontkkbjEnfA" horiz-adv-x="909" >
            <font-face units-per-em="2048" ascent="1638" descent="-410" />
            <missing-glyph horiz-adv-x="464" />
            <glyph unicode=" "  horiz-adv-x="464" />
            <glyph unicode="&#x09;" horiz-adv-x="464" />
            <glyph unicode="&#xa0;" horiz-adv-x="464" />
            <glyph unicode="!" horiz-adv-x="395" d="M94 100q0 115 109 115q57 0 76.5 -25.5t17.5 -85t-24.5 -91t-82.5 -31.5q-53 0 -74.5 27.5t-21.5 90.5zM96 1294q2 49 197 49q20 -51 20 -120q0 -33 -37 -727q-8 -76 -145 -76q-33 813 -35 874z" />
            <glyph unicode="&#x22;" horiz-adv-x="600" d="M68 1460q45 27 116 27q16 0 29 -4q27 -8 27 -76v-16q-4 -86 -18.5 -192.5t-28.5 -133.5q-6 -8 -43 -16.5t-58 -8.5q0 29 -12 207t-12 213zM362 1460q45 27 117 27q16 0 29 -4q27 -8 27 -76v-16q-4 -86 -18.5 -192.5t-29.5 -133.5q-6 -8 -42.5 -16.5t-57.5 -8.5 q0 29 -12.5 207t-12.5 213z" />
            <glyph unicode="#" d="M57 479q0 10 27 64h123l35 243h-138v39q-8 14 -8 23q0 4 11.5 31.5t15.5 33.5h135q2 18 4 56.5t6 61t16.5 49t44 38.5t83.5 12q8 -8 8 -22q0 -27 -5 -59.5t-14 -73.5l-12 -62h191q2 16 3 54.5t5 61t16 49t45 39.5t84 13q6 -6 6 -20q0 -37 -13 -108.5t-15 -88.5h118 q0 -31 -2 -39q10 -16 11 -26q0 -4 -10.5 -28.5t-16.5 -33.5h-119q-4 -41 -16 -121.5t-17 -121.5h138v-39q8 -14 8 -25q0 -2 -10.5 -29.5t-14.5 -33.5h-139q-4 -20 -5 -62.5t-5 -69t-16.5 -56t-44 -45t-83.5 -15.5q-8 6 -8 22q0 31 5 68t15.5 88l14.5 70h-195 q-2 -59 -19 -152.5t-54 -93.5q-18 0 -92 16l36 230h-124q0 31 2 41q-11 14 -11 22zM338 543h192q18 152 33 243h-192q-6 -41 -16.5 -121.5t-16.5 -121.5z" />
            <glyph unicode="$" d="M111 86q0 70 39 125q96 -72 245 -72q207 0 207 158q0 57 -28.5 103t-102.5 106q-12 12 -104 94q-117 96 -152 135q-90 100 -90 205q0 98 67.5 174t202.5 98l21 177q0 41 34.5 53t116.5 12l-20 -237q86 -6 141 -28t72 -42q0 -53 -35 -103q-6 -4 -22.5 -4t-34.5 9 q-72 29 -158 28q-90 0 -142.5 -36.5t-52.5 -106.5v-8q10 -55 76 -121q49 -49 158 -135q106 -88 125 -107q121 -106 121 -254q0 -125 -73 -208t-210 -107l-20 -172q0 -41 -34 -53.5t-118 -12.5l20 230q-158 6 -225 61q-24 19 -24 39z" />
            <glyph unicode="%" horiz-adv-x="1433" d="M90 987q0 160 74 259.5t211 99.5h2q131 0 200.5 -81t69.5 -274q0 -168 -71.5 -265t-208.5 -97q-135 0 -206 80.5t-71 277.5zM240 985q0 -240 129 -240q133 0 133 246q0 240 -127 240h-2q-61 0 -97 -62.5t-36 -183.5zM254 4q106 197 799 1335q20 35 28.5 35t34.5 -16 q43 -29 47 -53l-788 -1315q-29 -49 -43 -49q-12 4 -44 25.5t-34 37.5zM786 332q0 162 74 262t213 100h2q131 0 199.5 -83t68.5 -275q0 -166 -71.5 -262.5t-206.5 -96.5t-207 78t-72 277zM934 330q0 -240 131 -240q61 0 97 61.5t36 182.5q0 242 -129 241q-135 1 -135 -245z " />
            <glyph unicode="&#x26;" horiz-adv-x="1187" d="M53 342q0 207 238 377q-139 184 -139 352q0 133 91 212t236 79q96 0 155.5 -23.5t59.5 -60.5q0 -14 -12 -51t-27 -56q-74 53 -172 54q-78 0 -126 -41t-48 -123q0 -72 78 -192.5t177 -231.5l192 -221q129 256 129 420q0 25 -4 47q45 12 151 18q25 0 46.5 2t38 -13.5 t16.5 -49.5q0 -20 -15.5 -33.5t-60.5 -36.5h-51q2 -10 2 -33q0 -209 -136 -436q211 -201 238 -217q-8 -53 -43 -75.5t-72 -22.5q-16 0 -25 2t-24.5 15t-29 27.5t-51.5 51.5l-79 76q-143 -172 -356 -172q-180 0 -278.5 98t-98.5 258zM219 344q0 -90 57.5 -150.5t155.5 -60.5 q141 0 250 133q-201 205 -309 348q-154 -114 -154 -270z" />
            <glyph unicode="'" horiz-adv-x="307" d="M68 1460q45 27 116 27q16 0 29 -4q27 -8 27 -76v-16q-4 -86 -18.5 -192.5t-28.5 -133.5q-6 -8 -43 -16.5t-58 -8.5q0 29 -12 207t-12 213z" />
            <glyph unicode="(" horiz-adv-x="638" d="M125 575v3q0 195 37 366.5t95 288.5t116.5 193.5t115.5 117.5q66 -12 80 -108q-281 -324 -280 -838q0 -287 78.5 -517.5t201.5 -352.5q-25 -111 -92 -111q-41 20 -96 91t-114.5 185.5t-100.5 295.5t-41 386z" />
            <glyph unicode=")" horiz-adv-x="638" d="M72 -266q125 143 201.5 362t76.5 494v10q0 268 -74.5 487.5t-203.5 354.5q23 102 90 102q41 -20 95 -87.5t114.5 -179.5t101.5 -287t41 -372v-2q0 -373 -116.5 -640t-245.5 -359q-35 6 -55.5 40t-24.5 77z" />
            <glyph unicode="*" horiz-adv-x="921" d="M106.5 1087q12.5 43 47.5 80l252 -116q18 -12 20 -23.5t-16 -46.5l-283 51q-33 12 -20.5 55zM203 731l190 203q14 16 29.5 13t38.5 -29l-135 -252q-25 -27 -61.5 -2.5t-61.5 67.5zM416 1333q-2 25 22.5 33t56 2t60.5 -18l-35 -275q-6 -23 -16 -28t-49 2zM496.5 918.5 q7.5 13.5 40.5 27.5l198 -207q25 -27 -13 -56.5t-87 -39.5l-135 244q-11 18 -3.5 31.5zM535 1028l258 123q33 16 48 -30t9 -95l-272 -51q-20 -4 -30.5 6t-12.5 47z" />
            <glyph unicode="+" horiz-adv-x="1021" d="M98 477q0 76 10.5 106.5t38.5 30.5h291v170q0 66 -4 148q16 18 123 22q25 -12 25 -73v-267h340q0 -76 -9.5 -106.5t-42.5 -30.5h-288v-280q2 -25 -8.5 -41.5t-19.5 -23.5t-35.5 -11t-37.5 -4h-43v360h-340z" />
            <glyph unicode="," horiz-adv-x="374" d="M18 -209l32 50q15 24 27.5 46.5t22 45t15.5 47t8 49.5q-16 4 -19 12q-29 100 -28 106q14 31 48 53.5t71 22.5q63 0 85.5 -26.5t18.5 -94.5q-6 -86 -53 -176t-113 -139q-25 -16 -58.5 -16t-56.5 20z" />
            <glyph unicode="-" horiz-adv-x="598" d="M72 444q14 141 53 142q133 12 354 41q23 -4 45 -15q-10 -135 -73 -143q-211 -33 -332 -33q-14 0 -47 8z" />
            <glyph unicode="." horiz-adv-x="374" d="M76 102q0 119 121 119q66 0 87 -26.5t19 -88t-27.5 -94t-93.5 -32.5q-59 0 -82.5 28t-23.5 94z" />
            <glyph unicode="/" horiz-adv-x="716" d="M49 -117l443 1503q6 25 16 35.5t37 12.5q47 6 123 4l-398 -1368q-39 -131 -73 -164q-27 -23 -148 -23z" />
            <glyph unicode="0" d="M61 604q0 420 189 555q88 72 211 72q387 0 387 -600q0 -659 -399 -660q-388 0 -388 633zM248 598q0 -485 207 -485q209 0 209 526q0 453 -199 453h-2q-215 0 -215 -494z" />
            <glyph unicode="1" horiz-adv-x="784" d="M137 1044q16 31 53 66q137 49 379 121q23 -6 43 -19q-6 -319 -10 -1056q18 -8 76.5 -26.5t58.5 -29.5q0 -88 -22 -96q-4 0 -68 -6q-250 -4 -377 -4q0 10 -1 45t-1 53q0 12 15.5 21.5t34.5 15.5l51 15q31 9 49 16q4 262 12 887q-229 -59 -272 -68q-19 32 -21 65z" />
            <glyph unicode="2" d="M72 49q8 61 43 107l188 237q117 143 162 203.5t85 142.5t40 154q0 180 -178 180q-141 0 -262 -80q-16 -12 -21 -12q-20 0 -29.5 39t-9.5 67q37 61 140.5 102.5t226.5 41.5h2q322 0 321 -313q0 -18 -4 -52q-16 -139 -133 -299q-39 -55 -147.5 -185t-186.5 -232 q90 -2 295 -3q55 0 139 4.5t97 4.5q-10 -141 -62 -148q-123 -10 -219 -10q-344 0 -475 8q-8 20 -12 43z" />
            <glyph unicode="3" d="M90 -2q0 27 8 63v6q0 1 2 -1q82 -51 213 -52q150 0 235 88t81 222q0 6 -1 19t-3 19q-12 90 -89 134.5t-200 44.5q-27 0 -72 -4q-2 6 -5 17t-3 17q16 57 29 78q119 45 196.5 116t77.5 161q0 66 -38 107.5t-122 41.5q-135 0 -239 -71q-16 -10 -21 -11q-6 0 -12 8 q-20 39 -21 91v10q25 51 119 90t219 39q164 0 236 -79t72 -181q0 -90 -45 -164q-51 -88 -164 -162q133 -25 204.5 -105.5t71.5 -211.5q0 -217 -140 -339t-355 -122q-145 0 -203 49q-31 27 -31 82z" />
            <glyph unicode="4" d="M39 428q55 137 213 400.5t248 345.5q55 51 131 63q23 0 78 -12q0 -66 -1 -199t-1 -197q0 -270 -2 -397q106 8 141 8q12 -41 12 -47q-25 -72 -86 -88q-16 -4 -41 -4h-26v-242q0 -59 -54 -69q-43 -6 -129 -6v172q0 18 1 67t1 76q-276 0 -430 14q-43 41 -55 115zM221 440 q117 -8 303 -8q4 70 8 289q0 29 1.5 80t2.5 94t3 82q-187 -228 -318 -537z" />
            <glyph unicode="5" d="M98 641q10 78 95 576q219 0 579 16l-8 -109q-4 -20 -19 -22q-86 -23 -423 -29q-35 -178 -50 -305q10 0 35 -1t52 -3l55 -4q61 -8 92 -15q283 -59 309 -317q0 -12 1 -36.5t1 -37.5q0 -35 -2 -51q-14 -203 -144 -318.5t-339 -117.5q-92 0 -146.5 19.5t-66.5 41.5 q-16 49 -17 95q0 23 2 32l2 2q63 -45 201 -45q141 0 232.5 95.5t91.5 240.5q0 201 -197 254q-84 25 -227 33q-70 6 -109 6z" />
            <glyph unicode="6" d="M59 477q0 86 4 135q18 336 164 525q176 223 430 223q133 0 150 -62q0 -35 -10 -71q-301 16 -432 -162q-98 -123 -127 -336q-18 -162 -19 -221q0 -199 63.5 -298t174.5 -99q94 0 157.5 82.5t63.5 230.5q0 207 -143 246q-20 4 -35 4q-45 0 -109 -19v41q0 80 43 103 q49 23 111 22q23 0 33 -2q133 -12 197.5 -118.5t64.5 -256.5q0 -215 -99.5 -343t-298.5 -128q-178 0 -278.5 124t-104.5 380z" />
            <glyph unicode="7" horiz-adv-x="864" d="M80 1128q0 47 29 115q55 -14 176 -14h540q-10 -39 -39 -127q-53 -172 -250.5 -642t-226.5 -556q-25 -2 -55.5 -1t-57 3t-44 10t-15.5 21q74 199 272.5 658.5l211.5 489.5q-152 -4 -345 -4q-109 0 -192 27q-4 8 -4 20z" />
            <glyph unicode="8" d="M68 334q0 117 65 205q63 84 178 155q-84 49 -143 121q-66 78 -66 182q0 154 97.5 248t255.5 94q10 0 29.5 -1t27.5 -1q145 -10 220 -96t75 -215q0 -104 -66 -192q-43 -57 -149 -132q66 -43 108 -79q141 -119 142 -283q0 -158 -102.5 -259t-282.5 -101q-203 0 -296 104.5 t-93 249.5zM236 344q0 -102 62 -162.5t159 -60.5q86 0 147.5 55t61.5 154q0 61 -18.5 99t-61.5 79q-49 49 -152 106q-198 -120 -198 -270zM274 1018q0 -82 72 -148q41 -41 131 -92q170 111 170 240q0 86 -52 133t-132 47q-78 0 -133.5 -47t-55.5 -133z" />
            <glyph unicode="9" d="M57 782q0 211 103.5 336t296.5 125q205 0 286.5 -133t85.5 -442q-4 -451 -227 -656q-82 -74 -179 -110.5t-171 -36.5h-19q-80 2 -102 39q-14 29 -14 86q10 -2 30 -2q100 -2 205 48t176 134q100 135 127 322q12 94 13 196q0 418 -217 418q-109 0 -169.5 -82t-60.5 -221 q0 -104 41 -167t109 -79q33 -4 49 -4q43 0 92 12q2 -14 2 -47q0 -78 -41 -94q-49 -20 -106 -21q-4 0 -16.5 1.5t-18.5 1.5q-131 16 -203 119t-72 257z" />
            <glyph unicode=":" horiz-adv-x="374" d="M76 102q0 119 121 119q66 0 87 -26.5t19 -88.5q-4 -127 -119 -126q-59 0 -83.5 29.5t-24.5 92.5zM76 766q0 119 121 119q66 0 87 -27t19 -88q-4 -127 -119 -127q-59 0 -83.5 30t-24.5 93z" />
            <glyph unicode=";" horiz-adv-x="374" d="M18 -209l32 50q15 24 27.5 46.5t22 45t15.5 47t8 49.5q-16 4 -19 12q-29 100 -28 106q14 31 48 53.5t71 22.5q63 0 85.5 -26.5t18.5 -94.5q-6 -86 -53 -176t-113 -139q-25 -16 -58.5 -16t-56.5 20zM76 766q0 119 121 119q66 0 87 -27t19 -88q-4 -127 -119 -127 q-59 0 -83.5 30t-24.5 93z" />
            <glyph unicode="&#x3c;" horiz-adv-x="937" d="M94 635q0 45 19 67l575 439q27 20 43 18q25 -6 39 -35q23 -45 23 -88l-512 -387l510 -373q0 -66 -23 -100q-16 -25 -35 -29q-23 -4 -45 15l-561 418q-33 28 -33 55z" />
            <glyph unicode="=" horiz-adv-x="1021" d="M98 279q2 76 12.5 106.5t39.5 30.5h774q-2 -76 -11.5 -106.5t-40.5 -30.5h-774zM98 672q2 76 12.5 106.5t39.5 30.5h774q-2 -76 -11.5 -106.5t-40.5 -30.5h-774z" />
            <glyph unicode="&#x3e;" horiz-adv-x="931" d="M135 262l512 387l-510 371q0 59 23 100q16 27 37 29q23 4 43 -14l563 -418q33 -29 33 -53q0 -49 -21 -70l-575 -438q-25 -20 -43 -19q-25 6 -39 35q-17 37 -23 90z" />
            <glyph unicode="?" horiz-adv-x="638" d="M61 1247q27 47 106 74t161 27q272 0 272 -271q0 -92 -36 -162.5t-105 -160.5q-102 -135 -103 -217q0 -25 7.5 -64t7.5 -45v-4q-12 -23 -72 -23q-31 0 -57.5 20.5t-36.5 57.5q-27 106 14 201q27 55 82 133l40.5 57.5t37 58t27 60.5t10.5 64q0 70 -38 103.5t-102 33.5 q-80 0 -163 -53q-52 4 -52 110zM199 100q0 115 108 115q57 0 76.5 -25.5t17.5 -85t-24.5 -91t-81.5 -31.5q-53 0 -74.5 27.5t-21.5 90.5z" />
            <glyph unicode="@" horiz-adv-x="1501" d="M92 449q0 23 4 63q20 360 214 552.5t511 192.5q285 0 439.5 -151.5t154.5 -452.5q0 -328 -108.5 -471t-259.5 -143q-90 0 -129 55q-80 -66 -213 -65q-104 4 -164 55t-62 190q0 156 105 238q80 61 184 70q6 0 17.5 1t17.5 1q35 0 59 -6q0 33 2 45q14 170 -116 163 q-74 0 -140 -34q-27 -12 -49 -13q-14 14 -24 66q0 4 -1.5 10t-1.5 8q0 10 5 19q29 29 98.5 54.5t146.5 25.5q147 0 197 -93q23 -39 29 -112q4 -39 4 -123q-2 -37 -2 -111q-2 -20 -2 -62t-2 -63q0 -76 -5 -161q27 -23 48 -23q78 0 143 111.5t65 353.5q0 250 -108.5 367.5 t-325.5 117.5q-274 0 -423.5 -172t-149.5 -512q0 -328 122 -472t367 -144q117 4 267 41q96 27 139 22q27 -41 31 -92q-59 -43 -89 -53q-166 -53 -313 -63.5t-275 28.5t-219.5 128t-141.5 245t-46 369zM631 266q0 -4 1 -14t1 -14q6 -61 65 -78q14 -2 54 2q92 14 106 96l4 211 q-115 0 -173 -44t-58 -159z" />
            <glyph unicode="A" horiz-adv-x="1071" d="M25 6q2 33 16 72q47 143 213 606t217 625q10 43 21 43q2 0 18 4t25 4q23 4 55 4q29 -6 39 -21l307 -925q12 -33 131 -391l2 -7q0 -6 -8 -14q-43 -14 -115 -14q-41 0 -80 35l-48 158q-34 112 -60 190h-426l-121 -355q-10 -29 -64 -28q-56 0 -122 14zM377 520h338 q-8 31 -37 125l-43 141q-45 141 -86 301q-61 -225 -127 -423z" />
            <glyph unicode="B" d="M121 6v1061v215v18q0 27 2 41q12 4 55 9q115 12 225 12q193 0 285 -84t92 -221q0 -176 -100 -260q-35 -27 -72 -41q49 -12 86 -33q160 -98 160 -287q0 -221 -125 -333.5t-326 -112.5q-145 2 -282 16zM301 135q41 -10 109 -10q106 0 173.5 78t67.5 229q0 29 -2 43 q-12 106 -74.5 149.5t-171.5 43.5q-84 0 -102 -4v-529zM301 799q8 2 28.5 3t50.5 2t42 1q33 0 70 6q43 20 72.5 75.5t29.5 139.5q0 25 -2 35q-18 164 -197 164q-57 0 -94 -6v-420z" />
            <glyph unicode="C" horiz-adv-x="952" d="M70 643q0 397 176 588q145 156 385 155q115 0 188.5 -33.5t91.5 -68.5q0 -63 -28 -102h-9q-10 -2 -57 18q-43 20 -96 29q-41 4 -66 4q-29 0 -43 -2q-154 -14 -252 -155.5t-98 -420.5q0 -522 377 -522q152 0 246 60q12 -23 16 -64q-6 -59 -47 -94q-78 -66 -244 -66 q-264 0 -402 153.5t-138 520.5z" />
            <glyph unicode="D" horiz-adv-x="1079" d="M123 10v1194q0 104 24 139q154 18 289 19q317 0 445.5 -165t128.5 -468q0 -426 -187 -604q-145 -135 -381 -135q-141 0 -319 20zM303 145q68 -10 146 -10q362 0 362 594q0 229 -68.5 341t-212.5 136q-55 12 -122 13q-61 0 -105 -7v-1067z" />
            <glyph unicode="E" horiz-adv-x="784" d="M119 1325q6 2 24.5 10t39 14.5t40.5 6.5h496q-4 -72 -13.5 -99.5t-31.5 -37.5q-49 -8 -189 -9h-182v-417h381q-10 -94 -25.5 -121t-54.5 -27h-301v-500q61 -6 172 -6q186 0 268 4q2 0 2 -2q-8 -78 -22 -106.5t-45 -36.5q-106 -4 -242 -4q-190 0 -299 10q-6 33 -14 84v981 q0 174 -4 256z" />
            <glyph unicode="F" horiz-adv-x="768" d="M119 1325q90 31 110 31h510q-6 -74 -15 -99.5t-32 -33.5q-29 -8 -127 -9h-262v-444h391q-6 -90 -23.5 -117.5t-58.5 -27.5h-309q0 -229 4 -607q-57 -25 -98 -24q-55 0 -86 16v1090q0 94 -4 225z" />
            <glyph unicode="G" horiz-adv-x="1064" d="M66 657q0 387 184 584q135 143 397 143q115 0 188.5 -33.5t92.5 -68.5q0 -55 -29 -94h-8q-2 0 -57 18q-80 29 -175 29q-399 0 -399 -565q0 -553 375 -553q115 0 160 41v458q-25 0 -40.5 3.5t-36 13.5t-32.5 38.5t-14 73.5q0 16 20 17q88 6 262 6q16 -57 17 -209v-485 q-55 -41 -105 -64q-109 -41 -243 -41q-45 0 -68 2q-236 16 -362.5 173t-126.5 513z" />
            <glyph unicode="H" horiz-adv-x="1093" d="M119 -6q4 197 4 362v674q0 150 -4 305q25 25 164 25q20 -31 20 -127v-440h488v428q0 72 20 118q23 20 164 21q-4 -197 -4 -361v-680q0 -141 4 -301q-23 -25 -168 -24q-16 45 -16 104v551q-94 -4 -222 -4h-266v-520q0 -72 -27 -111q-12 -14 -39.5 -17t-117.5 -3z" />
            <glyph unicode="I" horiz-adv-x="423" d="M117 1313q12 29 49 38t119 9q18 0 18 -135q0 -78 -1 -263.5t-1 -277.5q0 -94 1 -254t1 -219v-92q0 -43 1 -68.5t1 -32.5q-20 -25 -166 -24q-18 0 -18 39q0 66 1 288t1 359q0 82 -1 230.5t-1 205.5q0 160 -4 197z" />
            <glyph unicode="J" horiz-adv-x="565" d="M-16 -53q2 33 16 61q29 -6 57 -6q37 0 54.5 2t54.5 20.5t54.5 52.5t31.5 106q11 57 11 131q0 21 -1 44v691q0 137 -4 264q14 29 51 38t119 9q16 -29 16 -123v-850q0 -207 -25.5 -314.5t-111.5 -164.5q-53 -37 -119 -45q-23 -4 -61 -4q-41 0 -76 10q-55 15 -67 78z" />
            <glyph unicode="K" horiz-adv-x="929" d="M117 1335q27 23 170 23q16 -31 16 -127v-483l434 610q12 2 43 2q14 0 40 -1t36 -1q51 -2 51 -29q0 -14 -14 -41q-25 -37 -37 -53l-360 -487q86 -84 183 -249t171 -306.5t102 -167.5q0 -16 -22 -25q-29 -12 -82 -12h-29q-35 4 -63.5 30.5t-42 51t-31.5 69.5 q-115 252 -260 416q-94 104 -119 121v-402q0 -63 1 -147t1 -111q-16 -23 -166 -22q-18 29 -18 86v983q0 129 -4 272z" />
            <glyph unicode="L" horiz-adv-x="772" d="M117 1327q25 33 170 33q16 -41 16 -148v-1062q68 -8 197 -9q168 0 239 6q2 -23 2 -63q-12 -74 -65 -86q-82 -4 -203 -4q-203 0 -336 10q-2 18 -7 53t-9 54v999q0 119 -4 217z" />
            <glyph unicode="M" horiz-adv-x="1359" d="M74 8q14 231 112 1301q0 31 15 39q2 2 37 6q51 6 114 6q53 -109 201 -539q2 -8 9 -29l11 -34l52 -158q33 -104 43 -129q4 12 21 58l28 73l19 56l25 69l19 53l191 531q14 31 20 37q74 12 152 12q14 -45 18 -94q27 -375 62 -758q25 -219 41 -485q-16 -29 -170 -29 q-23 35 -23 84q0 14 -4 52t-4 60q-2 31 -9 116l-12 136q-2 23 -5 62t-3 55q-2 35 -8 277q-2 47 -4 111.5t-2 78.5q0 -2 -1 -2t-1 -2q-88 -276 -144 -428l-141 -389q-10 -35 -45 -41q-35 -8 -92 -8q-10 35 -158 471l-57 182q-41 137 -72 221v-172q-6 -260 -8 -285 q-33 -301 -43 -473q-12 -68 -20 -86q-20 -16 -66 -16q-55 0 -92 6q-6 0 -6 4z" />
            <glyph unicode="N" horiz-adv-x="1140" d="M98 1325l2 18q27 16 140 17q31 0 61 -19q63 -121 188 -333l111 -195l70 -125q113 -215 184 -385v16q0 29 -2 43q-10 158 -10 363v502q0 68 18 110q25 16 48.5 19.5t107.5 3.5q-4 -242 -4 -424v-916q-49 -33 -88 -32q-59 0 -84 10l-293 516l-84 154l-133 284l-49 107 q10 -182 14 -445v-483q0 -68 -19 -111q-16 -18 -44.5 -22t-112.5 -4q4 238 4 422v874q-25 31 -25 35z" />
            <glyph unicode="O" horiz-adv-x="1171" d="M68 674q0 -705 514 -705q262 0 394 186.5t132 534.5q0 336 -128 516t-386 180q-256 0 -391 -181t-135 -531zM266 664q0 287 85 429t235 142h2q147 0 236 -137t89 -414q0 -285 -84 -424t-237 -139q-147 0 -236.5 138.5t-89.5 404.5z" />
            <glyph unicode="P" horiz-adv-x="866" d="M115 1358q18 12 53 14h6q96 6 211 6q440 0 440 -422q0 -104 -31.5 -184t-85 -125t-107.5 -68.5t-112 -29.5q-109 0 -108 86q0 20 31 20q88 0 152.5 74t64.5 236q0 139 -62.5 202.5t-165.5 63.5q-80 0 -102 -4v-520v-385l2 -228q0 -51 -20 -80q-10 -12 -30 -16t-52 -4h-82 q4 238 4 420l-4 884q0 8 -1 29t-1 31z" />
            <glyph unicode="Q" horiz-adv-x="1179" d="M70 674q0 350 135 531t393 181t385 -180t127 -522q0 -613 -391 -700q14 -127 112 -162q33 -10 77 -10q30 0 65 5q86 11 164 29q129 22 209 22q47 0 77 -7q72 -18 140 -90q-18 -45 -27 -60q-51 39 -152 47q-18 2 -38 2q-101 0 -281 -41q-195 -47 -290 -46q-18 0 -32 1 q-106 14 -172.5 120t-64.5 188q-223 23 -329.5 210t-106.5 482zM270 662q0 -264 89.5 -403.5t234.5 -139.5q154 0 237.5 139t83.5 424q0 547 -319 553q-326 0 -326 -573z" />
            <glyph unicode="R" horiz-adv-x="927" d="M117 -6q4 242 4 420v692q0 135 -2 192q0 25 2 39q8 6 43 13l43 6q61 4 88 4h100l54 -2q182 -10 271 -102.5t89 -282.5q0 -121 -75 -231.5t-122 -137.5q78 -113 195 -332t145 -247q3 -4 3 -8q0 -9 -18 -16q-26 -9 -56 -11l-33 -2h-27q-35 2 -63.5 29.5t-43 53t-32.5 68.5 q-117 256 -256 414q-20 4 -35 4h-90v-463q0 -49 -20 -78q-6 -8 -15.5 -12t-23 -6t-30.5 -3t-41 -1h-54zM301 698q16 -2 102 -2q68 0 86 9q55 20 91 88.5t36 183.5q0 121 -56 185.5t-150 64.5q-47 0 -109 -6v-523z" />
            <glyph unicode="S" horiz-adv-x="798" d="M57 86q0 57 39 119q96 -82 246 -82q94 0 150.5 54t56.5 151q0 66 -28.5 119t-102.5 122q-14 16 -105 107q-121 117 -151 155q-90 115 -90 236q0 133 91 226t275 93q109 0 179.5 -26.5t89.5 -54.5q0 -49 -31 -99q-8 -6 -23 -6q-12 0 -37 10q-74 35 -159 35 q-90 0 -142.5 -43t-52.5 -123v-28q10 -63 76 -140q43 -49 158 -155q90 -82 125 -121q121 -123 120 -293q0 -172 -102 -272.5t-291 -100.5q-186 0 -266 72q-25 22 -25 45z" />
            <glyph unicode="T" horiz-adv-x="937" d="M27 1237q0 47 16 88q6 16 25 35q4 0 20 -1t29 -1q45 -2 180 -2h627q0 -49 -15 -107q-10 -33 -43 -41h-309v-927q0 -131 4 -263q-29 -25 -166 -24q-18 33 -18 88v1126h-262q-45 0 -86 6q-2 9 -2 23z" />
            <glyph unicode="U" horiz-adv-x="1130" d="M113 1333q20 27 168 27q20 -37 20 -154v-567q0 -133 14 -227q25 -145 84.5 -220t173.5 -75q150 0 222 45q41 199 41 487l2 561q0 70 20 127q23 14 49.5 18.5t106.5 4.5q-4 -213 -4 -385v-326q0 -322 -56 -553q-104 -127 -393 -127q-219 0 -314 113t-120 324 q-10 113 -10 217v389q0 153 -4 321z" />
            <glyph unicode="V" horiz-adv-x="1005" d="M27 1313q12 35 63 41q55 6 109 6q14 -16 59 -148l178 -618l44 -170q38 -145 52 -217q14 61 51.5 200.5t49.5 190.5l110 399q8 33 84 289q14 47 25 68q14 4 37 4h18q61 -4 103 -8q8 -2 8 -27q0 -2 -19 -90l-112 -389q-180 -645 -258 -824q-45 -31 -92 -34h-6q-34 0 -72 22 l-39 27q-10 18 -19 41l-206 690q-145 496 -168 547z" />
            <glyph unicode="W" horiz-adv-x="1579" d="M45 1305q18 43 66 47q55 6 100 6q10 -2 23.5 -51.5t15.5 -71.5q29 -131 151 -635q72 -342 78 -377q20 137 64 346l168 688l8 41q8 8 31 13q18 4 51 8q37 4 55 4q20 -27 33 -86l151 -625l82 -395l42 206l38 181q109 426 170 705l14 43q6 6 39 6q8 0 22.5 -1t26 -2t21.5 -3 q31 0 53 -9v-8q0 -29 -12 -78q0 -2 -76 -292q-213 -862 -246 -938q-53 -37 -90 -41q-7 -1 -13 -2q-27 0 -58 20l-41 27q-2 6 -5 19t-6 18l-106 436q-33 135 -104 493q-59 -311 -107 -491l-115 -475q-47 -37 -92 -41q-5 -1 -9 -1q-31 0 -67 23l-39 27l-20 65 q-29 104 -102 405l-99 394q-88 384 -96 402z" />
            <glyph unicode="X" horiz-adv-x="1017" d="M23 12l380 680q-53 106 -173.5 327.5t-159.5 301.5q0 16 16 22q86 16 168 17q18 -16 49 -74q33 -55 88 -164q86 -182 135 -274q27 45 78 149.5t70 139.5l98 188l8 18q10 14 41 15q35 0 135 -15q-6 -29 -14 -55q-98 -195 -324 -575q225 -393 373 -690q2 -4 2 -11 q0 -2 -2 -2q-20 -18 -141 -18q-45 0 -80 18l-125 244q-123 246 -147 291l-154 -291q-90 -158 -129 -236q-14 -23 -45 -22q-63 0 -100 8q-12 2 -27.5 5t-19.5 3z" />
            <glyph unicode="Y" horiz-adv-x="946" d="M23 1331q0 14 96 15h102l262 -578l269 578q33 12 63 12q25 0 96 -6q4 -16 4 -25q0 -20 -22 -74q-31 -74 -154 -294t-145 -275q-25 -63 -29 -102v-299q0 -63 1 -150.5t1 -112.5q-23 -29 -168 -28q-16 39 -16 92v481q0 35 -4 47q-37 100 -109 236l-123 239l-122 240z" />
            <glyph unicode="Z" horiz-adv-x="956" d="M49 72q0 4 1 12t1 12q362 604 619 1116h-473q-104 0 -105 25v4q0 6 6 39t11 49q16 31 32 35q66 -8 125 -8h611v-6q0 -4 1 -17.5t1 -21.5q0 -45 -25 -99q-154 -336 -571 -1069q178 -6 462 -6q63 0 166 10q4 -16 4 -36q0 -14 -2 -29q-29 -76 -71 -82q-68 -6 -258 -6 q-305 0 -510 8q-18 18 -23 43q0 6 -1 14.5t-1 12.5z" />
            <glyph unicode="[" horiz-adv-x="733" d="M219 -6q0 94 1 307t1 324q0 352 8 913q0 55 11 74q10 6 92 14t137 8q61 -8 207 -45q0 -55 -8.5 -69.5t-40.5 -16.5q-20 -2 -73.5 -5t-76.5 -5q-55 -6 -92 -25q0 -86 -3 -376.5t-3 -509.5q0 -492 2 -605q2 -66 22 -120q4 0 162 -11q61 -4 101 -14q0 -68 -7.5 -89.5 t-31.5 -27.5q-154 0 -406 19q-2 76 -2 260z" />
            <glyph unicode="\" horiz-adv-x="667" d="M51 1405q0 33 113 33h39l372 -1377q23 -86 23 -135q0 -20 -2 -30q-8 -14 -32.5 -18.5t-100.5 -4.5l-410 1513q-2 9 -2 19z" />
            <glyph unicode="]" horiz-adv-x="733" d="M57 -240q0 55 8.5 69.5t40.5 16.5q115 8 150 11q49 2 90 24q8 713 8 887q0 547 -2 604q-2 66 -22 121q-20 2 -45 3t-60 3t-57 4q-61 4 -100 15q0 68 7 89t31 27q160 0 406 -18q2 -76 2 -260q0 -94 -1 -307t-1 -324v-2q0 -350 -8 -911q0 -57 -10 -74q-10 -6 -92.5 -14.5 t-137.5 -8.5q-94 14 -207 45z" />
            <glyph unicode="^" horiz-adv-x="796" d="M92 885q4 8 55 121l99 209q47 97 73 135q25 27 41 36q29 12 50 13q31 -33 157.5 -265.5t128.5 -234.5q-45 -70 -86 -70q-16 0 -39 27q-18 23 -60 103l-82 165l-46 97q-14 -23 -83 -176.5t-89 -180.5q-27 -31 -39 -30q-64 20 -80 51z" />
            <glyph unicode="_" horiz-adv-x="899" d="M14 -201q0 106 17 125h854q0 -106 -19 -125h-852z" />
            <glyph unicode="`" horiz-adv-x="657" d="M125 1393q0 20 14 37q43 61 88 61h2q18 -2 104.5 -106.5t115.5 -163.5q2 -4 2 -11q0 -20 -25 -46.5t-43 -28.5q-18 20 -123.5 118.5t-132.5 126.5q-2 5 -2 13z" />
            <glyph unicode="a" horiz-adv-x="808" d="M49 248q0 72 24.5 129t61.5 92t86 58.5t90 33.5t84 14q20 2 58 3q39 0 67 -7v117q0 78 -18.5 110.5t-79.5 32.5q-86 0 -215 -53q-37 -16 -60 -16q-20 23 -30 82q-2 6 -2 22q0 10 4 23q37 35 122 65.5t181 32.5q37 0 72 -2q109 -8 154.5 -77.5t45.5 -207.5v-92 q0 -76 -2 -220t-2 -193v-27q0 -27 14.5 -50.5t43.5 -17.5q-2 -29 -3 -75q-33 -45 -108 -48q-33 0 -69 24t-54 50q-33 -33 -59 -47q-53 -27 -150 -27q-106 0 -181 69t-75 202zM229 264q0 -139 109 -145h14q104 0 158 63q2 4 6 29t4 98v146q-12 2 -41 2q-27 0 -67 -4 q-183 -31 -183 -189z" />
            <glyph unicode="b" horiz-adv-x="927" d="M115 1393q25 55 164 55q16 -39 16 -156v-381q106 76 237 76q152 0 243 -104.5t91 -321.5q0 -365 -198 -512q-111 -76 -269 -76q-172 0 -262 56q-18 43 -18 116v1049q0 101 -4 199zM295 135q49 -27 123 -26q104 0 180 98t76 325q0 166 -54.5 238t-160.5 72q-98 0 -164 -58 v-649z" />
            <glyph unicode="c" horiz-adv-x="753" d="M66 463q0 287 149 424q106 100 281 100q82 0 146.5 -28.5t72.5 -53.5q0 -53 -27 -100h-10q-14 0 -55 12q-59 27 -123 27q-18 0 -29 -2q-102 -8 -161.5 -100.5t-59.5 -268.5q0 -356 262 -356q94 0 176 39q12 -41 12 -58q-4 -51 -45 -82q-66 -45 -180 -45 q-90 0 -158.5 20.5t-128 71t-91 152t-31.5 248.5z" />
            <glyph unicode="d" horiz-adv-x="931" d="M66 446q0 266 135 418q111 123 272 123q100 0 160 -37v244q0 100 -4 199q25 55 164 55q16 -39 16 -156v-688q0 -76 -2 -219t-2 -192v-27q0 -27 14.5 -50.5t42.5 -17.5q-2 -29 -2 -75q-29 -45 -108 -48h-4q-64 0 -119 72q-33 -33 -60 -45q-56 -29 -130 -29h-19 q-354 18 -354 473zM258 467q0 -346 217 -346q102 0 150 57q6 12 6 29q2 25 2 98v506q-45 39 -131 39q-102 0 -173 -94t-71 -289z" />
            <glyph unicode="e" horiz-adv-x="815" d="M66 444q0 283 106.5 413t286.5 130q266 0 297 -289q4 -61 4 -98q0 -72 -12 -121q-39 -33 -144 -47q-96 -12 -266 -12q-59 0 -92 2q2 -160 64.5 -228.5t176.5 -68.5q135 0 228 49q8 -23 12 -82q-2 -29 -38 -58.5t-81 -39.5q-76 -20 -155 -21q-180 0 -279 99 q-108 112 -108 372zM250 549h78q143 0 202 6q35 4 48 12q10 27 10 68q0 8 -1 23.5t-1 21.5q-16 174 -148 174q-12 0 -18 -2q-68 -10 -115 -87t-55 -216z" />
            <glyph unicode="f" horiz-adv-x="538" d="M33 848q6 55 14 71.5t32.5 22.5l80.5 19q0 90 8 153q8 96 44 167t89 105.5t107.5 50t113.5 15.5q119 0 154 -39q6 -8 6 -33q-4 -31 -10 -45q-12 -29 -25 -41q-4 -2 -41 9q-27 8 -82 8q-174 0 -184 -217q-2 -43 -2 -133h111q90 0 116 2q-4 -70 -13 -94.5t-32 -32.5 q-12 -6 -22 -9q-43 -4 -162 -4q0 -344 4 -782q0 -33 -16 -39q-43 -8 -117 -8q-16 0 -45 4q-2 12 -2 47q0 41 1 124t1 126q0 82 -1 258t-1 270q-98 2 -127 25z" />
            <glyph unicode="g" horiz-adv-x="862" d="M25 -440q-3 11 -3 22q0 63 82 150q98 102 222 182q34 -18 34 -60q0 -31 -24 -51q-136 -120 -137 -167q0 -5 2 -9q8 -32 71 -32q53 0 144 22q106 27 183 110q75 81 75 149q0 24 -4 36q-16 43 -40 65.5t-83 28.5q-45 6 -141 10l-37 2q-57 6 -107 19l-49 10 q-137 43 -141 139q0 16 22 43q18 18 123 117q-135 84 -135 283q0 168 97 263t251 95q90 0 164 -39q18 -10 31 0q45 2 119.5 6t91.5 4q12 -25 12 -61q0 -82 -55 -82q-41 0 -95 6q55 -80 56 -184q0 -160 -89.5 -250t-246.5 -90q-45 0 -96 10l-50 -49q-14 -16 -14 -35 q0 -43 125 -55l86 -7q61 -5 94 -7q49 -4 72 -9q201 -33 209 -208q0 -141 -122 -271.5t-308 -169.5q-76 -16 -155 -20q-14 -1 -27 -1q-64 0 -123 16q-72 20 -84 69zM260 639q20 -221 182 -221q80 0 116 64q28 50 28 129q0 22 -2 46q-20 211 -178 211q-74 0 -115 -59 q-33 -48 -33 -128q0 -20 2 -42z" />
            <glyph unicode="h" horiz-adv-x="921" d="M113 -6q4 238 4 426v782q0 98 -4 193q29 53 163 53q16 -31 17 -135v-434q59 55 129 84q63 25 133 24q145 0 200.5 -88t55.5 -297v-301q0 -207 2 -283q-16 -16 -46 -20t-122 -4q-14 35 -14 94v496q0 68 -4 88q-4 92 -38 128t-95 36q-109 0 -201 -93v-622q0 -72 -21 -107 q-18 -14 -44.5 -17t-114.5 -3z" />
            <glyph unicode="i" horiz-adv-x="413" d="M106 1315q0 115 109 115q57 0 77 -26q18 -23 17 -74v-11q-2 -59 -24.5 -91t-81.5 -32q-53 0 -75 28t-22 91zM113 918q23 49 168 49q16 -33 16 -146v-696q0 -70 -25 -109q-10 -14 -36.5 -17t-120.5 -5q0 49 1 167t1 183v363q0 105 -4 211z" />
            <glyph unicode="j" horiz-adv-x="421" d="M-137 -326q0 39 12 60q2 0 9 -1t12 -1q61 0 133 32q49 20 68.5 68.5t23.5 147t4 163.5v523q0 117 -4 252q23 49 166 49q16 -31 16 -131v-652q0 -139 -12 -260q-14 -133 -60 -207q-63 -100 -180 -116q-16 -2 -47 -2q-45 0 -70 8q-61 10 -71 67zM113 1315q0 115 108 115 q57 0 77 -26q18 -23 18 -74q0 -5 -1 -11q-2 -59 -24.5 -91t-81.5 -32q-53 0 -74.5 28t-21.5 91z" />
            <glyph unicode="k" horiz-adv-x="811" d="M111 1389q25 61 155 61q25 -41 25 -162v-368q102 86 254 86q92 0 132 -59.5t40 -137.5q0 -82 -33 -151.5t-82 -112.5t-88 -67.5t-72 -35.5q37 -25 113 -110l179 -214q103 -128 122 -149q9 -7 9 -13q0 -14 -40 -30q-35 -10 -73 -10q-47 0 -109 47q-16 14 -83.5 99 t-106.5 126l-127 136q-14 14 -35 30v-297q0 -47 -25.5 -55t-152.5 -8q4 143 4 401v750q0 76 -4 186zM291 506q102 47 168.5 118.5t66.5 155.5q0 82 -67 82q-86 0 -168 -117v-239z" />
            <glyph unicode="l" horiz-adv-x="411" d="M113 1395q23 53 166 53q14 -47 14 -191v-1064v-27q0 -27 14.5 -50.5t42.5 -17.5q-2 -29 -2 -75q-29 -45 -108 -48q-33 0 -74 27q-49 33 -49 102v21v1038q0 109 -4 232z" />
            <glyph unicode="m" horiz-adv-x="1390" d="M96 899q12 16 82 47q6 2 15 2q49 0 63 -61q66 55 141 80q61 20 129 20q25 0 37 -2q125 -8 180 -102q70 57 148 82q61 20 125 20q29 0 41 -2q127 -10 175 -97t48 -255v-344q0 -195 4 -269q-33 -25 -168 -24q-14 29 -14 65v562q0 121 -30 169t-107 48q-96 0 -174 -86v-242 v-481q0 -27 -27 -33q-14 -2 -72 -2h-84q4 104 4 383v246q0 121 -30.5 169t-106.5 48q-100 0 -178 -86v-664q0 -49 -21 -76q-18 -14 -44.5 -17t-112.5 -3q2 104 2 385v366q0 84 -25 154z" />
            <glyph unicode="n" horiz-adv-x="925" d="M96 895q12 16 82 47q6 2 15 2q49 0 63 -61q68 57 141 80q68 23 127 22q172 0 231.5 -86t59.5 -274v-314q0 -129 4 -293q-27 -25 -168 -24q-16 31 -16 84v543q0 119 -35 167t-127 48q-98 0 -176 -86v-639q0 -63 -23 -97q-10 -8 -19 -11t-26.5 -5t-44 -3t-67.5 -1 q4 221 4 399v348q0 84 -25 154z" />
            <glyph unicode="o" horiz-adv-x="907" d="M57 475q0 256 108.5 384t293.5 128q389 0 389 -500q0 -248 -109.5 -382t-285.5 -134q-396 0 -396 504zM248 483q0 -379 209 -379q90 0 146 89.5t56 287.5q0 369 -202 369h-4q-90 0 -147.5 -89.5t-57.5 -277.5z" />
            <glyph unicode="p" horiz-adv-x="937" d="M98 899q8 12 80 47l15 2q51 0 65 -61q70 57 141 80q68 23 123 22q158 0 255 -108.5t97 -333.5q0 -356 -178 -500q-94 -76 -215 -76q-113 0 -182 54v-340q0 -61 -4 -88q-18 -12 -72 -18q-18 -2 -34 -2q-33 0 -62 7q-6 35 -6 205v956q0 91 -23 154zM299 174q51 -66 152 -65 q90 0 160.5 97t70.5 326q0 307 -203 308q-86 0 -180 -80v-586z" />
            <glyph unicode="q" horiz-adv-x="933" d="M66 436q0 287 167 434q100 92 238 111q39 4 76 4q151 0 291 -59q-25 -70 -25 -154v-348v53v-837q0 -39 -15.5 -51.5t-72.5 -14.5h-92q4 184 4 334v137q-82 -78 -213 -78q-154 0 -256 113.5t-102 355.5zM258 444q0 -168 60.5 -246.5t160.5 -78.5q111 0 158 74v593 q0 29 6 43q-53 18 -133 23q-102 0 -177 -103.5t-75 -304.5z" />
            <glyph unicode="r" horiz-adv-x="614" d="M96 895q18 18 84 47q6 2 15 2q45 0 63 -61q61 53 139 80q56 18 93 17q10 0 18 -1q80 -8 88 -51q0 -70 -33 -119q-8 -2 -18 -2q-16 0 -49 4q-14 4 -37 4q-100 0 -162 -65v-654q0 -57 -18 -82q-29 -20 -162 -20q4 221 4 401l2 346q0 78 -27 154z" />
            <glyph unicode="s" horiz-adv-x="708" d="M57 61q0 59 33 103h8q23 0 56 -17q76 -33 155 -32q14 0 39 4q55 6 87 38.5t32 84.5q0 70 -88 133q-127 92 -166 125l-49 43q-90 88 -90 192q0 117 86 184.5t225 67.5q27 0 59 -4q82 -6 128 -31.5t55 -50.5q0 -49 -31 -92q-92 20 -94 20q-47 18 -101 19q-63 0 -101 -30 t-38 -77q0 -53 66 -104q20 -16 97 -70.5t110 -83.5q121 -96 120 -223q0 -137 -96 -212t-246 -75q-96 0 -169 24.5t-87 63.5z" />
            <glyph unicode="t" horiz-adv-x="649" d="M45 842q0 33 1 43t5 16t12 12q16 14 65.5 27.5t57.5 17.5l11 185q27 74 153 82q-4 -188 -4 -264h264q-4 -74 -14 -100.5t-33 -31.5q-33 -4 -49 -4q-53 -2 -168 -2q-4 -188 -4 -278q0 -47 1 -127t1 -111q6 -98 28.5 -146t80.5 -48q3 0 5 -1q23 0 70 15q53 16 66 27 q4 -25 4 -45q0 -39 -2 -58q-6 -23 -31 -41q-61 -39 -172 -39q-225 0 -225 344v506q-82 1 -123 21z" />
            <glyph unicode="u" horiz-adv-x="931" d="M106 932q18 20 97 57q8 2 16 2q55 0 74 -69q23 -86 22 -197l-20 -375q0 -131 38 -177t118 -46h9q48 0 94 18q50 20 77 54v651q0 63 22 96q10 8 19.5 11.5t27 5.5t44 3t67.5 1q-4 -221 -4 -400v-348q0 -84 24 -153q-12 -16 -81 -48q-6 -2 -15 -2q-49 0 -63 62 q-68 -57 -142 -80q-68 -23 -127 -23q-168 8 -226 90t-62 259l20 428q0 94 -29 180z" />
            <glyph unicode="v" horiz-adv-x="802" d="M35 922q16 51 164 51q23 -23 37 -78l71 -248l58 -241q39 -166 49 -201q10 29 50 198.5t64 260.5l80 292q14 10 45 11q39 0 107 -9q6 -8 6 -24q0 -33 -23 -96l-249 -813q-20 -20 -86 -35q-6 -2 -15 -2q-27 0 -52.5 12t-31.5 31q-66 240 -176 581q-55 146 -98 310z" />
            <glyph unicode="w" horiz-adv-x="1243" d="M33 928q20 43 172 43q20 -18 31 -64l61 -252q84 -399 92 -430q29 86 78 301q61 250 88 373q2 6 2 16v21q4 6 59 16q35 6 57 7q13 0 21 -3q16 -14 33 -79l82 -351l72 -301q37 111 104 445q27 100 59 264q8 27 11 31q8 6 26 6q23 0 72 -6.5t53 -8.5q6 0 7 -18 q0 -19 -17 -76l-100 -367q-82 -300 -123 -436q-8 -23 -12.5 -37t-10.5 -22t-16 -12q-45 -6 -111 -8q-39 31 -57 94l-41 151q-27 102 -98 439q-27 -145 -113 -461l-37 -144q-8 -23 -12 -37t-10 -22t-17 -12q-45 -6 -110 -8q-39 31 -58 94l-149 547q-72 266 -88 307z" />
            <glyph unicode="x" horiz-adv-x="862" d="M31 0l18 49l283 449l-262 430l-7 18q47 27 107 27h68q18 -16 84 -123l127 -221l106 188l74 119q14 20 26.5 27.5t42.5 7.5q47 0 119 -15q-4 -8 -11 -25.5t-11 -25.5l-256 -393l290 -479l11 -25q-29 -10 -115 -14q-39 0 -96 14l-74 121q-78 133 -135 242 q-131 -238 -201 -346q-10 -20 -27.5 -25.5t-66.5 -5.5t-94 6z" />
            <glyph unicode="y" horiz-adv-x="800" d="M20 -340l13 55q16 5 59 6q7 0 16 -1h7q51 0 80 14q39 20 80.5 116.5t66.5 198.5l-10 10q-18 27 -41 95q-154 512 -248 772q18 47 158 47q20 0 41 -82q68 -217 116 -397l42 -166l26 -107q14 37 70 283q18 84 55 235.5t49 208.5q20 18 62 19q8 0 90 -4q10 -20 10 -43 q0 -20 -10 -56q-113 -461 -269 -895q-147 -377 -307 -377q-136 0 -156 68z" />
            <glyph unicode="z" horiz-adv-x="739" d="M39 68q2 20 18 49q338 565 414 708h-219q-16 0 -46 -1t-44 -1q-106 0 -107 21v4q12 115 45 123q49 -10 179 -10h397v-7q0 -4 2 -18q3 -18 2 -34q0 -24 -23 -68q-88 -176 -387 -693q119 -4 224 -4q162 0 219 15q0 -35 -6 -70q-8 -63 -41 -74q-55 -10 -224 -10 q-274 0 -374 6q-25 33 -29 64z" />
            <glyph unicode="{" horiz-adv-x="665" d="M78 629q0 16 4 33q213 10 217 131q2 25 -6 67q-14 51 -51 139q-72 172 -72 242q0 172 170 242q94 41 217 47q10 -31 14 -39q12 -33 13 -37q0 -6 -4 -10q-4 -10 -15 -12q-18 -4 -43 -9l-35 -8q-135 -31 -147 -147q-2 -33 6 -74q10 -35 47 -117q72 -170 72 -246 q0 -164 -150 -215q152 -55 152 -206q0 -25 -12 -74q-14 -82 -64 -199q-31 -80 -47 -137q-8 -41 -8 -57q0 -59 40 -102.5t109 -57.5q14 -4 47 -8l33 -6q14 -2 19 -11q0 -2 2 -6v-4q0 -14 -17 -47q-8 -10 -14 -31q-195 4 -287 72q-100 72 -100 209q0 86 74 262q37 90 51 145 q10 53 6 78q-4 45 -35 76t-119 39q-33 2 -53 31q-14 20 -14 47z" />
            <glyph unicode="|" horiz-adv-x="626" d="M231 -461v2040q18 16 46 19.5t118 3.5v-2042q-18 -14 -47 -17.5t-117 -3.5z" />
            <glyph unicode="}" horiz-adv-x="665" d="M78 -248v-4q0 -14 16 -47q8 -10 15 -31q195 4 286 72q100 72 101 209q0 86 -74 262q-37 90 -51 145q-10 53 -6 78q4 45 34.5 76t118.5 39q33 2 53 31q14 20 15 47q0 16 -4 33q-213 10 -217 131q-2 25 6 67q14 51 51 139q72 172 72 242q0 172 -170 242q-94 41 -218 47 q-10 -31 -14 -39q-12 -33 -12 -37q0 -6 4 -10q4 -10 14 -12q18 -4 43 -9l35 -8q135 -31 148 -147q2 -33 -7 -74q-10 -35 -47 -117q-72 -170 -71 -246q0 -164 149 -215q-152 -55 -151 -206q0 -25 12 -74q14 -82 63 -199q29 -80 47 -137q8 -41 9 -57q0 -59 -40 -102.5 t-110 -57.5q-14 -4 -47 -8l-33 -6q-14 -2 -18 -11q0 -2 -2 -6z" />
            <glyph unicode="~" horiz-adv-x="1024" d="M51 397q47 346 248 346q125 -6 244 -116l48 -42q26 -22 48.5 -38.5t46 -26.5t45.5 -10q96 0 117 168q4 29 20 61q63 0 107 -30q-20 -182 -79.5 -257t-156.5 -75q-47 0 -103 28.5t-90 54t-102 81.5q-84 72 -135 71q-47 0 -79.5 -44t-51.5 -169q-16 -16 -51 -16 q-49 2 -76 14z" />
            <glyph unicode="&#xa2;" d="M150 532q0 125 30.5 221.5t81.5 152t100.5 85t104.5 43.5l6 137q2 49 74 58q12 2 36.5 3t37.5 1q-4 -123 -9 -193q127 -16 156 -69q0 -49 -23 -92q-12 -6 -32 -7q-14 0 -33 7q-35 14 -68 16q-25 4 -34 4q-246 0 -246 -350q0 -182 63.5 -251t173.5 -69q100 0 183 43 q0 -90 -23 -125q0 -8 -12 -18q-59 -39 -156 -45l-6 -150q-2 -51 -63 -57q-39 -6 -89 -6l13 221q-266 55 -266 440z" />
            <glyph unicode="&#xa3;" horiz-adv-x="987" d="M111 37l2 117q141 76 159 270q2 12 2 39q0 74 -26 184l-123 -12q-8 102 10 125q16 10 47 14l35 4q-14 72 -14 164q12 205 108 324q100 123 275 135q115 0 188.5 -34t91.5 -69q0 -63 -28 -102q-18 -4 -66 18q-41 20 -96 29q-63 8 -96 2q-162 -27 -179 -278q-2 -14 -2 -41 q0 -55 15 -127l348 35q10 -133 -47 -138l-271 -28q23 -113 23 -195q0 -12 -3 -39.5t-3 -38.5q-12 -121 -94 -213q143 -31 292 -30q186 0 293 18q4 -31 -4 -78q-4 -43 -39 -65q-18 -16 -51 -27q-88 -18 -213 -18q-231 0 -534 55z" />
            <glyph unicode="&#xa5;" d="M23 1331q0 14 96 15h102l262 -578l269 578q33 12 63 12q25 0 96 -6q4 -16 4 -25q0 -20 -22 -74q-31 -74 -154 -294t-145 -275q-16 -33 -21 -68l222 23q10 -133 -47 -137l-183 -19v-200q0 -63 1 -150.5t1 -112.5q-23 -29 -168 -28q-16 39 -16 92v381l-225 -23 q-8 100 10 125q12 8 47 13l168 18q-2 2 -2 7t-2 7q-37 100 -109 236l-123 239l-122 240z" />
            <glyph unicode="&#xa9;" horiz-adv-x="1183" d="M74 877q0 256 144 401t382 145q236 0 372 -141t136 -403q0 -252 -142.5 -400.5t-373.5 -148.5q-240 0 -379 141.5t-139 405.5zM195 877q0 -207 106.5 -325t290.5 -118q176 0 285.5 121t109.5 326q0 203 -104.5 322.5t-282.5 119.5q-182 0 -293.5 -118t-111.5 -322v-6z M358 866q0 160 77 235t198 75q51 0 91 -13.5t48 -27.5q0 -35 -14 -64q-8 -4 -15 -4q-12 0 -24 6q-25 8 -45 10q-16 2 -56 2q-63 -6 -106 -57t-43 -158q0 -23 6 -41q10 -86 51 -120.5t117 -34.5q43 0 111 22q8 -16 14 -41q-4 -27 -27 -47q-47 -27 -120 -26q-129 0 -196 67 t-67 217z" />
            <glyph unicode="&#xad;" horiz-adv-x="598" d="M72 444q14 141 53 142q133 12 354 41q23 -4 45 -15q-10 -135 -73 -143q-211 -33 -332 -33q-14 0 -47 8z" />
            <glyph unicode="&#xae;" horiz-adv-x="811" d="M68 1073q0 172 91 266.5t253 94.5q332 0 331 -359q0 -168 -90 -265t-250 -97q-335 0 -335 360zM166 1073q0 -137 61.5 -204.5t173.5 -67.5q109 0 176.5 71.5t67.5 204.5q0 129 -61.5 200t-171.5 71h-2q-113 0 -178.5 -70t-65.5 -205zM293 881v385q12 6 18 6q2 0 6.5 1 t6.5 1q8 2 24 2q39 0 58 -2q125 -2 124 -115q0 -72 -59 -104q57 -70 78 -158v-4q0 -8 -2 -10q-10 -4 -37 -4q-8 0 -10 2q-16 0 -33 6q-12 80 -57 139h-13q-8 8 -26 8h-9v-145q-10 -8 -69 -8zM362 1090h25q23 0 37 6q33 16 33 65q0 59 -60 60q-6 0 -18 -1t-17 -1v-129z" />
            <glyph unicode="&#xb4;" horiz-adv-x="686" d="M217 1204q0 10 2 17q184 264 221 264q33 0 69 -34t36 -62q-4 -6 -23 -25l-241 -236q-23 4 -43.5 27.5t-20.5 48.5z" />
            <glyph unicode="&#x2000;" horiz-adv-x="817" />
            <glyph unicode="&#x2001;" horiz-adv-x="1634" />
            <glyph unicode="&#x2002;" horiz-adv-x="817" />
            <glyph unicode="&#x2003;" horiz-adv-x="1634" />
            <glyph unicode="&#x2004;" horiz-adv-x="544" />
            <glyph unicode="&#x2005;" horiz-adv-x="407" />
            <glyph unicode="&#x2006;" horiz-adv-x="272" />
            <glyph unicode="&#x2007;" horiz-adv-x="272" />
            <glyph unicode="&#x2008;" horiz-adv-x="202" />
            <glyph unicode="&#x2009;" horiz-adv-x="325" />
            <glyph unicode="&#x200a;" horiz-adv-x="90" />
            <glyph unicode="&#x2010;" horiz-adv-x="598" d="M72 444q14 141 53 142q133 12 354 41q23 -4 45 -15q-10 -135 -73 -143q-211 -33 -332 -33q-14 0 -47 8z" />
            <glyph unicode="&#x2011;" horiz-adv-x="598" d="M72 444q14 141 53 142q133 12 354 41q23 -4 45 -15q-10 -135 -73 -143q-211 -33 -332 -33q-14 0 -47 8z" />
            <glyph unicode="&#x2012;" horiz-adv-x="598" d="M72 444q14 141 53 142q133 12 354 41q23 -4 45 -15q-10 -135 -73 -143q-211 -33 -332 -33q-14 0 -47 8z" />
            <glyph unicode="&#x2013;" horiz-adv-x="999" d="M33 516q2 137 96 137h782v-69q-6 -80 -27.5 -113t-64.5 -33h-784q-2 33 -2 78z" />
            <glyph unicode="&#x2014;" horiz-adv-x="1673" d="M55 463q0 96 21 110q53 35 145 35h1397q-4 -96 -23 -108q-47 -37 -137 -37h-1403z" />
            <glyph unicode="&#x2018;" horiz-adv-x="382" d="M68 1153q0 16 2 27q6 76 41.5 155.5t76.5 126.5q37 37 72 37q33 0 53 -22q-70 -129 -73 -269q12 -4 14 -12q4 -12 14 -78q-10 -31 -39.5 -52.5t-66.5 -21.5q-20 0 -31 3q-63 8 -63 106z" />
            <glyph unicode="&#x2019;" horiz-adv-x="382" d="M68 1057q70 125 73 270q-12 4 -14 12q-4 10 -14 78q12 31 43.5 53.5t68.5 22.5q12 0 25 -4q63 -8 63 -109q0 -16 -2 -24q-6 -76 -42 -157t-76 -126q-31 -33 -64 -39q-41 0 -61 23z" />
            <glyph unicode="&#x201c;" horiz-adv-x="700" d="M68 1153q0 16 2 27q6 76 41.5 155.5t76.5 126.5q37 37 72 37q33 0 53 -22q-70 -129 -73 -269q12 -4 14 -12q4 -12 14 -78q-10 -31 -39.5 -52.5t-66.5 -21.5q-20 0 -31 3q-63 8 -63 106zM387 1155q0 16 2 25q4 76 40 155.5t77 126.5q35 37 74 37q33 0 53 -22 q-70 -123 -74 -267q6 -4 14 -12q10 -35 15 -80q-10 -31 -40 -52.5t-67 -21.5q-20 0 -30 3q-64 8 -64 108z" />
            <glyph unicode="&#x201d;" horiz-adv-x="700" d="M68 1057q70 125 73 270q-12 4 -14 12q-4 10 -14 78q12 31 43.5 53.5t68.5 22.5q12 0 25 -4q63 -8 63 -109q0 -16 -2 -24q-6 -76 -42 -156t-76 -127q-31 -33 -64 -39q-41 0 -61 23zM387 1057q68 127 72 270q-8 2 -15 12q0 2 -12 78q18 66 92 72q8 2 25 2q14 0 20 -2 q63 -8 64 -109q0 -16 -2 -24q-6 -76 -42 -157t-77 -126q-31 -33 -63 -39q-42 0 -62 23z" />
            <glyph unicode="&#x2022;" horiz-adv-x="505" d="M98 537q0 166 168 165q92 0 122 -37.5t28 -121.5q-4 -86 -40 -131t-128 -45q-82 0 -116 40t-34 130z" />
            <glyph unicode="&#x2026;" horiz-adv-x="1325" d="M115 102q0 119 121 119q66 0 87 -26.5t19 -88t-27.5 -94t-93.5 -32.5q-59 0 -82.5 28t-23.5 94zM549 102q0 119 121 119q66 0 87 -26.5t19 -88t-27.5 -94t-93.5 -32.5q-59 0 -82.5 28t-23.5 94zM993 102q0 119 121 119q66 0 87.5 -26.5t19.5 -88t-28 -94t-93 -32.5 q-59 0 -83 28t-24 94z" />
            <glyph unicode="&#x202f;" horiz-adv-x="325" />
            <glyph unicode="&#x205f;" horiz-adv-x="407" />
            <glyph unicode="&#x20ac;" horiz-adv-x="952" d="M-4 432l86 8q37 -252 171 -361.5t357 -109.5q166 0 244 66q41 35 47 94q-4 41 -16 64q-94 -59 -246 -60q-297 0 -360 328l307 33q57 4 47 137l-369 -37q-2 18 -2 61q0 39 4 109l455 47q57 8 47 137l-479 -49q37 158 123 240t200 92q14 2 43 2q88 0 162 -33q47 -20 57 -18 h9q29 39 28 102q-18 35 -92 68.5t-188 33.5q-240 0 -385 -155q-121 -129 -158 -352l-35 -5q-31 -4 -47 -14q-18 -23 -10 -125l78 8q-4 -33 -4 -100q0 -47 2 -70l-19 -2q-31 -4 -47 -14q-18 -23 -10 -125z" />
            <glyph unicode="&#x2122;" horiz-adv-x="978" d="M59 1286v23q2 12 7 32q2 14 14 15h8h346q0 -25 -6 -49q-4 -12 -22 -23h-117v-309q0 -23 1 -56.5t1 -48.5q-12 -10 -78 -10q-6 16 -6 37v387h-113q-25 0 -35 2zM455 862q4 76 19 244t18 197q0 25 -3 34v11q2 4 23 8q10 0 31.5 1t27.5 1q10 -18 35 -80l45 -123 q23 -68 31 -88q2 2 13.5 36t17.5 50l73 188q0 10 11 13q6 0 12 2q12 0 32.5 1t28.5 1q4 -10 4 -37q6 -96 15 -274q8 -98 12 -177q-10 -12 -80 -12q-8 16 -8 37q-2 23 -3 66t-1 65q-2 27 -2 97v96q-14 -51 -43 -123l-59 -158q-16 -6 -21 -6h-35l-61 166q-4 8 -17.5 50 t-21.5 64v-38q2 -39 2 -68q0 -53 -14 -207q0 -18 -7 -33q-12 -6 -28 -6q-4 0 -19.5 1t-27.5 1z" />
            <glyph unicode="&#xe000;" horiz-adv-x="975" d="M0 975h975v-975h-975v975z" />
            <glyph unicode="&#xfb01;" horiz-adv-x="952" d="M33 848q6 57 14 73.5t33 20.5l80 19q0 90 8 153q8 96 44 167t89 105.5t107.5 50t113.5 15.5q78 4 195 -35q59 -23 71 -37q6 -8 7 -32q-4 -31 -11 -45q-12 -29 -24 -41q-2 0 -78 20q-90 29 -158 29q-174 0 -184 -217q-2 -43 -2 -133l342 4q90 0 117 2q16 -33 16 -146v-696 q0 -70 -25 -109q-10 -14 -36.5 -17t-120.5 -5q0 49 1 167t1 183v483q-221 -4 -297 -4q0 -344 4 -782q0 -33 -16 -39q-43 -8 -117 -8q-16 0 -45 4q-2 12 -2 47q0 41 1 124t1 126q0 82 -1 258t-1 270q-98 2 -127 25z" />
            <glyph unicode="&#xfb02;" horiz-adv-x="935" d="M33 848q6 57 14 73.5t33 20.5l80 19q0 90 8 153q8 96 44 167t89 105.5t107.5 50t113.5 15.5q80 4 193 -35q72 -25 80 -47q14 -47 14 -190v-987v-27q0 -27 14.5 -50.5t42.5 -17.5q-2 -29 -2 -75q-29 -45 -108 -48q-33 0 -74 27q-49 35 -49 102v981q0 96 -4 211 q-57 14 -105 15q-174 0 -184 -217q-2 -43 -2 -133h111q90 0 116 2q-4 -70 -13 -94.5t-32 -32.5q-12 -6 -22 -9q-43 -4 -162 -4q0 -344 4 -782q0 -33 -16 -39q-43 -8 -117 -8q-16 0 -45 4q-2 12 -2 47q0 41 1 124t1 126q0 82 -1 258t-1 270q-98 2 -127 25z" />
            <glyph unicode="&#xfb03;" horiz-adv-x="1490" d="M1183 1315q0 115 109 115q57 0 77 -26q18 -23 17 -74v-11q-2 -59 -24.5 -91t-81.5 -32q-53 0 -75 28t-22 91zM1190 918q23 49 168 49q16 -33 16 -146v-696q0 -70 -25 -109q-10 -14 -36.5 -17t-120.5 -5q0 49 1 167t1 183v363q0 105 -4 211zM572 848q6 55 14 71.5 t32.5 22.5l80.5 19q0 90 8 153q8 96 44 167t89 105.5t107.5 50t113.5 15.5q119 0 154 -39q6 -8 6 -33q-4 -31 -10 -45q-12 -29 -25 -41q-4 -2 -41 9q-27 8 -82 8q-174 0 -184 -217q-2 -43 -2 -133h111q90 0 116 2q-4 -70 -13 -94.5t-32 -32.5q-12 -6 -22 -9q-43 -4 -162 -4 q0 -344 4 -782q0 -33 -16 -39q-43 -8 -117 -8q-16 0 -45 4q-2 12 -2 47q0 41 1 124t1 126q0 82 -1 258t-1 270q-98 2 -127 25zM33 848q6 55 14 71.5t32.5 22.5l80.5 19q0 90 8 153q8 96 44 167t89 105.5t107.5 50t113.5 15.5q119 0 154 -39q6 -8 6 -33q-4 -31 -10 -45 q-12 -29 -25 -41q-4 -2 -41 9q-27 8 -82 8q-174 0 -184 -217q-2 -43 -2 -133h111q90 0 116 2q-4 -70 -13 -94.5t-32 -32.5q-12 -6 -22 -9q-43 -4 -162 -4q0 -344 4 -782q0 -33 -16 -39q-43 -8 -117 -8q-16 0 -45 4q-2 12 -2 47q0 41 1 124t1 126q0 82 -1 258t-1 270 q-98 2 -127 25z" />
            <glyph unicode="&#xfb04;" horiz-adv-x="1488" d="M1190 1395q23 53 166 53q14 -47 14 -191v-1064v-27q0 -27 14.5 -50.5t42.5 -17.5q-2 -29 -2 -75q-29 -45 -108 -48q-33 0 -74 27q-49 33 -49 102v21v1038q0 109 -4 232zM572 848q6 55 14 71.5t32.5 22.5l80.5 19q0 90 8 153q8 96 44 167t89 105.5t107.5 50t113.5 15.5 q119 0 154 -39q6 -8 6 -33q-4 -31 -10 -45q-12 -29 -25 -41q-4 -2 -41 9q-27 8 -82 8q-174 0 -184 -217q-2 -43 -2 -133h111q90 0 116 2q-4 -70 -13 -94.5t-32 -32.5q-12 -6 -22 -9q-43 -4 -162 -4q0 -344 4 -782q0 -33 -16 -39q-43 -8 -117 -8q-16 0 -45 4q-2 12 -2 47 q0 41 1 124t1 126q0 82 -1 258t-1 270q-98 2 -127 25zM33 848q6 55 14 71.5t32.5 22.5l80.5 19q0 90 8 153q8 96 44 167t89 105.5t107.5 50t113.5 15.5q119 0 154 -39q6 -8 6 -33q-4 -31 -10 -45q-12 -29 -25 -41q-4 -2 -41 9q-27 8 -82 8q-174 0 -184 -217q-2 -43 -2 -133 h111q90 0 116 2q-4 -70 -13 -94.5t-32 -32.5q-12 -6 -22 -9q-43 -4 -162 -4q0 -344 4 -782q0 -33 -16 -39q-43 -8 -117 -8q-16 0 -45 4q-2 12 -2 47q0 41 1 124t1 126q0 82 -1 258t-1 270q-98 2 -127 25z" />
        </font>
</defs>
</svg>
