<svg xmlns="http://www.w3.org/2000/svg" viewBox="0 0 59 59"><g fill="#ffffff"><path d="M29.5,41A15.64,15.64,0,0,1,14,26.75l-2-24A2.5,2.5,0,0,1,14.5,0h30A2.5,2.5,0,0,1,47,2.71l-2,24A15.64,15.64,0,0,1,29.5,41ZM17.22,5,19,26.33A10.62,10.62,0,0,0,29.5,36h0A10.6,10.6,0,0,0,40,26.33L41.78,5Z"/><path d="M40.76,34.54a2.5,2.5,0,0,1-2.16-3.76A10.42,10.42,0,0,0,40,26.33l1.3-15.59a2.51,2.51,0,0,1,2.5-2.29H56.5A2.5,2.5,0,0,1,59,11V16.3A18.26,18.26,0,0,1,40.76,34.54ZM46.1,13.45,45,26.75A17.84,17.84,0,0,1,44.65,29,13.27,13.27,0,0,0,54,16.3V13.45Z"/><path d="M18.24,34.54A18.26,18.26,0,0,1,0,16.3V11a2.5,2.5,0,0,1,2.5-2.5H15.2a2.51,2.51,0,0,1,2.5,2.29L19,26.33a10.57,10.57,0,0,0,1.41,4.45,2.5,2.5,0,0,1-2.16,3.76ZM5,13.45V16.3A13.27,13.27,0,0,0,14.35,29,16.14,16.14,0,0,1,14,26.75L12.9,13.45Z"/><path d="M44.5,59h-30a2.5,2.5,0,0,1,0-5h30a2.5,2.5,0,0,1,0,5Z"/><path d="M39.25,59a2.51,2.51,0,0,1-1.87-.84,23.6,23.6,0,0,1-5.33-20.54,2.5,2.5,0,0,1,4.88,1.06,18.59,18.59,0,0,0,4.19,16.17A2.49,2.49,0,0,1,39.25,59Z"/><path d="M19.77,59a2.49,2.49,0,0,1-1.87-4.15,18.59,18.59,0,0,0,4.19-16.17A2.5,2.5,0,1,1,27,37.62a23.6,23.6,0,0,1-5.32,20.54A2.55,2.55,0,0,1,19.77,59Z"/></g></svg>