<svg xmlns="http://www.w3.org/2000/svg" viewBox="0 0 44.93 59"><g fill="#ffffff"><path d="M22.47,44.93A22.47,22.47,0,1,1,44.93,22.47,22.49,22.49,0,0,1,22.47,44.93ZM22.47,5A17.47,17.47,0,1,0,39.93,22.47,17.49,17.49,0,0,0,22.47,5Z"/><path d="M29,35a2.55,2.55,0,0,1-1.17-.28l-5.32-2.8-5.33,2.8A2.5,2.5,0,0,1,13.51,32l1-5.93-4.31-4.2a2.5,2.5,0,0,1,1.39-4.26l5.95-.87,2.66-5.4a2.51,2.51,0,0,1,4.49,0l2.66,5.4,6,.87a2.5,2.5,0,0,1,1.38,4.26L30.4,26.1l1,5.93A2.49,2.49,0,0,1,29,35Zm-6.49-8.41a2.49,2.49,0,0,1,1.16.29l2,1.05-.39-2.23A2.49,2.49,0,0,1,26,23.44l1.62-1.59-2.24-.32a2.5,2.5,0,0,1-1.88-1.37l-1-2-1,2a2.48,2.48,0,0,1-1.88,1.37l-2.24.32L19,23.44a2.49,2.49,0,0,1,.72,2.21l-.38,2.23,2-1.05A2.56,2.56,0,0,1,22.47,26.54Z"/><path d="M9.76,59a2.45,2.45,0,0,1-1.31-.37A2.5,2.5,0,0,1,7.26,56.5V37.87a2.5,2.5,0,0,1,5,0V52.46l9.09-4.55a2.5,2.5,0,0,1,2.23,0l9.09,4.55V37.87a2.5,2.5,0,1,1,5,0V56.5a2.52,2.52,0,0,1-1.18,2.13,2.55,2.55,0,0,1-2.44.11l-11.58-5.8-11.59,5.8A2.59,2.59,0,0,1,9.76,59Z"/></g></svg>