<svg version="1.0" xmlns="http://www.w3.org/2000/svg" viewBox="0 0 1920 574"><defs><linearGradient id="grad1" x1="0%" y1="0%" x2="100%" y2="0%"><stop offset="0%" style="stop-color:rgb(130,19,175);stop-opacity:0.36" /><stop offset="100%" style="stop-color:rgb(36,36,180);stop-opacity:0.36" /></linearGradient></defs><path fill="#af9ed4" d="M1498.5 1.1C1391.7 7 1301.4 26.5 1140 78.2c-80 25.6-159.1 53.6-343 121.3-105.2 38.7-124.4 45.8-165 60.2-134.3 47.8-210.3 69.9-260.5 75.8-89 10.4-201.5-15.5-316.7-73.1-20.1-10-36.9-19-47.6-25.6-7-4.3-7.5-4.4-7-2.2.4 2.3 21.6 14.2 53.8 30.2 86.9 43.4 170 68.4 247 74.3 19.1 1.4 58.9.6 75-1.6 66.8-9 152.8-36.5 406-129.7 198.2-73 273.7-99.7 356-126.2 160.1-51.6 242.9-69.7 355-77.8 27-1.9 116.4-1.6 147 .5 77.7 5.5 151.2 16.4 220.9 32.9 19.4 4.5 49.9 12.6 54.4 14.3 1.1.5 1.7.2 1.7-.8 0-.8-.8-1.7-1.7-2-86.3-25.2-192-42.4-292.8-47.7-22.2-1.2-102.3-1.1-124 .1z"/><path fill="#af9ed4" d="M1553.5 46.6c-56.7 2.1-104.2 6.2-151.3 12.9-71.9 10.4-162.8 38.2-285.9 87.4-80.2 32.1-152.5 63.8-332.3 145.9-145.9 66.5-198.8 89.7-259.5 113.7-72.3 28.6-114.1 41-155 45.7-16.9 2-76.6 1.7-98.5-.5-81.7-8.2-173.2-30.7-254.8-62.9-14-5.5-18.3-6.5-15.5-3.7 3.2 3.2 72.4 27.4 105.3 36.8 63.1 18 122.2 29 176.5 33.1 33.9 2.5 87.5.8 110.5-3.5 52.3-9.9 133.9-40.4 269.5-100.8 20.4-9 78.2-35.2 128.5-58.2 157.8-72 216.3-97.9 291.5-129 117.9-48.8 212.9-80.5 285.1-95.4C1407.7 59.9 1469 53 1529.9 50c26.3-1.3 102.9-1.3 129.2 0 88.9 4.4 179.3 16.4 248.7 32.8 9.1 2.2 12.2 2.6 12.2 1.6 0-2.2-40.8-11.1-84.9-18.4-52.4-8.8-107-14.6-166.6-18-18.3-1-98.7-2-115-1.4z"/><path stroke="#af9ed4" stroke-width="2" fill="url(#grad1)" d="M1441.5 110c-42.1 2.2-66.6 4.8-95.3 10-88.2 16.2-200.9 55.3-353.2 122.5-56.1 24.8-106.5 48.1-224.5 104-103 48.8-146.9 69.2-187.3 87.1-89.7 39.8-151.2 61.7-192.1 68.3-37.8 6.2-91.9 5.2-143.1-2.5C171 488 85.8 461.7 7.7 425.6L0 422l.2 23.2.3 23.2 10 4.3c5.5 2.4 20.1 8.5 32.5 13.5 104.4 42.1 208 71.7 289 82.7 30.5 4.1 38 4.6 75 4.6 32.9-.1 37.9-.3 50.9-2.3 59.8-9.4 134-41.5 332.6-143.7 77.5-39.9 149.9-76.4 186.5-94.1 168.3-81.2 275.3-119.9 365.8-132.1 18-2.4 72.3-2.4 94.2 0 103.2 11.6 208 44.9 338 107.4 40.5 19.5 107.5 56.3 138.3 76l6.7 4.3V168.1l-3.2-.9c-109.9-31.8-203.7-47.9-327.3-56.3-20.1-1.3-126.6-2-148-.9z"/></svg>