<svg version="1.0" xmlns="http://www.w3.org/2000/svg" viewBox="0 0 80 64"><path d="M8.3 2.1C4.1 3.3 3 5.6 1.9 14.7c-1 7.6 0 14.5 2.3 15.9.7.4 3.6 1.2 6.6 1.8 3.1.7 6 1.9 6.5 2.7 2.7 4.3-4.7 14.2-11.8 16-6.4 1.6-6.9 6.6-1 10.5 3.9 2.5 9.5.4 16-6.2 7.6-7.8 11.4-15.8 12.5-26.7 1.3-13.3-.5-22.1-5.3-25.1C24.9 1.8 12.5.8 8.3 2.1zm46 0c-4.2 1.2-5.4 3.6-6.4 12.8-.9 7.8.1 14.4 2.3 15.7.7.4 3.6 1.2 6.6 1.8 3.1.7 6 1.9 6.5 2.7 2.7 4.3-4.7 14.2-11.8 16-6.4 1.6-6.9 6.6-1 10.5 3.9 2.5 9.5.4 16-6.2 7.6-7.8 11.4-15.8 12.5-26.7 1.3-13.3-.5-22.1-5.3-25.1C70.9 1.8 58.5.8 54.3 2.1z"/></svg>