<svg version="1.0" xmlns="http://www.w3.org/2000/svg" viewBox="0 0 80 64"><path d="M22.2 2.1C17.7 3.4 8.6 13 5 20.4 1.4 27.7-.4 40.8 1 49.5c1.6 9.7 3.9 11.9 13.7 12.9 7.6.8 13.8-.6 15.4-3.6 1.8-3.4 3-16.7 1.8-21-1.2-4.4-1.7-4.8-8.7-6.2-3.1-.7-6-1.9-6.5-2.7-2.7-4.3 4.7-14.2 11.9-16C31 12.3 33 11.4 33 11c0-.5.3-1.5.6-2.4.7-1.8-4.6-7.7-6.8-7.5-.7 0-2.8.5-4.6 1zm46 0C63.7 3.4 54.6 13 51 20.4c-3.6 7.3-5.4 20.4-4 29.1 1.6 9.7 3.9 11.9 13.7 12.9 7.5.8 13.8-.7 15.4-3.6C78 55.2 79.2 42.4 78 38c-1.3-4.7-1.8-5-8.8-6.4-3.1-.7-6-1.9-6.5-2.7-2.7-4.3 4.7-14.2 11.9-16C77 12.3 79 11.4 79 11c0-.5.3-1.5.6-2.4.7-1.8-4.6-7.7-6.8-7.5-.7 0-2.8.5-4.6 1z"/></svg>