<svg version="1.0" xmlns="http://www.w3.org/2000/svg" viewBox="0 0 1920 209"><path d="M150.2.7c29.1.2 76.5.2 105.5 0C284.8.6 261 .5 203 .5s-81.8.1-52.8.2zm1183.1 0c12.5.2 32.9.2 45.5 0 12.5-.1 2.2-.2-22.8-.2s-35.3.1-22.7.2z" fill="#202342" fill-opacity=".13"/><path d="M370.2.7c33.9.2 89.7.2 124 0 34.3-.1 6.5-.2-61.7-.2s-96.2.1-62.3.2zm872.1 0c12.5.2 32.9.2 45.5 0 12.5-.1 2.2-.2-22.8-.2s-35.3.1-22.7.2z" fill="#202342" fill-opacity=".25"/><path d="M624.8.7c37.6.2 98.8.2 136 0 37.2-.1 6.5-.2-68.3-.2s-105.3.1-67.7.2zm429.4 0c30 .2 79.5.2 110 0 30.4-.1 5.8-.2-54.7-.2s-85.4.1-55.3.2z" fill="#202342" fill-opacity=".36"/><path d="M871.3.7c23.5.2 61.9.2 85.5 0C980.3.6 961 .5 914 .5s-66.3.1-42.7.2z" fill="#202342" fill-opacity=".46"/><path d="M0 104.6c0 56.9.3 103.3.8 103.1.4-.3 3.6-2.2 7.2-4.4C186 95 478.9 22.5 807 5.5 898.2.8 1012.8.6 1103.5 5c132.8 6.4 268.6 23.1 387.5 47.5 165.4 34 306.3 83.6 409.5 144 8.3 4.8 16.1 9.5 17.4 10.3l2.3 1.6-.3-103-.4-103.1-338.9-.6C1394.2 1.3 962.3 1 620.8 1H0v103.6z" fill="#202342"/></svg>