<?xml version="1.0" standalone="no"?>
<svg xmlns="http://www.w3.org/2000/svg" version="1.0" width="15.984000pt" height="15.984000pt" viewBox="0 0 15.984000 15.984000" preserveAspectRatio="xMidYMid meet">
    <metadata>Copyright (c) 2021 Mark Jivko, https://markjivko.com</metadata>
    <g id="stephino-logo" transform="translate(0.000000,15.984000) scale(0.003122,-0.003122)" fill="#ffffff" stroke="none">
        <g>
            <path d="M3276 4589 c2 -4 -13 -6 -34 -4 -34 2 -110 -5 -217 -21 -65 -9 -191 -43 -273 -73 -76 -28 -208 -88 -227 -103 -5 -5 -37 -26 -71 -47 -83 -52 -96 -64 -189 -156 -177 -175 -266 -365 -269 -572 -1 -29 -4 -49 -7 -45 -3 4 -26 39 -52 77 -108 167 -245 294 -392 367 -71 35 -182 74 -190 66 -3 -3 6 -28 20 -57 68 -140 97 -295 67 -352 -9 -16 -29 -30 -59 -39 -135 -39 -257 -130 -303 -226 -16 -32 -28 -43 -60 -53 -63 -19 -72 -39 -48 -118 40 -134 120 -208 244 -227 160 -24 250 -64 288 -128 12 -19 35 -55 52 -79 62 -89 86 -195 64 -290 -7 -30 -14 -63 -16 -74 -5 -29 -12 -69 -29 -155 -20 -106 -27 -143 -30 -160 -1 -8 -5 -26 -8 -40 -4 -14 -9 -37 -12 -53 -10 -53 -16 -82 -25 -117 -5 -19 -11 -51 -14 -70 -3 -19 -24 -111 -46 -205 -23 -93 -43 -177 -45 -185 -38 -169 -192 -679 -209 -698 -2 -1 -16 4 -32 13 -30 16 -71 19 -98 9 -21 -8 -116 -128 -116 -146 0 -28 36 -34 209 -34 l173 1 42 46 c100 111 227 334 312 552 21 53 41 97 44 97 3 0 5 -19 5 -43 0 -54 28 -195 54 -271 37 -106 107 -210 179 -267 24 -19 49 -39 56 -44 29 -27 161 -81 241 -100 48 -11 57 -13 120 -19 85 -10 94 -11 100 -18 4 -3 20 -2 36 2 18 5 27 5 24 -1 -8 -12 2 -12 25 1 11 6 21 6 24 1 7 -10 98 -7 116 4 8 5 11 4 7 -1 -3 -5 3 -10 13 -10 10 0 17 3 14 7 -2 4 9 7 24 7 41 0 165 13 173 18 4 2 24 6 45 9 22 2 66 12 99 21 33 8 67 17 75 19 91 21 256 100 371 177 210 139 379 365 453 603 83 266 76 631 -15 870 -13 33 -24 62 -24 65 -3 24 -98 182 -149 250 -96 127 -210 235 -486 459 -296 241 -408 391 -455 616 -13 62 -14 183 -1 233 53 199 240 335 461 333 79 -1 90 -3 160 -26 128 -43 229 -147 250 -257 6 -30 2 -61 -20 -158 -16 -73 -94 -172 -178 -228 -41 -27 -38 -40 15 -68 59 -30 138 -23 295 27 138 44 205 87 265 169 30 41 60 121 61 168 1 17 4 32 7 32 4 0 6 32 6 70 0 39 -3 70 -6 70 -3 0 -6 19 -7 42 -8 132 -107 295 -229 378 -90 61 -260 122 -376 135 -29 3 -66 8 -83 10 -16 2 -52 4 -78 4 -36 1 -46 4 -41 14 6 10 4 10 -7 0 -7 -7 -22 -13 -33 -13 -17 0 -18 2 -6 10 12 7 10 9 -7 7 -12 0 -20 -4 -17 -8z m-1693 -1111 c81 -55 78 -69 -13 -87 -57 -10 -275 -9 -286 2 -10 10 57 83 91 101 17 8 46 18 65 21 19 3 36 8 38 10 7 6 69 -22 105 -47z m517 -279 c0 -17 80 -132 145 -209 16 -19 143 -150 282 -290 287 -289 292 -295 374 -408 104 -142 202 -353 223 -482 27 -157 27 -351 2 -475 -17 -81 -34 -132 -73 -215 -57 -119 -143 -210 -245 -258 -252 -120 -582 -33 -710 188 -46 78 -68 178 -64 293 3 105 4 111 31 205 30 100 90 179 189 243 54 35 171 81 244 94 15 3 38 7 51 10 13 2 41 5 62 7 51 3 30 32 -60 83 -89 51 -275 71 -376 41 -92 -28 -254 -143 -291 -206 -14 -25 -14 -25 -10 10 2 19 11 67 20 105 16 72 23 116 32 195 3 25 7 56 9 70 2 14 7 45 10 70 3 25 8 61 10 80 3 19 8 55 11 80 5 47 8 68 19 135 6 41 9 62 20 150 3 28 12 93 20 145 15 100 23 159 30 224 3 21 7 57 11 80 4 23 7 47 7 53 0 9 4 10 14 2 7 -6 13 -15 13 -20z"/>
        </g>
    </g>
</svg>