<svg version="1.0" xmlns="http://www.w3.org/2000/svg" viewBox="0 0 1219 1235"><g fill="#CCF" fill-opacity="0.05" stroke-width="0"><path d="M726 .6c-1.9.2-9.8.9-17.5 1.4-54.5 4.2-157.1 23.3-207 38.5-69.3 21.1-142.9 60.2-214 113.4-26.3 19.7-42.7 33.1-115.9 95-39.4 33.3-64.6 56.7-84.9 78.6C36.9 381.2 9.4 432.1 1.6 485.1c-2.1 13.8-2.1 40.3-.1 52.9 5.2 32.1 18.7 62.8 44.9 102 8.3 12.5 16.7 23.8 57.7 78 29.2 38.6 42.8 59.6 56 86.2 21.4 43.7 28.7 79.7 35.9 177.3 3.5 47.2 4.3 56.2 7.1 77.5 9.9 76.1 33.1 121.4 77.3 151.1 15.5 10.5 33 17.7 52.8 22.1 11.9 2.5 45.5 3.6 60.9 1.9 32.4-3.7 56.6-9.9 126.9-32.6 85.8-27.8 114.2-34.1 157.5-35.2 42.4-1 72.1 3.2 161.5 23.2 91.1 20.3 109.3 23 152.5 23 21.9-.1 30.2-.5 38-1.8 36.2-6.3 63.5-18.7 90-40.9 44.3-37 72.7-93.1 85.9-169.8 7.5-43.1 10.1-79.8 11.6-163.5 2.2-123 1.1-146.7-10-202.5-11.1-55.8-25.2-101.2-63-202.5-20.1-54-27.7-76.2-46.5-135.5-32.3-102.4-54.8-151.9-88.5-194-39.4-49.4-96.2-82-166.5-95.4-25.6-4.9-37.6-5.8-77-6.1-20.3-.2-38.6-.1-40.5.1zm90 3.8c44.1 5.7 79.7 16.3 113 33.7 51.4 27 89 68 119.5 130.4 15.8 32.5 27.8 64.3 46.9 125 20 63.3 27.2 84.4 47.1 137.5 37.8 101.4 51.4 144.5 62.9 200.8 8.5 41.1 11.6 73 11.6 117.7 0 43.2-1.7 134.6-3 158-6.2 115.5-27.3 185.7-71.3 237.1-26 30.4-57 50.3-93.2 59.7-20.3 5.3-27.8 6.1-58 6.1-41.7 0-59.1-2.6-150.5-22.9-90.4-20.1-121.1-24.4-164.5-23.2-43.1 1.2-72.6 7.9-159.5 36.2-40.4 13.1-57.9 18.3-79 23.4-68 16.4-115.7 11.5-157.1-16-12.6-8.4-31.6-27.4-39.9-39.9-11.5-17.2-22.1-42.1-27.9-65.5-6.9-27.9-10-52.7-15.1-122-7.5-101-14.9-135.9-38.6-182.5-14-27.6-27.4-47.4-67.9-100.5-39.1-51.2-52.6-71-65.6-96-16.8-32.3-24-58.8-24-89 0-58.2 26.6-117 79.8-176.2 21.4-23.8 52.4-52.8 92.8-86.9 96.9-81.7 113.4-94.7 157.5-123.9 67.5-44.8 133.8-74.9 201-91.4C589.2 20.4 662.2 8 713.5 3.5c21.8-1.9 84.9-1.3 102.5.9z"/><path d="M730.5 60.1C690 61.7 645.6 67.8 583 80.5c-15.1 3.1-34.7 7.4-43.5 9.7-81.1 20.6-160.7 62.9-244 129.7-20 16.1-82 68.1-105 88.1-16.2 14.1-56.6 54.4-66.6 66.5-36.8 44.2-56.6 85.2-62.4 129.3-4.5 34 1.3 64.8 18.9 100.2 11.9 24 24.9 43.3 60 88.9 51 66.6 68.3 95.6 80 134.4 9.3 30.7 13.1 57.2 18.1 125.7 3.7 50.2 5.6 67.9 9.5 90 8.9 48.9 26.6 83.7 54.6 106.9 20.3 16.8 42.4 26.7 68.9 30.7 13.8 2.2 44.3 1.4 61.4-1.5 26-4.5 46.2-10 101.6-28 84.9-27.4 113.6-33.2 158-31.7 35.7 1.1 59.6 5.1 139.5 23 67.6 15.1 97 19.6 129.6 19.6 46.4 0 83-12 114.4-37.6 8.9-7.2 25.3-24.3 32.2-33.5 32.1-43 49.6-102.2 55.8-188.4 2.7-38.3 4.8-174.4 3.1-198-5.4-72.9-21.4-133-68.8-258.5-14.3-37.7-23.5-64.9-42.8-126-17-53.7-28.3-82.9-44.3-114.5-34-67.1-78.1-106.5-144.7-129.2-37.9-12.9-82.8-18.2-136-16.2zm48.8 2.4c40 1.7 81.4 11.5 114.4 27 67.1 31.7 107.6 83.3 143.6 183 3.6 9.9 11.1 32.4 16.7 50 19.4 61.4 26.9 83.3 43.8 128.5 19.8 53 27.9 75.7 36.3 102.3 15.4 49 24.6 91.1 29.6 134.7 1.6 13.4 1.8 23.5 1.6 74-.3 59.7-1.6 114.5-3.3 139.5-7.4 103.4-30.8 167.9-76.8 211.6-13.3 12.6-26.1 21.6-41.7 29.3-35.9 17.8-74.6 21.7-132 13.5-19.3-2.8-38.8-6.6-82.5-16.4-84.8-18.9-116.7-23.5-155.5-22.2-36.7 1.3-64.6 7.5-136.1 30.6-68.6 22.2-86.5 26.9-116.4 30.6-17.4 2.2-44.1 1.6-57.5-1.3-26-5.7-47.1-17-66.1-35.4-31.5-30.6-46.2-70.4-53.4-144.8-.5-5.8-2.1-26.3-3.5-45.5-6.4-87.3-13.2-121.4-32-160.3-8.2-16.8-13.9-26.7-25.9-44.7-7.3-11-15-21.4-55.5-74.9-24.8-32.7-41.1-58.8-50.4-80.8-15-35.1-18.2-66-10.6-101.6 12.6-58.6 49.3-111.4 122.9-176.6 15.9-14.1 78.7-67.1 101.9-86C375.2 157.8 459 112.7 540.5 92.1c29.9-7.6 91.4-19.3 125.5-24 32.2-4.5 72.4-7.3 92.5-6.5 4.4.2 13.8.6 20.8.9z"/><path d="M710 115.6c-38.9 3.3-70.4 8.1-119.1 17.9-54.8 11.1-86.7 21.3-129.9 41.7-39.3 18.6-90.6 51.6-131 84.2-10 8.1-79.2 66.1-90 75.4-52.8 45.9-85.7 84.4-104.5 122.7-18.3 37.2-24.2 77.1-16.4 110.8 7.3 31.2 22.3 58.8 56.8 104.5 8 10.7 20.6 27.3 27.9 37 55.4 73.4 65.3 102.3 73.7 216.2 3 41.7 4.8 59 8 77.5 10.2 59.3 33.6 96 74.3 116.4 18.5 9.3 35.8 13.1 59.8 13.1 33 0 58.6-5.7 128.4-28.5 63.8-20.8 91-27 124.5-28.2 34.6-1.2 60.4 2.5 138 19.7 55.7 12.4 73.8 15.6 100 18 60.8 5.5 107.7-10.4 143.4-48.6 35.4-37.9 54.7-91.2 62.1-171.4 3.2-35.6 6-164.2 4.1-192.2-4.5-66.6-18.6-119.7-62.9-237.8-15.8-42.1-18.8-51-34.7-101.2-26.1-82.7-42-119.3-67.2-154.5-32.5-45.4-80.5-75.1-140.8-87.2-22.3-4.5-31.9-5.3-66.5-5.6-18.4-.1-35.5-.1-38 .1zm82 3.8c77 11 129.8 42.2 167.5 99.1 21.9 33 36.4 67.5 61.4 146 17.1 53.9 21.8 67.7 34.1 100 43.2 114 58.5 171.8 63 237.7 1.2 18-.1 127.7-2 161.8-3.8 68.1-13.3 114.1-31.6 151.9-21.4 44.4-54.2 75.1-94.5 88.5-20.1 6.7-40.1 9.2-64.9 8.3-29.3-1.2-50.4-4.6-116-19.2-67.2-14.9-87.8-18.2-120.5-19.2-39.9-1.1-70.3 4.9-141 28.1-69.3 22.7-95.7 28.6-127.1 28.6-24.3 0-41.8-4-60.7-13.7-33.9-17.5-55.8-47.4-67.3-91.7-6.1-23.9-8.8-44.6-12.9-100.1-5.2-71.3-10.4-101.7-22.1-131.5-11.7-29.4-26-52.1-66.4-105-33.3-43.6-43.3-58.4-55-81.5-12.4-24.4-18.2-47-18.1-70.9.1-39.8 15.9-80.9 46.4-121.1 14.8-19.4 44.9-50.6 71.2-73.6 14.2-12.5 82.7-70 97-81.5 70.8-56.9 144.8-96.5 214.6-114.8 40.3-10.6 111.5-23.3 148.9-26.5 6.9-.6 14.1-1.3 16-1.5 1.9-.2 18.1-.3 36-.1 23.2.2 35.8.8 44 1.9z"/><path d="M713.5 167c-50 2.6-133.5 17.6-178 32-51.7 16.8-102.3 44.3-156.4 84.9-15.3 11.4-52.1 41.8-92.1 76-24.3 20.7-59.1 55.2-71.4 70.6-23.6 29.6-38.4 58.9-44.7 88.6-2.9 13.6-3.6 36.5-1.5 49.4 4.7 28.3 20.8 60.3 49.7 98.5 5.2 6.9 16.5 21.7 25 33 51.8 68.5 62.1 96 68.9 185.5 4.9 64.5 6.7 80.2 12.1 102.5 4.8 19.4 12.2 37.2 21.2 50.5 5.9 8.6 19.6 22.5 28 28.3 20.6 14.2 40.9 20.2 68.2 20.2 29.8 0 53-5.1 113.5-24.8 71.5-23.4 99-28.6 137.7-26.2 27 1.7 45.6 4.9 101.8 17.5 61.4 13.8 81.5 16.8 111 16.8 14.9 0 22.6-.4 30-1.7 29.7-5.3 51.8-16.4 72.8-36.5 21.9-21.1 35.9-44 46.6-76.7 12.3-37.5 17.3-75.7 19.1-148.4 1.6-62.2 1.4-106-.5-124.5-5.7-54.9-18-99.6-54-196-8.4-22.6-19-52.5-23.5-66.5-27.4-85.8-33.4-102.2-47.4-130.5-28.9-58-65.5-91.1-121.6-109.5-32.6-10.8-71.3-15.2-114.5-13zm60 3.6c39.3 4.2 75 16.3 103.5 35.2 28.9 19.2 51.6 46.4 70.6 84.7 14 28.3 20 44.7 47.4 130.5 4.5 14 15.2 44.2 23.7 67 35.7 95.4 49.4 145.6 54.3 199.5 2.2 23.9.6 138.1-2.5 176-5.1 63.1-17.5 106.2-40.1 140.3-14.4 21.6-35.3 40.2-56.7 50.7-21 10.2-38.6 13.8-67.2 13.8-29.2 0-46.1-2.6-110-16.8-57.4-12.7-74.2-15.6-102.3-17.5-38.9-2.6-67 2.7-138.7 26-65.1 21.2-87.1 25.8-118.4 24.7-18.1-.6-30-3.2-43.9-9.7-33.2-15.6-54.5-43.2-65.2-84.7-5.7-22-8.3-42-12-93.3-3.3-44.6-5.6-63.3-10.6-85.8-7.9-35.5-22.4-63.6-55.3-107.2-6.9-9.1-19.3-25.5-27.6-36.5-28.7-38.1-41.9-62.3-49.1-90-2.7-10.2-2.9-12.4-2.9-29 .1-14.8.5-19.8 2.3-28.2 10.4-47.6 38.5-89.3 94.7-140.2C286.2 363.2 352 307.9 371 293c56.6-44.1 111.2-74.4 166.5-92.3 17.2-5.6 27.7-8.3 56-14.2 77-16.2 131.9-21 180-15.9z"/><path d="M699.5 224c-47.7 3.7-119.2 17.4-155 29.7-43.3 15.1-86.3 38.5-129.5 70.8-16.5 12.3-19.7 14.9-59 47.9-36.6 30.7-50.2 43-67.5 60.7-23 23.5-37.4 43.1-48 65.2-18.3 38-20.2 73.7-6 108.2 8.3 20.3 20.3 38.9 50.5 78.5 24.3 31.8 35.3 48.1 44.2 65.7 14.8 29.4 20.2 54.8 24.8 117.8 3.9 54.4 6.6 72.7 14.1 95.2 12 36.3 37 60.7 71.9 70.1 8.5 2.3 11.4 2.5 28 2.6 26.2.1 42.1-3.1 87-17.5 57.1-18.3 68.3-21.4 88.6-24.9 33.1-5.7 64.4-2.9 126.8 11.1 40.2 9 59.4 12.7 76.4 14.9 18.7 2.4 41.3 2.6 56.1.4 40.2-5.9 73.4-30.6 94.5-70.5 15.1-28.5 23.8-65.5 27.6-117.4 1.4-19.8 3.3-119.4 2.5-135-2.7-54.2-14.1-98.2-50.5-195.5-6.5-17.3-15.2-42.3-19.5-55.5-23.8-74.5-30.5-92.8-42.6-116.6-8.4-16.5-20.2-34.5-30.1-45.7-28.2-32.1-68.7-52-119.3-58.7-14.5-1.9-49.4-2.7-66-1.5zm65 3.5c45.4 6 81.5 22.1 108.8 48.4 22.1 21.4 37.8 46.6 53 85.1 8.3 21.2 11.3 30 24.8 72.5 6.1 19.2 17.6 52.5 25.6 74 33.5 89.9 44.5 131.6 48.3 183 1.3 16.8-.2 115.5-2 141.5-5.3 73.2-20.7 118-51.5 149.9-25.7 26.6-53.9 38.1-93.3 38.1-25.1 0-40.9-2.4-96.2-14.6-102.3-22.6-124.6-22.1-208.3 5.2-49.1 16-68 21-89.7 23.5-55.1 6.3-98.3-21.5-114.8-74.1-6.4-20.4-9-37.9-12.7-85.6-5.4-71.2-9.7-92.8-24.5-122.9-9.1-18.5-18-31.9-46-69-26.7-35.4-36.8-50.4-44.5-66-10.9-22.1-15.1-40-14.2-60.5 2.3-48 29.8-93.7 87.8-145.4 17.5-15.7 72.3-61.8 88.1-74.3 58-45.4 114.3-74.8 171.3-89.2 16.4-4.1 58.5-12.4 78.5-15.5 15.5-2.4 40-5.1 53.5-6 12.2-.8 46.4.3 58 1.9z"/><path d="M708 281.7c-42.3 1.2-116 14.6-152.3 27.7-36.4 13.3-71.1 32.5-108.7 60.5-13 9.7-58.9 47.8-81.5 67.6-16.9 14.9-35.9 34.1-45.4 46-25.2 31.3-37.2 63.3-35.8 94.9 1.3 29 12.3 51.3 48.6 98.9 25.5 33.5 33 44.6 41.5 61.5 11.5 23.1 16.7 46.8 20.1 91.7 4.6 61.7 7.5 79.2 16.6 101 8.8 21.2 28.1 40 49 47.9 12.5 4.7 21.7 5.9 38.9 5.3 22.5-.8 36.6-4.1 84.5-19.7 46.4-15.1 65.1-19 90.5-19 24.2 0 38 2.1 87.6 13 52.6 11.7 57 12.4 84.9 12.4 22.2.1 24.7-.1 32.9-2.3 20.4-5.3 33.7-13 49.2-28.5 15.8-15.8 26-33 33.9-57 10.9-33.2 14.3-69.4 14.8-155.6.2-41 0-49.3-1.6-60.5-5.4-39.2-14.8-72.4-39.7-139.5-7.1-19-16.3-45.3-20.5-58.5-18.6-58.3-23.2-70.9-34-93-15.2-30.8-31.7-50.9-54.4-66-31.2-20.8-69.8-30.1-119.1-28.8zm37.5 3.4c44 4.1 82.3 22.3 106.8 50.4 10.1 11.6 20 27 27.7 43 10.4 21.5 15.9 36.4 34 93.5 4 12.4 12.9 38 20 57 15.1 40.8 21.6 59.8 27.6 81.5 8 28.9 12.6 55.5 13.9 80.5.8 14.9-1.1 105.4-2.5 122.5-5 58.8-18.4 97-43.4 123.3-16.8 17.6-35.5 27.7-59.1 31.8-6.9 1.3-13.4 1.5-28 1.1-22.5-.6-32.8-2.2-80-12.7-47.1-10.4-58.1-12.1-82.5-12.7-16.4-.4-22.8-.2-31.5 1.2-15.6 2.4-37.3 8.1-64.2 16.9-48.4 15.8-63.7 19.5-85.4 20.3-28.8 1.2-48.8-6.3-67.4-25.1-10.7-10.8-16.2-20-21.6-36-6.7-19.5-9.4-37.3-12.4-79.6-5.7-81-13-100.9-58.5-160.5-31.6-41.4-41.3-57-48-77.4-9.6-29.5-5.1-61.3 13.2-93.5 16.2-28.4 38.2-51.1 97.8-101.1 35.2-29.6 50.3-41.3 71-55 43.3-28.7 79.8-44.7 125.5-54.9 62.1-13.8 107.4-18.3 147-14.5z"/><path d="M687.5 335.6c-31.4 2.6-84.2 12.6-108.5 20.6-38.4 12.5-75.4 33.4-113.4 63.8-18.3 14.6-51.5 42.7-65.8 55.7-35.7 32.3-55.9 63.7-60.8 94.6-2 11.9-.9 29.2 2.5 39.7 6.1 19.2 13.7 31.6 42.6 70 39 51.9 43.7 64.5 48.9 132 3.3 43.9 5.8 59.7 12 75.8 12.9 33.3 41.9 52 77.6 49.8 18.6-1.1 32.8-4.5 71.9-17.3 41.1-13.4 60-17 84.4-16 17.5.7 30.9 2.8 66.6 10.7 34.3 7.6 45 9.5 60.5 11s30 .7 42.2-2.4c17-4.3 27-10 40.5-22.9 24.9-23.9 37.2-58.1 41.2-115.2 1.8-24.8 2.5-97.6 1.2-111-3.8-37.1-11.9-66.6-35.4-130-6.3-17.1-15.6-44.1-20.7-60-11.4-36.1-16.3-49.4-24.6-66.5-22.6-46.7-54.7-71.4-104.3-80.1-11.4-2-45.5-3.3-58.6-2.3zm57.6 4.3c30.4 5.3 55.4 17.6 73.9 36.1 11.3 11.4 19.7 23.5 28.5 41.1 8.7 17.7 13.4 30.2 26 69.9 5.4 16.8 14.4 43.1 20.2 58.5 27.6 73.6 35 104.2 36 149 .6 28-1.1 88-3.2 106.7-5.7 53.8-22.6 88.7-52.4 108.7-18.3 12.2-40 16.8-67.1 14.1-16-1.5-28.6-3.8-59-10.6-35.2-8-50.9-10.5-69.1-11.1-26.2-.9-43.3 2.4-88.9 17.2-49.4 16.1-69.5 19.1-91.9 13.9-20.2-4.6-38.4-19.7-48.2-39.9-7.9-16.4-11.3-35.2-14.9-82-2.4-31.2-4.1-43.6-8-59.2-5.9-23.3-14.3-38.2-43.9-77.6-29.3-39-37.6-53.8-41.7-73.7-2.1-10.7-1.5-28.1 1.5-39.4 6.2-23.3 19.6-44.8 43.1-69 25.3-26.1 83.5-74.6 113-94.3 29.8-19.9 59.6-34.1 89.3-42.7 21.9-6.4 69.3-15.1 95.7-17.6 15.6-1.4 47.7-.5 61.1 1.9z"/><path d="M675.5 380c-22.1 2.5-61.5 9.9-79.2 15-30.6 8.8-63.4 26.1-95.9 50.6-20 15.1-58.7 48.6-74.9 64.8-18.7 18.7-26.6 29.1-34 44.9-7.1 15-9 22.9-9 38.7 0 15.7 1.3 21.6 7.9 35.4 5.8 12.3 10.4 19.3 30.5 45.9 34.3 45.7 38.5 57 43.1 116.3 4.1 53.8 9.4 71.9 26 88.4 12 12 24.5 17.6 42.1 18.7 16.7 1 32.3-2.1 69.5-14.1 40.4-13.1 51.3-15.2 74.8-14.3 16.6.6 24.7 1.9 62.4 10.2 34.6 7.6 44.3 8.8 63.2 8.2 17.6-.5 23.6-1.8 35.5-7.6 16.3-8 29.1-21.5 38.5-40.6 8.6-17.4 13.3-35.7 16-62.5 1.8-17.4 3.1-89.8 1.9-103.5-2.8-32.9-10-59.7-31.2-116.5-5.2-14-12.7-35.9-16.7-48.5-15.6-49.7-24.7-69.7-40.3-89-16.2-19.9-37.6-32.1-67.6-38.6-7.7-1.7-14-2.1-32.1-2.4-12.4-.2-26.1 0-30.5.5zm50 2.1c30.2 3.7 55.2 15.4 73.2 34.2 18 18.9 28 39.4 44.4 91.2 4.5 14.3 12.4 37.3 17.5 51.1 17.3 46.7 23.4 66.5 27.9 90.9 3.9 21.7 4.5 34.2 3.5 77.5-1.2 48.9-2.7 65.1-8.1 86.4-8 31.1-24.9 54.6-47.4 65.7-11.8 5.7-17.9 7.1-34.6 7.6-18 .6-27.7-.7-64.4-8.7-43-9.4-43.5-9.4-66.5-9.5-24.5 0-29.8 1.1-67.1 13.1-12.9 4.1-28.4 8.8-34.5 10.4-35.8 9.3-59.2 5.2-78.1-13.7-5.7-5.8-8.2-9.2-11.7-16.5-7.8-16.1-10.4-29-13.1-65.3-2.8-37.6-4.6-49.5-9.5-65-5.6-17.3-12.8-29.2-37.6-62.1-29.4-39.1-36.3-54.5-35.1-78.4.7-12.8 3.2-22.1 9.6-35.5 7.2-14.9 15.7-26.1 33.1-43.5 14.8-14.8 53.2-48 73.9-63.9 32.6-25 67.1-43 99.4-52 16.9-4.8 61.3-12.7 80.2-14.4 9.5-.9 36.7-.6 45 .4z"/><path d="M668 422.6c-26.4 3.2-59 10.4-76.5 16.9-22 8.2-50.3 24.8-72.5 42.5-20 16-48.1 40.3-58 50.2-27.6 27.6-39.9 55-36.1 80.1 2.7 17.3 8.3 27.7 33 60.6 28.7 38.4 31.9 47.4 36.1 99.8 3.1 39.4 6.9 54.1 17.2 67.8 12.2 16 31 23.1 53.8 20.4 11.7-1.4 22.3-4.1 46.6-11.9 28.5-9.2 36.7-11.1 52.4-11.7 16.4-.7 27.2.8 59 7.8 29.1 6.5 38.7 7.9 54.1 7.9 19.9 0 32.9-4.3 45.9-15 18.1-15.1 28-37.4 32.6-73 1.9-14.6 3.4-77.5 2.3-92.6-2-26.6-8.2-51.1-23.1-90.9-7.7-20.4-10.2-27.8-19.4-56.4-12.6-39-21.6-57.5-35.3-72.2-20.5-22.1-47.4-32.1-85.7-31.8-8.2.1-20.1.7-26.4 1.5zm50.9 2c31 4.5 53.8 18.5 69.4 42.5 10 15.5 14.5 26.2 26.7 63.9 4.5 14 11.7 34.9 16 46.5 17 46 22.9 68.4 24.9 95.5 1.1 15.9-.4 75.5-2.4 91.5-3.8 31.4-12.2 52-27.1 66.9-8.1 8.2-17 13.7-26.9 16.9-6.2 1.9-9.1 2.2-24.5 2.2-15.9-.1-18.8-.4-32.5-3.4-56.3-12.2-51.1-11.4-72.5-11.5-22.7-.1-25.3.4-62.3 12.3-27.7 8.9-38.3 11.3-51.2 11.4-20.3.1-35.8-8.1-46.6-24.6-7.9-12.1-10.9-26-13.9-63.2-3-37.3-5.5-49.6-13.2-65-5.7-11.3-9.3-16.6-24.6-37-22.4-29.6-28.9-41.6-31.3-58-2.8-18.6 5.3-41.9 21.7-62.3 16.1-20 67.9-64.6 97.9-84.1 21.2-13.8 44.5-24.3 66.9-30.2 38.8-10 80-14.1 105.5-10.3z"/><path d="M677 466.6c-1.9.2-7.8.9-13 1.5-14 1.5-42.1 7.4-53 10.9-24.4 8.1-48.9 23-79.5 48.6-40.5 34-54 50.2-59.6 72.2-5.4 21.1-.4 35.7 23.2 67.1 24.8 33.1 28 41.7 30.9 82.1 2.2 30.9 4.8 41.8 12.8 53.9 4.7 7.1 13.6 13.6 22.4 16.2 5.9 1.8 8.6 2.1 18.1 1.6 12.2-.5 17.8-1.8 42.6-9.8 36.6-11.8 45.4-12.2 85.6-3.4 28.6 6.2 33.6 6.9 46.5 6.9 8.9 0 13.1-.5 18.5-2.2 19.4-6 33.8-22.4 40.5-46.5 3.7-13.1 5-25.7 6.1-57.7 1.6-51-.5-63.2-20.6-118.5-4.6-12.7-11.1-31.6-14.5-42-6.8-21.5-12.5-34.7-19.2-45.1-11.5-17.8-28.8-29.2-51.2-33.9-7.7-1.5-29.7-2.7-36.6-1.9zm35.5 3.9c27.4 5.7 45.8 20.6 58.3 47.4 2 4.2 8.6 22.4 14.8 40.6 6.1 18.1 14.3 42.2 18.2 53.5 12.9 37.4 14.8 50.7 13.3 96-1.4 40.2-3.8 55.4-11.6 71.5-12 24.7-33 35.8-61.8 32.5-5.6-.6-19.2-3.1-30.2-5.5-28.6-6.2-33.6-6.9-47-6.8-14.5 0-21.1 1.3-46.2 9.4-23.7 7.6-33.7 9.9-43.9 9.9-13.7 0-23.3-3.9-32.1-13.3-10.2-10.8-13.8-23.3-16.3-57.2-3-40.3-6.4-49.8-28.3-79.2-22.4-30-27.6-40.6-27.7-55.9 0-17.5 12.2-40.1 31.6-58.4 10.5-9.9 39.7-34.5 50.6-42.6 19.4-14.5 38.8-25 57.5-31.3 14.1-4.7 43.6-10.4 64.8-12.5 7.6-.8 28.4.4 36 1.9z"/><path d="M669.5 517.1c-12.4.9-37.7 6-47.6 9.5-18 6.4-33.4 16-55.8 34.6-26 21.6-34.3 30.6-40.9 44.5-3.6 7.5-3.7 8.2-3.7 18.8 0 10.7.1 11.2 3.8 18.5 2 4.1 8.2 13.5 13.6 20.7 17.9 23.8 19.9 29.2 22.6 60.2.9 10.6 2.3 21.7 3.1 24.7 5.4 20.8 20.3 30.7 41.2 27.5 3.8-.6 15-3.6 24.7-6.6 9.7-3 20.6-6 24.2-6.6 9.1-1.6 20.5-.6 39.6 3.6 23.1 5.1 33 6.2 41.9 4.7 17.7-3.1 30-15.5 35.7-36.2 3-10.8 4.1-23.9 4.3-51.5.2-29.2-.8-35.8-9.4-60.5-2.8-8-8.8-25.6-13.3-39.1-11.3-33.3-16.1-42.9-26.5-52.2-13.1-11.8-31.6-16.5-57.5-14.6zm30.3 3.5c17.1 3.6 30 13.7 38.5 30.1 2.6 5.1 8.4 20.1 13.1 34 4.6 13.6 10.7 31.3 13.4 39.3 8.6 24.7 9.6 31.3 9.4 60.5-.2 27-1.2 37.9-4.3 49.5-6.7 24.7-23.7 37.6-46.9 35.6-4.1-.4-14.5-2.2-23-4.1-21.7-4.7-31-5.9-40.4-5.2-8.8.7-11.1 1.3-32.8 8-8 2.6-17.7 5.1-21.5 5.7-12.3 2-22.2-1-29.8-9.1-7.8-8.3-9.7-15.1-12-42-2.7-31.1-4.4-35.8-22.5-60.2-6-8.2-12.4-17.9-14.2-21.5-3.1-6.2-3.3-7.4-3.3-16.8 0-9.8.1-10.3 4.2-18.5 5.5-11.2 13.4-20.3 29.5-34.1 39.2-33.6 54.5-42.1 88.2-48.9 23-4.7 39.7-5.4 54.4-2.3z"/><path d="M662 569c-26.8 3.3-41.3 10.3-67.1 32.6-15.2 13.2-21.9 23.5-21.9 33.7 0 8.3 2.6 13.8 14.3 29.7 7.5 10.2 9.3 15.7 10.7 31.6 1.4 17.2 3.1 22.8 8.4 28 4.9 4.9 10.8 6.9 17.7 6 2.6-.4 10.7-2.4 18-4.6 16.2-4.9 22.8-5.1 39.7-1.4 21.8 4.7 31.5 3.3 39.8-5.8 7.7-8.4 10.4-20.4 10.4-46.4 0-19.6-.9-23.7-11.5-54.6-9.7-28.4-11-31.3-17.2-37.9-9.2-9.8-21.9-13.2-41.3-10.9zm19 2c12.1 2 21.7 8.7 27 18.9 3.1 6.2 18.8 52.6 20.5 60.8.9 4.5 1.5 12.7 1.5 21.7 0 24.7-2.6 36.5-10 44.9-7.5 8.5-16.6 9.8-37.2 5.3-17.4-3.8-25.4-3.6-41.4 1.3-7.1 2.2-14.8 4.2-17 4.6-9.9 1.5-18.9-4.5-21.8-14.5-.8-3-2-11.3-2.6-18.4-1.6-18.4-2.4-20.5-16.6-40.2-6.7-9.4-8.8-14.9-8.2-21.2.8-8.3 4.2-13.8 15.7-25.2 20.2-20.1 37.8-31.1 56.1-35.1 17.3-3.8 24.5-4.4 34-2.9z"/></g></svg>